<svg id="Layer_2" data-name="Layer 2" xmlns="http://www.w3.org/2000/svg" viewBox="0 0 1200 800"><defs><style>.cls-1{fill:#ffb885;}.cls-2{fill:#fff;}.cls-3{stroke:#000;stroke-miterlimit:10;}</style></defs><title>Artboard 1</title><path class="cls-1" d="M816.68,141.35c3.13,2.51-6.5,13-9.14,28.94-2.71,16.4,3.27,31.75,15.23,62.45,4.3,11,6.34,14.49,6.1,21.33-.52,14.49-10.62,24.45-6.1,30.46,1.33,1.76,2.92,1.87,6.1,3.05,9.33,3.46,14.94,9.67,21.32,16.76,6.91,7.66,6.81,11.92,10.88,22.28,1.33,3.49,3.13,7.66,5.77,13,11.53,21.88,22.2,47.78,46.57,56.92-32,6.09-33.51,48.74-55.91,66.6a76.14,76.14,0,0,1-9.29,8,79.6,79.6,0,0,1-23.84,11.76c-2.93,2-4.68,4.24-4.64,7.31,0,3.26,2.06,3.65,4.57,9.14,5.34,11.67,2.48,23.66,0,33.51-12.19,48.32-14.91,46.51-15.23,59.41,0,0-.1,4,4.56,41.13-3.79-.32-9.62-.83-16.75-1.53-15-1.46-18-2-22.85-1.52-8.74.86-12.11,3.88-21.33,7.62,0,0-17.81,7.22-38.08,7.61-23,.45-32.64-8.42-41.13-1.52-5.07,4.13-2.17,7.73-7.61,16.76-6.35,10.51-16.16,15.35-35,24.37-13.1,6.26-13.46,4.85-24.37,10.66-12,6.39-19.47,10.37-25.9,18.28-10.35,12.74-10.23,26.13-13.71,25.9-3.67-.25-1.34-15-10.66-27.42-4.36-5.8-8.7-7.68-28.94-16.76-12.94-5.8-22.65-10.16-29.41-13.37s-10.58-5.26-11.72-6.43c-11.43-6.86-11.43-31.23-22.09-28.18-42.65,10.66-76.16-10.66-114.25-21.33-10.66-3-21.32,3-28.94,10.67,3-15.24,7.62-30.47,5.33-48A61.72,61.72,0,0,0,324,578.63c-1.28-4.56-3.35-11.19-6.95-23-5.09-16.64-7.63-25-7.61-27.42.1-15.48,8.33-23.76,3-32-1.15-1.8-1.47-1.29-9.14-7.62,0,0-6.73-5.55-13.71-12.18-6.79-6.45-9.84-12.38-21.32-33.51-9.6-17.66-14.41-26.51-15.23-27.42-15.66-17.34-37.31-18.41-36.56-24.38.4-3.24,6.81-3,16.75-10.66a63.83,63.83,0,0,0,10.67-10.66c11.89-14.27,19.64-34.21,22.84-41.13,12.65-27.3,44.94-26.15,44.18-41.13-.15-2.93-1.2-2.44-3.05-9.14-.76-2.75-3.53-13.53-1.52-28.94,2.31-17.66,7.73-17.09,13.71-41.13,1.54-6.2,2.55-12.76,4.57-25.9,2.3-14.95,2.39-19.42,1.52-24.37a37.87,37.87,0,0,0-3.11-10.21c-2.27-4.81-4.92-7.68-4.5-8.07.68-.63,6.72,8.1,16.75,10.66,4.49,1.15,8.13.64,12.19,0,18.41-2.88,27.61-4.32,38.08-7.61,22.67-7.12,17.58-8.49,28.94-10.66,18.1-3.47,39.25-1.57,45,2.32a3.31,3.31,0,0,0,2.28.72c3.31-.47,3.58-8.1,6.09-13.71,2.95-6.58,7.73-7.59,22.85-16.75s11.83-9.06,22.85-15.24c15.47-8.67,19.37-7.42,28.94-15.23a74,74,0,0,0,6.6-5.92,48.54,48.54,0,0,0,7.11-9.31c3.81-6.86,5.33-14.47,9.9-22.09,12.19,35,47.22,50.27,79.21,62.45,16.76,6.1,15.23,30.47,27.42,30.47,16.76,0,36.56-6.09,55.17.63,4.71,1.32,10.17,2.87,16.53,4.88s13.65,4.43,22,7.44c14.3,5.16,21,8.12,30.47,6.09C807.93,146.6,814.11,139.28,816.68,141.35Z"/><path class="cls-2" d="M744.35,398.74c-1.52.13-3,.24-4.56.23-.74,0-4.77-.36-1.17.15a40,40,0,0,1-6.72-1.65c-.73-.23-4.11-1.55-.72-.1-.95-.41-1.88-.86-2.8-1.32-2.32-1.15-4.58-2.43-6.8-3.78-8.35-5.08-16-11.56-24.7-16-22.39-11.47-49.88-9-66.36,11.19-5.94,7.29-7.66,18.42,0,25.46,6.58,6,19.1,7.79,25.45,0,1.62-2,3.42-3.69,5.2-5.51s-2,1,0,0a17.79,17.79,0,0,0,2.53-1.48c1.63-1.16-2.88.73.26-.09l2.67-.72c3-.8-.68.28-.72.05,0-.06,3.09-.1,3.44-.09s3.6,0,1.08-.05,1.41.29,1.79.38a56.25,56.25,0,0,1,6.11,1.79c1.35.47,1.87,1,.35.11,1.07.65,2.17,1.24,3.24,1.89,2,1.18,3.9,2.43,5.81,3.71,17.22,11.49,34.76,23.68,56.59,21.81,9.36-.8,18.47-7.7,18-18-.4-9.06-8-18.86-18-18Z"/><path class="cls-2" d="M487.41,476.31c15.68-3.41,31.52-6.29,46.41-12.49a100.18,100.18,0,0,0,42.36-33.3c11.32-15.17,19.25-34.25,24.48-52.32,5.56-19.19,6.47-38.4,6.43-58.23h-30a117.48,117.48,0,0,0,1.63,15c.3,1.52.57,3.05.84,4.57-.57-3.17.24,2.58.3,3.4a208.7,208.7,0,0,1,.25,21.66c-.42,15-1.09,29.9,1.43,44.8,2.64,15.61,11.34,34.73,26.86,41,19.73,7.93,41,3.31,60.27-3.69,19.58-7.13,39.63-15.26,60.27-17.59,7.77-.88,15.39-6.27,15-15-.33-7.38-6.65-15.95-15-15-20.75,2.34-40.33,8.18-59.82,15.5-9.39,3.53-18.79,7.21-28.66,9.19a41,41,0,0,1-25-2.71l6.62,3.86c-1-.93-2-1.88-3-2.88-.24-.26-2.57-3-1.41-1.54s-1.13-1.68-1.11-1.66q-.87-1.35-1.65-2.76c-.51-.93-1-1.89-1.45-2.85,1.48,3-.23-.65-.4-1.15a59.83,59.83,0,0,1-1.79-6.18q-.74-3.19-1.2-6.44c.49,3.49,0-.95-.06-1.33-.1-1.12-.18-2.25-.25-3.38-.28-4.85-.28-9.71-.2-14.57.18-9.66.77-19.31.59-29a132.19,132.19,0,0,0-1-14.34c-1-8-1.71-9.89-2.13-16.89-.47-7.81-6.56-15.38-15-15-8.11.37-15,6.59-15,15,0,9,.32,17.94-.57,26.9-.11,1.15-.24,2.31-.38,3.46.14-1.12.08-.72-.2,1.18-.29,1.72-.58,3.43-.91,5.15q-1.18,6-2.82,11.89c-4.3,15.47-10.61,30.77-19.65,43.73a79.92,79.92,0,0,1-15.39,16c1.8-1.37-2.64,1.71-3.08,2q-1.87,1.2-3.83,2.28c-1.73,1-3.52,1.8-5.29,2.69-1.63.72-1.8.82-.49.28-.69.29-1.38.56-2.07.83-13.83,5.37-28.54,7.95-43,11.08-7.92,1.73-12.54,10.95-10.47,18.46,2.24,8.17,10.5,12.2,18.45,10.47Z"/><path class="cls-2" d="M509,351.74c2,1.18,4,2.39,6,3.69,1.19.79,2.36,1.62,3.53,2.45,2.11,1.49-.22-.25,1,.74a68.77,68.77,0,0,1,10.69,10.68c-1.26-1.64.1.28.58,1,.65,1,1.27,2,1.85,3s1.11,2.07,1.6,3.14c.66,1.42-.38-1.55.32,1,.38,1.38.76,2.75,1.12,4.13.7,2.67.09-.63.21,1a46.59,46.59,0,0,1-.18,8.35c-.83,7.83,7.49,15.34,15,15,8.84-.4,14.11-6.61,15-15,3.06-28.84-18.33-51.68-41.54-65.17A15,15,0,0,0,509,351.74Z"/><path class="cls-2" d="M470.89,309c2.17,18.34,4.54,36.68,6.1,55.08.77,9,1.32,18,1.48,27.08.08,4.59,0,9.18-.06,13.77,0,1.94.12,3.85.15,5.79,0,1,0,2-.05,3,0,.27-.29,3.16-.09,1.69.23-1.73-.28,1.26-.36,1.63-.16.71-.33,1.42-.52,2.12-.25.93-.57,1.84-.86,2.76,0,.1-.93,2.26-.31.87.68-1.54-.61,1.12-.78,1.44-.33.62-.68,1.25-1,1.86-.49.81-1,1.6-1.56,2.37.89-1.28.38-.4-.31.31-1.15,1.2-2.29,2.4-3.54,3.52s0,.09.22-.1c-.78.57-1.6,1.1-2.42,1.61a42,42,0,0,1-8.74,4.35c-1.83.63-3.68,1.19-5.56,1.65-1.21.3-4.5.92-4.52.93s-3.52.17-4.55.17c-.81,0-1.62,0-2.43-.08-.47,0-3.67-.58-1.57-.14-4-.83-4.24-.94-7.53-2.86-2.3-1.35,1.25,1.39-.68-.54-1.14-1.14-2.28-2.31-3.44-3.43-1.88-1.82-.41-.37,0,.17-.5-.66-1-1.34-1.44-2-1-1.51-1.71-3.42-2.79-4.84-.93-1.23.11.44.25.78-.39-.94-.72-1.9-1-2.87-.18-.57-.35-1.14-.5-1.73s-.78-3.77-.4-1.47c.32,2,.1-2.6,0-3.16-.26-1.48-.13.86-.23,1.21a14.8,14.8,0,0,0,.67-2.7c.07-1.4-.27.64-.5,1a22.53,22.53,0,0,0,1.42-2.44c.61-1.39-.26.56-.54.75.28-.2,3.41-2.81.76-.9,6.57-4.73,9.75-13.06,5.39-20.52-3.8-6.48-13.92-10.15-20.53-5.38-7.95,5.73-14.23,13.34-15.76,23.32-1.49,9.7.27,18.7,4.3,27.58a50.9,50.9,0,0,0,44.95,30.24c21.09.8,43.55-9.06,56.1-26.11s11-39.23,10.27-59.4c-.9-25.57-4.42-51-7.42-76.36-.92-7.76-6.24-15.39-15-15-7.34.33-16,6.65-15,15Z"/><path class="cls-3" d="M812.87,390.4l-.27.08v-.05Z"/></svg>