<svg id="Layer_2" data-name="Layer 2" xmlns="http://www.w3.org/2000/svg" viewBox="0 0 1200 800"><defs><style>.cls-1{fill:#ffb885;}.cls-2{fill:#512731;}.cls-3{stroke:#000;stroke-miterlimit:10;}</style></defs><title>Artboard 1</title><path class="cls-1" d="M816.68,141.35c3.13,2.51-6.5,13-9.14,28.94-2.71,16.4,3.27,31.75,15.23,62.45,4.3,11,6.34,14.49,6.1,21.33-.52,14.49-10.62,24.45-6.1,30.46,1.33,1.76,2.92,1.87,6.1,3.05,9.33,3.46,14.94,9.67,21.32,16.76,6.91,7.66,6.81,11.92,10.88,22.28,1.33,3.49,3.13,7.66,5.77,13,11.53,21.88,22.2,47.78,46.57,56.92-32,6.09-33.51,48.74-55.91,66.6a76.14,76.14,0,0,1-9.29,8,79.6,79.6,0,0,1-23.84,11.76c-2.93,2-4.68,4.24-4.64,7.31,0,3.26,2.06,3.65,4.57,9.14,5.34,11.67,2.48,23.66,0,33.51-12.19,48.32-14.91,46.51-15.23,59.41,0,0-.1,4,4.56,41.13-3.79-.32-9.62-.83-16.75-1.53-15-1.46-18-2-22.85-1.52-8.74.86-12.11,3.88-21.33,7.62,0,0-17.81,7.22-38.08,7.61-23,.45-32.64-8.42-41.13-1.52-5.07,4.13-2.17,7.73-7.61,16.76-6.35,10.51-16.16,15.35-35,24.37-13.1,6.26-13.46,4.85-24.37,10.66-12,6.39-19.47,10.37-25.9,18.28-10.35,12.74-10.23,26.13-13.71,25.9-3.67-.25-1.34-15-10.66-27.42-4.36-5.8-8.7-7.68-28.94-16.76-12.94-5.8-22.65-10.16-29.41-13.37s-10.58-5.26-11.72-6.43c-11.43-6.86-11.43-31.23-22.09-28.18-42.65,10.66-76.16-10.66-114.25-21.33-10.66-3-21.32,3-28.94,10.67,3-15.24,7.62-30.47,5.33-48A61.72,61.72,0,0,0,324,578.63c-1.28-4.56-3.35-11.19-6.95-23-5.09-16.64-7.63-25-7.61-27.42.1-15.48,8.33-23.76,3-32-1.15-1.8-1.47-1.29-9.14-7.62,0,0-6.73-5.55-13.71-12.18-6.79-6.45-9.84-12.38-21.32-33.51-9.6-17.66-14.41-26.51-15.23-27.42-15.66-17.34-37.31-18.41-36.56-24.38.4-3.24,6.81-3,16.75-10.66a63.83,63.83,0,0,0,10.67-10.66c11.89-14.27,19.64-34.21,22.84-41.13,12.65-27.3,44.94-26.15,44.18-41.13-.15-2.93-1.2-2.44-3.05-9.14-.76-2.75-3.53-13.53-1.52-28.94,2.31-17.66,7.73-17.09,13.71-41.13,1.54-6.2,2.55-12.76,4.57-25.9,2.3-14.95,2.39-19.42,1.52-24.37a37.87,37.87,0,0,0-3.11-10.21c-2.27-4.81-4.92-7.68-4.5-8.07.68-.63,6.72,8.1,16.75,10.66,4.49,1.15,8.13.64,12.19,0,18.41-2.88,27.61-4.32,38.08-7.61,22.67-7.12,17.58-8.49,28.94-10.66,18.1-3.47,39.25-1.57,45,2.32a3.31,3.31,0,0,0,2.28.72c3.31-.47,3.58-8.1,6.09-13.71,2.95-6.58,7.73-7.59,22.85-16.75s11.83-9.06,22.85-15.24c15.47-8.67,19.37-7.42,28.94-15.23a74,74,0,0,0,6.6-5.92,48.54,48.54,0,0,0,7.11-9.31c3.81-6.86,5.33-14.47,9.9-22.09,12.19,35,47.22,50.27,79.21,62.45,16.76,6.1,15.23,30.47,27.42,30.47,16.76,0,36.56-6.09,55.17.63,4.71,1.32,10.17,2.87,16.53,4.88s13.65,4.43,22,7.44c14.3,5.16,21,8.12,30.47,6.09C807.93,146.6,814.11,139.28,816.68,141.35Z"/><path class="cls-2" d="M814.18,388.35c-1.17.29-2.35.53-3.54.74,1.58-.17,1.72-.2.43-.07-2,.07-4,.25-5.94.21-1.61,0-3.21-.2-4.82-.3,4,.25-.92-.22-1.55-.35a81.35,81.35,0,0,1-10-2.8c-1.78-.62-3.55-1.29-5.3-2,2.94,1.16-.82-.36-1.7-.76-13.36-6.08-26.09-14.23-40.09-18.81-13.4-4.38-29.46-5.38-43-1.15-15.36,4.79-27.23,15.36-35.53,29-4.91,8-2,20.14,6.46,24.62,8.76,4.63,19.39,2.14,24.63-6.45.86-1.42,1.76-2.8,2.7-4.16-2.07,3,.49-.55,1.07-1.18,1-1.08,2.1-2,3.1-3.09,2.73-2.87-2.29,1.22.74-.63,1.15-.7,2.26-1.46,3.45-2.11.78-.42,1.56-.82,2.37-1.19l-1.88.8c1.44-1.39,5.66-1.66,7.52-2.09,3.89-.9-3.29,0,.42,0,1.32,0,2.65-.13,4-.12s2.69.08,4,.18,4,.67,1.24.12c3.39.68,6.67,1.52,10,2.45,3.92,1.1-1.94-1,1.47.63,1.69.79,3.38,1.55,5.06,2.36,12.67,6.12,24.94,13,38.21,17.78a81.57,81.57,0,0,0,46.13,3.12c9.2-2.07,15.47-13.2,12.57-22.14a18.42,18.42,0,0,0-22.14-12.58Z"/><path class="cls-2" d="M456.85,491.31c36.94-8.05,74.95-14.89,104.75-40,16.58-14,29-32,38.8-51.13a271.71,271.71,0,0,0,23-61,247.47,247.47,0,0,0,5.83-36.8c1-12.28.58-24.59.56-36.9h-30a149.65,149.65,0,0,0,2.38,21.35c.27,1.31.51,2.61.73,3.92.08.45.7,4.85.25,1.33.34,2.69.6,5.4.8,8.11a311.56,311.56,0,0,1,.32,32.2c-.62,21.7-1.74,43.38,2,64.89a96.8,96.8,0,0,0,10.49,30.34,86.24,86.24,0,0,0,9.72,13.75,38.48,38.48,0,0,0,16.5,12c28.54,10.89,59,3,86.47-7.21C758.33,435.5,788,424,818.61,420.67c7.78-.86,15.39-6.29,15-15-.33-7.39-6.64-15.93-15-15-27.67,3.05-54.08,10.69-80.15,20.24-12.74,4.66-25.32,9.81-38.38,13.51-11.5,3.26-23.08,5.27-34,4.07a55.4,55.4,0,0,1-9.52-2.09c-1.33-.39-2.68-1-4-1.3l-1.61-.6q4,2.94,1.37.62c-1.42-1.72-3.12-3.3-4.63-4.95-1.9-2.08-.51-.58-.12-.07q-1.56-2.09-2.94-4.29c-1.15-1.81-2.2-3.68-3.17-5.59-.58-1.14-1.12-2.3-1.64-3.46.25.54,1,2.7.06,0a110.52,110.52,0,0,1-4-13.62c-.49-2.36-.84-4.74-1.25-7.12-.44-2.56.31,3.62,0-.64-.12-1.34-.28-2.68-.39-4-.42-5-.61-10-.67-15.07-.11-9.89.28-19.78.59-29.66.36-11.23.66-22.49,0-33.72-.82-13.86-3.63-25.24-4.35-37.45-.46-7.82-6.57-15.37-15-15-8.12.37-15,6.59-15,15,0,20.15.14,39.44-3.62,58a236.79,236.79,0,0,1-18.51,55.28,269.68,269.68,0,0,1-14.29,25.91c-4.4,7.05-11.33,14.49-17.82,20.78-10.64,10.33-25.78,18.23-39.59,22.92-18.57,6.32-37.93,9.82-57.05,14-7.92,1.73-12.54,10.95-10.48,18.46,2.25,8.17,10.51,12.2,18.46,10.47Z"/><path class="cls-2" d="M482.75,306.47c17.58,9.84,30.34,18.87,43.13,34.8,1.61,2-1.86-2.76.67.91.67,1,1.36,1.92,2,2.9q1.95,2.93,3.68,6t3.16,6.23c1.05,2.28-1.06-3.19.38.93.38,1.11.79,2.19,1.16,3.3.72,2.23,1.34,4.5,1.84,6.79.26,1.16.47,2.32.68,3.48.51,2.79,0-.73.11,1a83,83,0,0,1-.31,15.68c-.92,7.82,7.56,15.33,15,15,8.92-.4,14-6.62,15-15,5.75-48.55-32.4-86.08-71.38-107.91A15.29,15.29,0,0,0,477.37,286c-4,6.91-1.71,16.55,5.38,20.52Z"/><path class="cls-2" d="M441.53,249.15c3.43,29,7.22,57.92,9.5,87,1.16,14.65,1.89,29.35,1.88,44.05,0,5.95-.35,11.9,0,17.84a66.47,66.47,0,0,1-.05,8.23c-.05.67-.36,3.87,0,1.14a50.45,50.45,0,0,1-1.1,5.71c-.56,2.34-1.33,4.59-2.06,6.88-1.33,4.21,1.29-2.24-.68,1.68-.42.85-.82,1.7-1.26,2.54a60,60,0,0,1-4.49,7.19c.39-.53,1.67-1.87-.26.3-1.26,1.41-2.5,2.82-3.85,4.15-.85.82-1.73,1.62-2.62,2.4-.48.41-2.92,2.22-.89.76a73,73,0,0,1-6.26,4,60.8,60.8,0,0,1-15.64,6.77c-2.63.8-5.3,1.49-8,2-1.6.34-3.23.66-4.86.86,2.21-.27-1.2.06-1.71.1a69.42,69.42,0,0,1-8.89.12c-1.06-.05-2.13-.13-3.19-.24l-.72-.12c-1-.19-2.06-.4-3.08-.65-5.65-1.36-7.28-2.82-12.15-5.53-1.92-1.07,2.48,2.31-.22-.22-.89-.82-1.82-1.59-2.69-2.43-1.79-1.72-3.4-3.56-5-5.44,2.24,2.61-.37-.51-.67-.95-.72-1-1.41-2.07-2.07-3.14-1.32-2.13-2.43-4.35-3.56-6.59-1.81-3.58.82,2.83-.39-1-.49-1.55-1.05-3.06-1.48-4.63-.2-.77-.39-1.55-.56-2.33s-.32-1.55-.45-2.33c.24,2.05.27,2.21.09.5-.08-2.31-.09-4.55,0-6.86-.21,3.93,0,.5.2-.44.26-1.09.65-2.13,1-3.2-1,3.46-.15.37.34-.51a33.81,33.81,0,0,1,1.83-2.91c-2,3,.21-.07.71-.58s1.19-1.14,1.82-1.68c-1.39,1-1.38,1,0,0,6.6-4.67,9.72-13.1,5.38-20.52-3.82-6.53-13.88-10.08-20.52-5.38-10.35,7.32-18.1,17.35-20.09,30.12-2,13.09.8,25.6,6.46,37.43A75.42,75.42,0,0,0,353.05,470c12,9.28,27,13.24,42,12.94,28.78-.56,58.94-13.93,75.26-38.17,7.65-11.37,11.56-24.95,12.48-38.54.48-7.09,0-14.32.05-21.44.09-8.07-.05-16.15-.37-24.22-1.48-37.31-6.59-74.41-11-111.46-.91-7.77-6.24-15.4-15-15-7.33.33-16,6.65-15,15Z"/><path class="cls-3" d="M812.87,390.4l-.27.08v-.05Z"/></svg>