<svg id="Layer_1" data-name="Layer 1" xmlns="http://www.w3.org/2000/svg" viewBox="0 0 800 800"><defs><style>.cls-1{fill:#ffc674;}.cls-2{fill:none;stroke-width:43px;}.cls-2,.cls-3{stroke:#ffc674;stroke-miterlimit:10;}.cls-3{stroke-width:30px;}</style></defs><title>Artboard 1</title><path class="cls-1" d="M451.78,569.46a34.1,34.1,0,0,1-1.57-3.54c-1.12-2.82-1.09-4-3-6.07-1.75-1.93-3.27-3.62-5.82-4.56-.86-.32-1.29-.35-1.66-.83-1.23-1.64,1.53-4.36,1.66-8.3.07-1.87-.48-2.82-1.66-5.82-3.25-8.36-4.88-12.55-4.15-17s3.35-7.2,2.5-7.89-2.39,1.44-5.4,2.08c-2.58.55-4.41-.25-8.3-1.66-2.27-.82-4.25-1.48-6-2s-3.23-1-4.51-1.34c-5.07-1.83-10.46-.17-15-.17-3.32,0-2.91-6.64-7.47-8.3-8.72-3.32-18.27-7.48-21.59-17-1.24,2.07-1.66,4.15-2.7,6a12.8,12.8,0,0,1-1.94,2.53,19.53,19.53,0,0,1-1.79,1.62c-2.61,2.13-3.67,1.79-7.89,4.15-3,1.68-2.1,1.65-6.23,4.15s-5.42,2.78-6.22,4.57c-.69,1.53-.76,3.6-1.66,3.73a.84.84,0,0,1-.62-.19c-1.56-1.06-7.32-1.58-12.25-.64-3.1.6-1.72,1-7.89,2.91a68.48,68.48,0,0,1-10.38,2.08,7.74,7.74,0,0,1-3.32,0c-2.74-.7-4.38-3.08-4.57-2.91s.61.89,1.23,2.2a10.42,10.42,0,0,1,.85,2.78c.24,1.35.21,2.57-.42,6.64-.54,3.58-.82,5.37-1.24,7.06-1.63,6.55-3.11,6.39-3.73,11.21a20.08,20.08,0,0,0,.41,7.89c.5,1.82.79,1.69.83,2.49.21,4.08-8.59,3.76-12,11.2-.87,1.89-3,7.32-6.23,11.21a16.77,16.77,0,0,1-2.9,2.9c-2.71,2.09-4.46,2-4.57,2.92-.2,1.62,5.7,1.91,10,6.64.22.24,1.53,2.66,4.14,7.47,3.14,5.76,4,7.37,5.82,9.13s3.74,3.32,3.74,3.32c2.08,1.73,2.17,1.59,2.48,2.08,1.44,2.24-.8,4.49-.83,8.71,0,.66.69,2.94,2.08,7.48,1,3.2,1.54,5,1.89,6.25a17.28,17.28,0,0,1,.6,2.88c.62,4.77-.62,8.92-1.45,13.07,2.07-2.07,5-3.73,7.88-2.9,5.29,1.48,10.26,3.71,15.4,5.16V802h.1l21.52-32,21.62-32.18L391.13,770l21.52,32h.09V652.66a34,34,0,0,0,7.93-1.9c2.51-1,3.43-1.84,5.81-2.07,1.33-.13,2.14,0,6.23.41,1.94.19,3.53.33,4.57.42C436,639.4,436,638.31,436,638.31c.09-3.52.83-3,4.15-16.19.68-2.68,1.46-6,0-9.13-.68-1.5-1.23-1.6-1.24-2.5a2.33,2.33,0,0,1,1.26-2,21.56,21.56,0,0,0,6.5-3.2,22.14,22.14,0,0,0,2.53-2.18c6.11-4.87,6.52-16.49,15.24-18.16C457.82,582.47,454.92,575.42,451.78,569.46ZM433.63,586c-.16.21-1.09,2-2.92,5.74a1.79,1.79,0,0,1-.12.24c-2.1,4.23-2.67,5.44-4,6.79s-2.71,2.61-2.71,2.61c-1.53,1.35-1.6,1.25-1.82,1.62-1,1.73.73,3.36.86,6.53a39.6,39.6,0,0,1-1.35,5.68c-.14.53-.27,1-.39,1.43-.41,1.58-.68,2.58-.86,3.32a12.78,12.78,0,0,0-.38,2.19c-.33,3.61.73,6.69,1.47,9.79-1.63-1.5-3.86-2.67-6-2-4.13,1.32-8,3.26-12,4.49a21.8,21.8,0,0,1-11.25.73c-2.2-.54-2,4.46-4.31,6a11.41,11.41,0,0,1-2.15,1.29l-.2.11c-1.36.71-3.32,1.68-5.93,3-4.07,2-5,2.44-5.8,3.66a5.24,5.24,0,0,0-.3.51h-4.68v0c-1.38-1.58-2.93-2.33-5.45-3.55-2.28-1.11-2.34-.82-5.07-2-.86-.37-1.63-.7-2.32-1-2.48-1.13-4-2.06-5-3.7-1.18-1.81-.62-2.57-1.69-3.38-1.79-1.35-3.69.54-8.41.63-.58,0-1.15,0-1.69-.05a25.42,25.42,0,0,1-6.17-1.23c-1.93-.7-2.64-1.29-4.44-1.41a26.46,26.46,0,0,0-4.67.5l-3.42.42c.68-7.63.63-8.46.63-8.46-.14-2.31-.58-2.3-2.65-8.94l-.93-3.11c-.57-2-1.25-4.44-.25-6.88.47-1.14.89-1.23.87-1.9a1.74,1.74,0,0,0-1-1.46,16.49,16.49,0,0,1-5-2.23,15.9,15.9,0,0,1-1.76-1.4l-.2-.18c-4.72-3.49-5.37-12.22-12-13.22,4.92-2.06,6.91-7.44,9.11-12a27.21,27.21,0,0,0,1.09-2.7c.31-.88.48-1.54.68-2.13a6.63,6.63,0,0,1,1.38-2.52,11.16,11.16,0,0,1,4.25-3.6c.64-.25,1-.29,1.22-.67.88-1.26-1.26-3.23-1.47-6.19-.11-1.4.29-2.13,1.08-4.41h0c2.23-6.38,3.33-9.57,2.65-12.91s-2.71-5.32-2.09-5.86,1.84,1,4.12,1.41c1.95.34,3.3-.32,6.2-1.48,1.68-.68,3.15-1.24,4.44-1.69s2.4-.81,3.36-1.12a10.2,10.2,0,0,1,2.45-.65c3-.45,6.15.2,8.85.1,2.49-.09,2-5.07,5.39-6.45.64-.27,1.3-.55,1.95-.84,5.87-2.62,11.8-6,13.81-12.56,1,1.53,1.36,3.08,2.19,4.46a10.36,10.36,0,0,0,1.54,1.86,13.29,13.29,0,0,0,1.4,1.15c2,1.54,2.8,1.25,6,2.91.46.23.8.43,1.08.59a41.68,41.68,0,0,0,3.71,2.36c3.16,1.77,4.16,1.93,4.82,3.26.56,1.14.66,2.69,1.35,2.77a.81.81,0,0,0,.46-.16c1.13-.84,5.46-1.4,9.19-.82,1.92.29,1.58.56,4,1.35.53.18,1.19.38,2,.61a50.65,50.65,0,0,0,7.87,1.28,5.86,5.86,0,0,0,2.49-.09c2-.61,3.21-2.45,3.36-2.32s-.44.69-.86,1.69a7.86,7.86,0,0,0-.57,2.12c-.14,1-.09,1.93.5,5,.52,2.67.77,4,1.13,5.26.17.6.34,1.14.51,1.6v0c1.16,3.29,2.08,3.56,2.61,6.71a14.71,14.71,0,0,1-.1,5.94c-.33,1.39-.54,1.3-.55,1.9,0,2.74,5.24,2.65,8.36,6.54a8.68,8.68,0,0,1,1,1.56c.71,1.39,2.45,5.42,5,8.25a12.79,12.79,0,0,0,2.26,2.11c2.09,1.5,3.41,1.4,3.52,2.06C441.13,581.92,436.7,582.31,433.63,586Z"/><polyline class="cls-2" points="261.59 633.36 196.5 633.36 196.5 81 649 81 649 639 463.04 639"/><line class="cls-3" x1="251.05" y1="339.91" x2="448.32" y2="339.91"/><line class="cls-3" x1="251.05" y1="277.91" x2="448.32" y2="277.91"/></svg>