<svg id="Layer_1" data-name="Layer 1" xmlns="http://www.w3.org/2000/svg" viewBox="0 0 800 800"><defs><style>.cls-1{fill:#ffc674;}.cls-2{fill:none;stroke-width:60px;}.cls-2,.cls-3{stroke:#ffc674;stroke-miterlimit:10;}.cls-3{stroke-width:40px;}</style></defs><title>Artboard 1</title><path class="cls-1" d="M449.84,559.82a37.36,37.36,0,0,1-1.62-3.64c-1.14-2.9-1.11-4.1-3.05-6.24s-3.36-3.74-6-4.7c-.88-.33-1.33-.36-1.71-.86-1.26-1.68,1.57-4.47,1.71-8.53.07-1.93-.5-2.9-1.71-6-3.35-8.6-5-12.9-4.26-17.5s3.44-7.41,2.56-8.11c-.72-.58-2.45,1.47-5.55,2.13-2.66.57-4.53-.26-8.54-1.7-2.34-.85-4.37-1.53-6.16-2.09s-3.32-1-4.64-1.37c-5.21-1.88-10.76-.17-15.46-.17-3.42,0-3-6.84-7.68-8.54-9-3.42-18.79-7.69-22.21-17.51-1.28,2.13-1.71,4.27-2.77,6.19a13.31,13.31,0,0,1-2,2.61,17.94,17.94,0,0,1-1.85,1.66c-2.68,2.19-3.77,1.84-8.11,4.27-3.08,1.73-2.16,1.7-6.41,4.27s-5.57,2.85-6.4,4.7c-.7,1.57-.78,3.7-1.7,3.84a1,1,0,0,1-.64-.2c-1.6-1.09-7.53-1.62-12.6-.66-3.18.61-1.76,1-8.12,3a71,71,0,0,1-10.67,2.13,7.88,7.88,0,0,1-3.42,0c-2.81-.72-4.5-3.17-4.69-3s.62.91,1.26,2.26a10.72,10.72,0,0,1,.87,2.86c.25,1.39.22,2.65-.42,6.83-.57,3.69-.85,5.53-1.28,7.26-1.68,6.74-3.2,6.58-3.84,11.53a20.64,20.64,0,0,0,.42,8.11c.52,1.88.82,1.75.86,2.57.21,4.19-8.84,3.87-12.39,11.52-.9,1.94-3.07,7.53-6.4,11.53a17.45,17.45,0,0,1-3,3c-2.79,2.15-4.59,2.08-4.7,3-.21,1.67,5.86,2,10.25,6.83.23.25,1.58,2.74,4.27,7.69,3.22,5.92,4.07,7.58,6,9.39s3.84,3.42,3.84,3.42c2.15,1.77,2.24,1.63,2.56,2.13,1.48,2.31-.82,4.63-.86,9,0,.69.72,3,2.14,7.7,1,3.29,1.59,5.15,1.95,6.43a17.16,17.16,0,0,1,.61,3c.64,4.91-.63,9.17-1.49,13.45,2.13-2.14,5.12-3.85,8.11-3,5.44,1.52,10.55,3.82,15.84,5.31V799h.1L343,766l22.23-33.1L387.46,766l22.13,33h.1V645.39a34.87,34.87,0,0,0,8.16-1.95c2.58-1,3.52-1.89,6-2.13,1.37-.14,2.2,0,6.41.42l4.7.43c-1.31-10.4-1.29-11.53-1.29-11.53.09-3.62.85-3.11,4.27-16.65.7-2.76,1.5-6.12,0-9.39-.7-1.54-1.27-1.65-1.27-2.57a2.38,2.38,0,0,1,1.3-2,22.42,22.42,0,0,0,6.68-3.3,21.64,21.64,0,0,0,2.6-2.25c6.28-5,6.7-17,15.67-18.67C456.06,573.2,453.07,566,449.84,559.82Zm-18.66,17c-.17.21-1.13,2.11-3,5.9,0,.09-.09.18-.13.25-2.16,4.35-2.75,5.59-4.12,7s-2.79,2.68-2.79,2.68c-1.57,1.39-1.64,1.29-1.86,1.67-1.06,1.78.74,3.46.88,6.72a42.25,42.25,0,0,1-1.39,5.84l-.4,1.47c-.43,1.63-.7,2.66-.89,3.42a13.52,13.52,0,0,0-.38,2.25c-.35,3.71.74,6.88,1.5,10.07-1.67-1.54-4-2.75-6.19-2-4.25,1.37-8.2,3.36-12.34,4.62a22.42,22.42,0,0,1-11.58.75c-2.26-.55-2.08,4.59-4.44,6.12a10.65,10.65,0,0,1-2.21,1.33l-.2.11c-1.4.73-3.42,1.73-6.1,3-4.19,2.07-5.1,2.5-6,3.76-.12.17-.2.35-.3.52h-4.83c-1.42-1.63-3-2.4-5.6-3.66-2.35-1.14-2.41-.84-5.22-2.06-.88-.38-1.67-.72-2.39-1-2.55-1.17-4.08-2.12-5.18-3.81-1.22-1.86-.64-2.64-1.73-3.47-1.85-1.39-3.81.55-8.66.64-.6,0-1.18,0-1.74,0a25.65,25.65,0,0,1-6.34-1.27c-2-.71-2.72-1.32-4.57-1.44a27.43,27.43,0,0,0-4.8.51l-3.52.44c.7-7.86.65-8.7.65-8.7-.14-2.39-.6-2.37-2.72-9.2-.29-.93-.61-2-1-3.2-.59-2.07-1.29-4.57-.26-7.07.49-1.18.91-1.27.89-2a1.81,1.81,0,0,0-1-1.51,16.59,16.59,0,0,1-5.12-2.29,15.16,15.16,0,0,1-1.82-1.44l-.21-.18c-4.85-3.59-5.52-12.57-12.3-13.61,5.07-2.11,7.11-7.65,9.38-12.35a27.79,27.79,0,0,0,1.11-2.78c.32-.91.5-1.59.7-2.19a6.84,6.84,0,0,1,1.43-2.59,11.21,11.21,0,0,1,4.37-3.7c.65-.27,1-.31,1.25-.69.91-1.3-1.29-3.33-1.51-6.38-.11-1.43.29-2.19,1.11-4.53h0c2.29-6.56,3.43-9.85,2.72-13.28s-2.78-5.47-2.14-6,1.89,1,4.23,1.45c2,.35,3.4-.32,6.38-1.52,1.72-.7,3.24-1.27,4.57-1.73s2.47-.84,3.45-1.16a10.93,10.93,0,0,1,2.52-.67c3.13-.46,6.32.21,9.11.11,2.56-.09,2.06-5.22,5.54-6.63l2-.87c6-2.69,12.15-6.18,14.21-12.92,1,1.57,1.4,3.17,2.26,4.59a10.45,10.45,0,0,0,1.57,1.9,15.68,15.68,0,0,0,1.45,1.2c2.07,1.57,2.88,1.28,6.21,3,.47.25.83.44,1.11.62,1.14.68,1.21,1,3.82,2.42,3.25,1.82,4.28,2,4.95,3.35.58,1.17.69,2.77,1.39,2.85a.89.89,0,0,0,.48-.16c1.16-.87,5.61-1.44,9.45-.84,2,.29,1.62.57,4.08,1.38.54.18,1.23.39,2.1.63a53.83,53.83,0,0,0,8.1,1.32,6,6,0,0,0,2.56-.1c2.09-.62,3.3-2.51,3.45-2.38s-.46.71-.89,1.73a8.56,8.56,0,0,0-.58,2.18c-.14,1-.09,2,.51,5.14.54,2.74.8,4.12,1.16,5.41.18.62.36,1.17.53,1.65h0c1.19,3.39,2.13,3.66,2.68,6.91a15.35,15.35,0,0,1-.1,6.11c-.34,1.43-.56,1.33-.57,1.95,0,2.82,5.39,2.73,8.6,6.73a9.36,9.36,0,0,1,1,1.6c.73,1.43,2.52,5.57,5.14,8.49a12.89,12.89,0,0,0,2.33,2.17c2.14,1.54,3.5,1.44,3.61,2.12C438.89,572.63,434.33,573,431.18,576.8Z"/><polyline class="cls-2" points="261.59 633.36 196.5 633.36 196.5 81 649 81 649 639 463.04 639"/><line class="cls-3" x1="251.05" y1="339.91" x2="448.32" y2="339.91"/><line class="cls-3" x1="251.05" y1="277.91" x2="448.32" y2="277.91"/></svg>