<svg xmlns="http://www.w3.org/2000/svg" viewBox="0 0 1200 800"><defs><style>.cls-1,.cls-9{fill:#fff;}.cls-2{fill:#f1292a;}.cls-2,.cls-3,.cls-4,.cls-5{opacity:0.61;}.cls-3{fill:#f37926;}.cls-4{fill:#fba423;}.cls-5{fill:#fdc015;}.cls-6{fill:#408ad0;}.cls-11,.cls-7{fill:#0d3453;}.cls-8{fill:none;stroke-width:2px;}.cls-8,.cls-9{stroke:#351c14;stroke-miterlimit:10;}.cls-10{fill:#351c14;opacity:0.8;}.cls-11{font-size:226.19px;font-family:MongolianBaiti, Mongolian Baiti;}</style></defs><title>Artboard 1</title><g id="bg"><rect class="cls-1" x="-10" y="-19" width="1220" height="836"/></g><g id="Layer_1" data-name="Layer 1"><path class="cls-2" d="M938.15,567.22a256.91,256.91,0,0,0,5.74-53.57c.17-141.18-114.14-255.78-255.32-256S432.79,371.83,432.61,513a257.08,257.08,0,0,0,5.6,53.59Z"/><path class="cls-3" d="M900.36,568.22a217.58,217.58,0,0,0,4.87-45.47c.15-119.83-96.88-217.1-216.71-217.25S471.41,402.37,471.27,522.21A217.74,217.74,0,0,0,476,567.69Z"/><path class="cls-4" d="M824.68,567.34A139.78,139.78,0,1,0,551.31,567Z"/><path class="cls-5" d="M784.63,565.22A89.16,89.16,0,1,0,610.26,565Z"/><path class="cls-6" d="M363,581.48c-.51-2.84,27.15-12,54.7-17.94,20.38-4.37,41.61-8.77,70.33-7.69,8,.3,27.72,4.22,67.08,12.06,0,0,7.31,1.45,7.15,2.46-.13.83-12.66-3.78-21.88,2.57-.64.44-7.32,5.15-7,11.1s7,9.94,14.85,13.67c18.82,9,35.13,11.48,48.45,13.67,18.72,3.07,44.69,7.34,44.54,9.39-.06.9-5,.57-13.28,1.71-16.64,2.3-36.19,9-35.95,14.53.09,2.11,3.11,3.54,4.69,4.27,26.19,12.07,39.29,18.1,43,18.79,40.67,7.59,55.48,7.69,55.48,7.69,73,.51,139.4,1,139.88,6,.3,3.19-26.12,9.38-51.58,13.67-70,11.79-118.61,20-171.13,2.56-30.14-10-63.86-32.86-131.29-78.59-15.67-10.63-40-27.68-74.23-30.76C383,578.49,363.43,583.86,363,581.48Z"/><path class="cls-7" d="M743.86,182c-8-4.55-12.89-7.33-19.86-8.36-3.24-.48-7.86-.72-7.94-1.86,0-.39.5-.73.79-.93,2.87-1.87,5.66,1.4,9.53,0,1-.36,2.45-1.16,2.39-1.86-.11-1.23-4.92-1.59-8.74-1.85a146.76,146.76,0,0,0-18.27,0s-4.74.33-4.77,0,5.6-.66,10.33-4.65c.72-.61.83-.8.79-.93-.38-1.34-17.94,2-28.59,7.43,0,0-2.93,1.47-3.18.93s2.94-2.68,6.36-7.43c1.17-1.63,1.76-2.45,1.58-2.79-.93-1.82-17.18,8-23,12.08a46,46,0,0,0-4.77,3.72c-2.41,2.17-4.7,4.72-4.76,4.64s5.07-4.14,5.56-10.22a12.54,12.54,0,0,0,0-1.85s-6.54,5.88-13.51,12.07-8.76,7.72-11.12,11.15c-1.35,2-3,4.76-3.17,4.65s1.47-2.95,3.17-7.44c.82-2.15,2-5.27,1.59-5.57s-2.62,3.31-6.35,8.36a91.07,91.07,0,0,1-11.12,13,66.28,66.28,0,0,1-9.54,7.43c-.5.34-3.08,2-3.17,1.86-.23-.42,12.79-11.25,21.44-22.3.56-.7,1.86-2.39,1.59-2.79-.66-1-10.51,6.45-14.3,9.29-2.49,1.89-3.84,3-4,2.79-.23-.34,4.12-4.37,11.12-12.08,6-6.6,5.89-7,7.95-8.36,2.83-1.83,5-2.28,10.32-5.57,2.7-1.67,4-2.5,4-2.79-.39-1.61-21.56,3.57-23.83,10.22a7.69,7.69,0,0,1-2.38,3.72c-1.21.93-2.93,1.41-3.18.93-.66-1.31,9.41-10.06,17.48-15.8,4.64-3.3,7-5,8.74-5.57,2.54-.89,5.94-1.51,9.53-4.65,1-.9,1.71-1.48,1.59-1.86-.55-1.73-18.44.44-24.63,8.37-.7.9-3.09,4.23-5.56,3.71a3.26,3.26,0,0,1-1.59-.93l.8-.93c6.41-7.49,16.68-12.07,16.68-12.07,5.62-2.51,8.12-2.44,11.92-4.65,2.44-1.42,3.47-2.65,6.35-3.71.6-.23,1.61-.56,1.59-.93,0-.6-2.65-.88-3.18-.93-3.15-.34-6.34.54-15.09,4.64-3.42,1.61-6.89,3.08-10.33,4.65a8,8,0,0,1-2.38.93c-.08-.19,1.71-1.45,11.12-7.44,8.35-5.31,12.54-8,13.5-8.36a74.47,74.47,0,0,0,11.12-5.57c2-1.21,2.45-1.61,2.39-1.86-.25-1-9.36-1.18-17.48,3.72a72.68,72.68,0,0,1-11.91,6.5c-2.93,1.21-3.14,1-3.18.93-.37-.8,6.6-6.84,15.09-11.15,2.19-1.11,3.76-1.74,6.36-2.79,6.84-2.75,11.54-3.86,18.27-7.43,4-2.1,4-2.61,4-2.79-.23-1.21-7.47-2.06-14.3.93-3.28,1.44-6.28,3.68-11.91,4.65-1.21.21-3,.51-3.18,0-.29-1,5.76-4.85,11.91-7.43,8.9-3.74,13.86-3,22.24-8.37,4-2.56,4-3.45,4-3.71-.39-1.54-7.53-.34-9.54,0a82.18,82.18,0,0,0-13.5,3.71c-4.22,1.5-5.42,2.17-5.56,1.86-.41-.92,9-9.57,18.27-13a93.19,93.19,0,0,0,10.33-4.65c3-1.47,3.2-1.71,3.17-1.86-.18-.9-11.17-.94-21.44,4.65-9.74,5.3-13.51,7.43-13.51,7.43-1.35.77-3.81,2.17-4,1.86s2-2,4.77-4.65c2.36-2.31,6.78-6.62,6.35-7.43-.87-1.65-21.88,11.84-23.83,17.65a8,8,0,0,1-2.38,3.72c-.9.73-2.15,1.29-2.38.93-.44-.65,3-3.48,5.56-9.29.32-.73,2.23-5,1.58-5.58-.91-.77-8,5-11.91,13.94-2.4,5.51-4.52,8.94-8.74,15.79-.08.13-.64,1-.79.93s1.31-3.72,2.38-8.36c.44-1.9,1.61-7,.79-7.43-1.19-.65-6.81,8.7-10.32,18.58a117.23,117.23,0,0,0-4,13.93c-.85,4.09-1.27,7.47-1.59,7.44-.68-.08.87-15.39-.8-15.8-1.07-.26-3.87,5.57-4.76,12.08s.58,10.84-1.59,18.58c-.13.47-1.08,3.83-1.59,3.72-1-.23.71-13.79,0-13.94s-3,13.17-4,13c-1.12-.19,1.91-18.64-4-36.23-1.47-4.41-2.8-6.66-3.18-6.51s1.14,5,0,11.15c-.42,2.26-1.22,4.73-1.59,4.65s0-3.66,0-6.51c.16-11.53-5.28-21-8.74-26.94-3.1-5.38-5.33-7.62-5.56-7.43s2.51,4,2.39,9.29c0,1.08-.09,3.5-.8,3.72-2.06.62-4.41-19-16.68-27.88-3.3-2.37-6.19-3.15-6.35-2.78-.25.53,5.26,3.47,7.94,10.22.21.52,1.31,3.29.79,3.71-1.19,1-8.13-13.31-21.44-19.51-3.41-1.58-6.25-2.18-6.36-1.86s4.37,2.48,9.53,7.44c.56.53,2.57,2.46,2.39,2.78-.48.84-14-12.11-31-13-.24,0-5.37-.26-5.56.93-.32,1.93,12.86,5.43,27.8,16.72,0,0,5.14,3.89,4.77,4.64s-10.08-6.91-23-7.43c-.28,0-6.2-.22-6.36.93-.21,1.59,10.45,6.65,21.45,9.29,2.53.61,8.64,1.94,13.51,7.43.26.3,1.92,2.19,1.58,2.79-.72,1.3-9.11-6.41-20.65-6.5-3.87,0-7.88.79-7.94,1.86-.14,2.4,20,3.42,36.54,17.65,4.11,3.55,4,4.52,4,4.64-.52.82-15.72-12.37-27.8-11.15-1,.1-2.3.33-2.39.93-.22,1.53,7.87,3.31,19.07,9.29a67,67,0,0,1,14.3,10.22c3.22,3,5,5.24,4.76,5.58-.48.75-9.69-9.76-22.24-10.22-3.92-.15-7.85.71-7.94,1.86-.21,2.55,18.7,3.38,33.36,18.58,3.49,3.61,4.14,5.35,4,5.57-.61.79-14.38-15.49-28.59-15.79-.65,0-4.6-.1-4.77.93s3.73,2.49,7.94,4.64c5,2.53,3.71,2.65,15.1,10.22,4.39,2.93,9.9,6.45,14.29,13,0,0,1,1.55.8,1.86-.7.85-9.89-11.34-23.83-15.8-3-1-6.17-1.54-6.36-.93-.26.89,6.19,2.73,13.51,9.29C561,174,562,176.51,567.52,181c.48.4,1.64,1.51,4,3.72,3.42,3.26,4.69,4.6,4.76,6.5,0,.2.08,2.32-.79,2.79-2.73,1.46-8.84-16.37-18.27-16.72-1.39-.06-3.07.26-3.18.92-.18,1.17,4.69,2.24,10.33,6.51,4.49,3.39,7.32,7.18,7.15,7.43s-6.3-5.62-7.15-4.64c-.11.12-.52.8,2.38,5.57a67.89,67.89,0,0,0,14.2,16.66,31.72,31.72,0,0,1-15-15.73c-1-2.27-3.8-9.76-7.15-11.15-.4-.17-1.61-.67-2.38,0s-.43,2.59-.8,2.79c-1.28.67-7.1-21.13-20.65-28.8-3.36-1.91-6.16-2.35-6.36-1.86-.35.89,7.93,4.58,7.95,10.22,0,.61,0,2.29-.8,2.79-2.86,1.76-9.73-15.41-24.62-22.3-3.75-1.74-7-2.35-7.15-1.86s3.82,2.46,7.94,7.43c.57.68,2.7,3.26,2.39,3.72-.54.79-6.93-6.44-16.68-10.22-7.95-3.08-15.7-2.93-15.89-1.86-.24,1.31,10.46,5.06,10.33,5.58s-11.79-6-24.63-2.79c-5.9,1.47-9.61,4.39-9.53,4.64s5.74-2.88,11.91-.93c.65.21,3.23,1,3.18,1.86-.11,1.89-13.3-.39-27.8,6.51-6.92,3.28-10.53,6.94-10.33,7.43.42,1,17.54-9,31.78-5.58.37.09,3.14.78,3.17,1.86.07,2.08-10.1,2.5-20.65,10.22-2.21,1.62-5,4-4.76,4.65.54,1.26,12.25-5.95,29.39-9.29,6.31-1.24,10.26-1.34,10.32-.93.09.59-8.32,1.32-17.47,7.43-5.14,3.43-9.73,8-9.54,8.36s1.62-.89,3.18-1.86a53,53,0,0,1,16.68-6.5,66.2,66.2,0,0,1,13.51-1.86c5.5-.18,11.1.32,11.12.93,0,.89-11.87-.18-23.83,7.43-3.55,2.26-6.62,5-6.36,5.58.39.9,7.66-4.34,19.07-6.51,5.61-1.06,10.28-1,17.47-.93,2.86,0,9.48.11,9.53.93.06,1-9,1.36-20.65,6.51-4.76,2.11-9.73,4.91-9.53,5.57s5.3-1.24,15.89-3.71c0,0,13.73-3.22,24.62,0,.12,0,1.62.48,1.59.92-.08,1.26-12.1-1.34-23.83,4.65-4.71,2.4-9,6-8.74,6.5s3.28-1.24,7.15-2.78c1.45-.58,19.3-7.46,33.36-.93.89.41,2.47,1.2,2.39,1.85-.21,1.62-10.16-.52-22.25,2.79-7.14,2-12.06,5-11.91,5.58.24.93,14.06-5.92,31-2.79,4.74.88,8.8,2.37,8.74,2.79s-6-1-13.51,0c-7.09,1-12.85,3.83-12.71,4.64.22,1.22,13.44-3.72,29.39.93,5.26,1.53,8.79,3.52,8.74,3.72s-4.23-1.72-9.53-.93c-2.12.31-4.79,1.11-4.77,1.86,0,1.08,5.71.45,12.71,3.71,4.5,2.09,8.13,5.13,7.95,5.58s-4.68-2.05-11.13-4.65c-11.23-4.53-23.32-7.25-23.83-5.57-.42,1.4,7.56,5,7.15,6.5-.83,3-35.5-7.58-35.74-6.5-.14.62,11.34,4.45,11.12,5.57s-9.26-2-21.45-.93c-9,.79-16.78,3.53-16.68,4.65.05.53,3.21,1,9.53,1.86,3.71.51,4.74.57,4.77.92.1,1.22-12.1,1.27-24.63,9.29-4.67,3-9,6.86-8.73,7.44.16.34,1.93-.63,5.56-1.86,2.95-1,7.77-2.41,7.94-1.86.31,1-14.84,4.77-23,18.58-1.88,3.16-3.56,7.12-3.18,7.43s2.07-2.48,5.56-5.57c2.24-2,5.26-4.14,5.56-3.72.59.84-11.28,9.2-16.68,25.09-2.13,6.25-3.41,13.41-2.39,13.93,1.26.64,5-9.07,14.3-21.36,5.23-6.87,9.2-10.58,9.53-10.22S450,272.9,446.78,286c-1.62,6.65-1.63,12.77-.8,13,1.59.46,5.24-20.49,18.27-36.23,2.15-2.6,4.47-4.95,4.77-4.65s-4,5.83-7.15,13.94c-3.09,7.88-4.21,16.25-3.18,16.72,1.59.72,6.33-18,21.45-33.44,4.41-4.5,7.78-6.75,7.94-6.51.28.4-8.57,7.09-14.29,19.51-3.18,6.89-4.85,14.36-4,14.87s2.77-4.13,8.74-13c6.51-9.67,10.95-14.47,14.3-17.65,4-3.79,7-5.81,7.15-5.58.25.38-7.69,5.9-12.71,16.73-3,6.48-3.92,12.61-3.18,13,1.69.9,14-26.8,25.42-30.65.53-.18,2-.64,2.38,0,.91,1.62-7.31,7.63-13.5,19.51-3.14,6-4.37,10.89-4,11.14.89.57,9.38-22.19,26.21-31.58,2.9-1.62,5.28-2.42,5.56-1.86.55,1.08-7.56,6.09-14.3,16.72-4.09,6.46-6.13,12.57-5.56,13,1,.79,9.37-17.31,26.22-26.94,4.09-2.34,7-3.2,7.15-2.79.31.73-8.24,4.84-15.1,14.86-3.37,4.93-5.29,9.76-4.76,10.22,1,.87,9-14.42,24.62-22.29,5.11-2.58,8.62-3.15,8.74-2.79.19.57-8.33,3.29-14.3,12.08-2.23,3.28-3.74,6.87-3.18,7.43,1.43,1.43,14.42-18.56,27.81-17.65,1.78.12,2.27.52,2.38.93,1.09,4-32.42,19.38-31.77,21.36.31,1,8.33-2.13,8.73-.93.48,1.44-10.74,6.2-21.44,18.58-2.91,3.37-6.08,7.65-5.56,8.37.76,1.06,9.21-6.09,9.53-5.58s-6,5.07-11.92,13-9.76,16.66-8.74,17.65,7.3-6.32,8-5.57c.8.91-9.37,11.17-11.92,26.94-.58,3.62-.85,8.06,0,8.36,1.47.53,5.72-11.46,6.36-11.15s-4.61,11.59-4,26c.22,5.1,1.17,10.26,1.58,10.22s.19-2.6.8-6.5c.47-3.05,1.62-8.43,2.38-8.36,1.25.11-.71,14.57,4,31.59,2.27,8.24,5,13.23,5.56,13,.95-.4-4.8-18.06-2.38-37.16,0,0,.71-5.59,1.59-5.57,1.13,0,1,9.3,4.77,21.37,1.73,5.59,3.58,9.45,4,9.29,1-.42-5.39-28-4-44.6.25-2.94.59-3.72.79-3.71.67,0,.32,8.52,3.18,18.58,1.44,5.08,3.41,9.5,4,9.29,1.37-.51-5.58-28.92-.8-47.38.69-2.66,1.28-3.79,1.59-3.72,1,.21-1.32,11.55.8,26,.7,4.8,1.94,10.3,2.38,10.22.29-.05.13-2.43,0-6.5-.38-12,.36-10.53,0-19.51-.16-4-.44-7.52.8-12.08.1-.37,1-3.83,1.58-3.71,1,.19-1,10.87.8,25.08.45,3.67,1.25,8.41,1.59,8.36s.08-3.13,0-7.43c-.29-14.67,1.13-16,.79-25.09a44.22,44.22,0,0,1,.8-9.29c.24-1.26.53-2.81.79-2.78.78.06-.79,14,3.18,29.73.16.63,1.7,6.66,2.38,6.5,1.28-.3,1.21-22.78-.79-34.38-.18-1-1.15-6.44.79-11.14.3-.74,1.28-2.93,1.59-2.79s0,1.61-.1,2c-1,6.09.7,19.77.89,21.25.89,6.92,2.55,15,3.18,14.86s-.5-6.05,0-15.79c.69-13.33,3.22-13.19,3.18-23.23,0-2.22-.16-7.68,1.59-8.36a.94.94,0,0,1,.79,0c2.09,1.12-2.54,11.93-.79,25.08.58,4.37,1.79,8.45,2.38,8.36.76-.11-.25-7,.79-17.65a98,98,0,0,1,4-19.51c1.49-5,2.91-8.46,3.17-8.36.48.19-3.92,11.89-2.38,26,.34,3.14,1,6.53,1.59,6.51,1.07,0,.63-10.95,4-25.09,1.85-7.82,4.26-14.1,4.77-13.93s-.61,4.21-.8,11.15c0,1-.27,10,.8,10.22.7.11,2.16-3.6,2.38-7.44.18-3.2-.58-5.27,0-5.57s2.31,2,3.18,3.72a13.59,13.59,0,0,1,.79,1.85c1.26,4.09-4.75,8.4-4.77,13.94,0,4.42,3.82,8.88,8,10.22s8.16-.71,10.32-2.79c1.66-1.59,1.79-2.74,2.39-2.79,1.86-.14,4.93,10.81,10.32,53.89L612,412.35v53.89l-1,10.84c-.29,3.09-.63,6.58-1,10.07-.38,19.5-5.94,39-9.92,57.13l-1.48,3.34-8.05,18c9.37.3,18,.55,25.82.76l5.76.14c1.79.49,5,1.42,5,.49,7.15-29.73,11.12-58.53,10.62-89.54,0-3.64-.13-7.4-.29-11.26-.8-18.87-2.66-34.26-6.36-65-2.43-20.29-3.71-30.71-6.35-44.6-4.06-21.35-6.09-32-8.74-39-2.84-7.52-8-19.08-5.56-21.37,1.31-1.22,3.5,1.42,6.36,0,4.14-2,4.69-10.11,4.76-11.15a18.44,18.44,0,0,0-1.59-9.29c-.82-1.72-2.18-4.55-4.76-5.57-1.17-.46-1.79-.24-2.39-.93-1.55-1.79-.65-7,.8-7.43,2.67-.73,8.07,14.78,10.33,22.3,2.78,9.28,3.6,15.87,4,15.79s-.42-9.86-2.39-20.44c-1.54-8.33-2.79-11.89-2.38-12.08.8-.37,7.14,12.65,11.12,28.8,2.07,8.4,2.83,14.93,3.18,14.87s-.28-8.79-1.59-17.65c-1.69-11.44-3.6-17.49-3.18-17.66.63-.25,6,12.63,9.53,28.8,1.76,8,2.65,14.95,3.18,14.87s.1-8.45,0-10.22c-.85-14.83-3-23-2.38-23.23s5.35,11.65,7.94,26.95c1.83,10.78,1.85,18.6,2.39,18.58s1-10,.79-19.51c-.26-11.81-1.35-17.52-.79-17.65.94-.23,5.92,15.86,7.94,35.3.91,8.76.87,14.83,1.59,14.86.91,0,2.42-9.56,2.38-19.51,0-11.29-2.07-18.43-1.59-18.58.65-.19,5.16,12.5,7.15,28.8,1.47,12.05,1,21.35,1.59,21.37s1.29-9,1.59-13.93c.69-11.33.23-17.59.79-17.66s2.29,8.3,3.18,17.66c1.78,18.75-.38,31.36.79,31.58.95.18,3-7.8,4-13.93.09-.62.52-3.39.79-7.43.63-9.39-.26-15.76,0-15.8s1.71,7.13,2.38,16.72c.45,6.31.33,10.33.8,25.09.24,7.73.35,9.21.79,9.29,1.17.2,4.13-9.76,4.77-20.44.44-7.29-.38-12,0-12.08.59-.09,2.84,11.59,4,24.16.69,7.72.81,14.15.79,18.58,3.66-15,4.82-26.87,4.77-32.52a71,71,0,0,0-.79-11.15c-.49-2.59-1.07-4.51-.8-4.64s2.27,2.75,3.18,6.5c.68,2.79.4,4.37,1.59,7.43.24.64,1.14,2.93,1.59,2.79.84-.26-.46-8.88-.8-11.15a113.71,113.71,0,0,0-3.18-14.86c-2.35-8.2-4-10.24-4.76-11.15-1.13-1.28-2.55-2.46-2.38-2.79s2.32.19,4,1.86,1.74,3.65,4,5.57c.76.67,1.32,1.14,1.59.93.93-.71-1.93-9.05-6.36-15.79a48.37,48.37,0,0,0-4.76-6.5,39.85,39.85,0,0,1-4.77-6.51c-.19-.3-1-1.6-.79-1.86s2.26,2,5.56,2.79c.93.22,2.14.51,2.38,0,.41-.85-2.36-3-7.15-8.36-3.74-4.17-6.35-7.43-6.35-7.43-2.89-3.61-2.88-3.95-4-4.65-2.4-1.53-4.61-1.2-6.35-3.71-.12-.17-1-1.51-.79-1.86s1.79.54,4,1.86a12.29,12.29,0,0,0,4,1.85c.64.15,1.44.33,1.59,0,.22-.48-1.15-1.84-3.18-3.71-4.07-3.75-6.35-5.58-6.35-5.58-4.83-3.85-7.25-5.77-8-6.5-1.78-1.85-1.74-2.21-6.35-8.36s-5.72-7.22-5.56-7.43c.49-.67,13.06,8.16,17.47,16.72a26.67,26.67,0,0,0,4.77,6.5c.22.22,3.42,3.38,4,2.79s-1.84-4.32-6.35-12.08a51.3,51.3,0,0,0-5.57-8.36,23.32,23.32,0,0,1-2.38-2.79c.16-.24,3.76,2.27,7.15,5.58,3.79,3.69,3.6,4.76,9.53,12.08,4.87,6,5.51,5.92,6.36,8.36s1.11,5,3.17,8.36c.36.58,1.9,3.07,2.39,2.79.79-.48-1.07-8.5-4.77-15.8-1.05-2.08-3.08-5.41-7.15-12.07-2.6-4.27-3.35-5.39-3.17-5.58.45-.5,7,5.71,12.7,13.94,4,5.83,4,7.36,7.15,11.14a27.51,27.51,0,0,1,4.77,7.44c.55,1.29.68,1.89.79,1.86.5-.15.77-13.14-4.76-18.59a15.35,15.35,0,0,1-4-5.57c-.55-1.33-1.19-3.43-.8-3.72.61-.44,3.47,3.8,7.15,9.29,6,8.9,8.94,13.35,9.53,15.8.69,2.84,1.13,6.76,4,10.22.61.75,1.81,2.21,2.38,1.86,1.45-.91-2.53-13.06-5.56-20.44a74.57,74.57,0,0,0-5.56-11.15c-1.49-2.38-2.48-3.62-2.39-3.72s5.85,5,10.33,13a76.73,76.73,0,0,1,5.56,13A132.79,132.79,0,0,0,724,308.3c1.16,2.47,1.44,2.85,1.59,2.79.82-.32-.92-13.13-5.56-25.09-.84-2.17-1.84-4.46-1.59-4.64.43-.3,4.14,5.57,7.15,11.15,1,1.8,3.2,6,10.33,22.29,2.23,5.1,2.86,6.63,3.17,6.51.8-.32-1.08-11.42-4.76-22.3-2.05-6.05-3.62-9-3.18-9.29.87-.66,8.64,9.63,12.71,18.58,1.73,3.8,3.74,7.41,5.56,11.15,1.15,2.35,1.38,2.85,1.59,2.79,1.11-.35.17-16-5.56-26a56.74,56.74,0,0,1-3.18-5.57c-2.13-4.52-2.34-7.09-4.76-9.29a8.63,8.63,0,0,0-3-1.82,12.38,12.38,0,0,1,7,4.61c.86,1.2,1.95,3.24,4,3.71.43.1.65.16.79,0,1-1.13-4.54-11.44-11.91-18.58a32.7,32.7,0,0,0-8.74-6.5c-2-1-4-1.62-4-1.86s2.71-.14,5.56.93c3.12,1.17,4.85,2.86,6.35,1.86a1.76,1.76,0,0,0,.8-.93c.85-3.11-10.45-12.43-23-15.8-3.07-.82-6.39-1.33-6.35-1.85s5.3-1.06,9.53-.93c1.86.05,2.34.17,2.38,0,.22-.93-12.82-8.08-24.62-8.36-8.68-.21-13-.32-14.3,0-.45.11-2.16.55-2.38,0s1.41-2.53,3.17-3.72c1.28-.86,2.4-1.21,2.39-1.86,0-.47-.6-.81-.8-.93-2.48-1.44-14.68-2.44-25.42,2.79,0,0-2.27,1.18-2.38.93s1.56-1.35,4-3.72c1.11-1.08,1.65-1.63,1.59-1.86-.12-.44-1.51-.8-16.68,2.79-5.68,1.35-8.81,2.19-13.5,1.86-3-.21-7.13-.93-7.15-1.86s3.2-1.52,4.76-1.86c7-1.52,11.36-.63,19.86-.93,2.79-.09,7.91-.27,7.95-.92.05-1.07-13.32-3.19-16.69-3.72-3.6-.57-4.76-.67-4.76-.93,0-.83,11.84-3.71,21.45-.93a47.77,47.77,0,0,0,10.32,1.86c2.43.25,3.89.39,4,0,.21-1-7.55-6.49-15.09-6.5a23.54,23.54,0,0,1-8.74-1.86c-1-.44-1.61-.69-1.59-.93.12-1.15,14.23-4.4,24.63,1.86A39.2,39.2,0,0,0,679.52,220c1.8.31,2.31.24,2.38,0,.33-1-7.23-6.76-15.89-9.29-4-1.16-7.93-2.52-11.91-3.71-1.28-.39-2.41-.72-2.38-.93.06-.53,7.18.12,12.71.93,7.3,1.05,11,1.58,13.5,2.78,3.18,1.5,6.38,3.76,11.91,4.65,1.83.29,3,.48,3.18,0,.67-1.85-13.91-12.79-20.65-12.08a9.88,9.88,0,0,1-5.56-.93c-.25-.12-2.51-1.26-2.38-1.86.39-1.87,23.89,1.69,29.39,6.51a12,12,0,0,0,5.56,2.78c1,.19,2.23.42,2.38,0,.47-1.3-9.53-9.46-21.45-13-2.61-.78-5.6-1.42-5.56-1.86s4.29-.46,8,0a60.11,60.11,0,0,1,11.12,2.79,102.26,102.26,0,0,1,10.32,3.71,34,34,0,0,0,9.54,2.79c1.52.2,2.28.3,2.38,0,.46-1.39-12.21-11.48-19.86-11.15a9.38,9.38,0,0,1-6.36-1.86c-.73-.58-1.71-1.36-1.58-1.86.61-2.37,26,3.38,31.77,9.29a26.46,26.46,0,0,0,6.35,4.65c1.39.72,2.25,1.17,2.39.93.55-.92-8.41-14.45-17.48-14.87-1.23,0-4.94,0-7.15-2.78-.2-.26-1-1.34-.79-1.86.45-.92,3.94.64,9.53,2.79,7.4,2.83,6.09,1.94,10.33,3.71,5.62,2.36,7.19,3.62,14.3,6.51,1.49.6,5.44,2.2,5.56,1.85,0-.1-.29-.34-.4-.43-3.82-2.92-7.34-8.1-17.87-14.43-4.64-2.78-6.46-3.29-6.36-3.72.27-1.11,13.53-2.16,22.24,5.58,1.31,1.16,4.82,4.56,9.53,4.64.56,0,2.93.05,3.18-.93C753.85,187.63,747.17,183.83,743.86,182Z"/><path class="cls-8" d="M608,465.48c33.53,25.38,68.75,54.17,104.75,86.73,29.17,26.39,55.78,52.47,80,77.72"/><line class="cls-8" x1="708.25" y1="529.69" x2="624.9" y2="655.84"/><path class="cls-9" d="M786.8,624c-3.09,9.32-2,19.46-5.34,28.47-14.64-14.65-36-24.78-57.45-22.53-4.5.56-9,1.25-13.39,2a400,400,0,0,0-57.56,14.87s13.79-28.45,12-59a83.19,83.19,0,0,0-1.79-13.2c-6.8-29.21-19.19-56.24-33.31-82.48-1.45-2.9-2.74-5.46-3.82-7.58-2.15-4.25-3.46-6.73-3.46-6.73l6.53,5.72c2.09,1.83,4.62,4,7.54,6.56,27.61,26,58,49.67,87.18,73.85q3.76,3.24,7.49,6.51t7.44,6.57c2.84,2.58,5.66,5.19,8.5,7.91,11.61,11.15,22.87,22.41,33.91,34.22C784.81,622.3,786.8,624,786.8,624Z"/><polyline class="cls-8" points="663.19 656.96 663.19 652.46 680.61 652.46 747.67 652.46"/><line class="cls-8" x1="682.34" y1="661.47" x2="682.34" y2="652.46"/><polyline class="cls-8" points="704.72 652.46 704.87 661.47 705.43 632.9"/><line class="cls-8" x1="719.35" y1="652.46" x2="719.51" y2="661.47"/><line class="cls-8" x1="731.75" y1="652.46" x2="731.9" y2="661.47"/><path class="cls-10" d="M603.5,654.71l101.37,6.76s33.79-4.51,76.59-9,52.94-5.64,52.94-5.64H824.26s-34.92,9-34.92,18v9L715,679.49l-89-6.76s5.64-2.25-7.88-10.14S603.5,654.71,603.5,654.71Z"/><line class="cls-8" x1="702.61" y1="529.69" x2="829.89" y2="650.2"/><text class="cls-11" transform="translate(108.19 565.55)">Zanmodest</text><path class="cls-7" d="M940.8,369.85l-2.14-2.38v-1.58l-4.26-1.59L928,361.93s-6.4-1.59-8.53-1.59a5.64,5.64,0,0,0-3.21.8v-4l-9.6-4h-8.54l-3.2-.79-3.2-2.38v-3.17l-1.07-2.37h-7.47l-1.06-1.58v-1.59l-6.41-1.58-3.2-1.59-13.87.8h-16l-3.2-3.17-9.6.79-6.41.79h-8.53l-8.54-3.16-10.67-1.59-1.07,1.59-11.74,1.58-2.13,2.37-20.28.8-8.53,4.75,1.06,3.16H738l-18.14,1.59h-6.4v1.58L706,351.63V354l-10.67,2.38V358H690v1.58h-6.4l5.33,2.38-1.06,4h12.8l11.74-.8h12.81l7.47-.79,12.8,3.17,7.47,2.38,20.28,1.58,2.13,4,16,7.12,10.67,4,6.4,7.92L817,406.27l2.14,14.25L818.08,434h17.07l-1.06-12.67,1.06-21.38,6.41-7.92,14.93-11.87,12.81-4.75,8.54-2.38,6.4-.79,6.4.79v1.59H934.4L944,373ZM797.8,354h4.27v3.17h-2.13l-2.14-1.59ZM785,356.39h5.33l2.14,1.58,5.33,1.58H782.86Zm-19.21,9.5-4.27,1.58-7.47-1.58-10.67-1.59-7.47-.79v-1.58l13.87.79,7.47-.79,8.54.79Zm3.2-9.5h-7.47v-3.17l2.13-3.17,4.27,3.17H781.8l1.06,2.37L777.53,358Zm35.22,23v2.37l-4.27-1.58-4.27-1.59-8.54-2.37L782.86,373h17.08l4.27,2.38Zm63-21.38-7.47,1.58,4.26-3.16Zm0,4-7.47,3.16v-3.16l4.26-1.59Zm-13.88-3.17,6.41-2.37-2.14,3.16-2.13,2.38-4.27-2.38Zm-13.87,3.17,3.2-4,2.14,4-5.34,2.37Zm-17.07-4,3.2-1.58,5.33,1.58,2.14,3.17v3.16h-5.34l-1.06-2.37h-6.41Zm-6.41,0v2.37l-2.13,2.38-2.13-.79v-3.17Zm-6.4,3.17-2.13-.8V354l4.27,2.38L809.54,358Zm16,35.63-2.14,4.75v-4l-11.73-11.09v-6.33l13.87,12.67Zm0-11.88s-3.2-4-3.2-4.75-8.54-4-8.54-4v-4h17.07l-5.33,2.38L823.41,377ZM849,381.72l-4.26,3.17-3.2,1.58-5.34,2.38,3.2-3.17v-2.37l5.34-3.17L849,377l2.14,1.58Zm4.27-14.25v4.75L849,373l-6.4,4-7.47,3.17v4.75l-2.13,4-2.14-4V377l4.27-4,7.47-5.54,3.2-4,3.2-3.17,4.27,4Zm9.61,7.92L855.43,377V374.6L859.7,373l7.47-.79Zm7.47-6.34H859.7l5.33-3.16,6.4-4H880v3.16l-5.33,2.38Zm12.8,0H875.7l7.47-4,4.27,1.59Z"/><path class="cls-7" d="M645.56,420.14a6.54,6.54,0,0,1-.91-1.66,9.83,9.83,0,0,1-.43-1.84,9,9,0,0,1,0-1.87,9.29,9.29,0,0,1,.27-1.83,14.18,14.18,0,0,1,3.36-6.33,14.4,14.4,0,0,1,5.94-4,9.44,9.44,0,0,1,7.23.18l0,.4a15.91,15.91,0,0,0-5.63,2.16,22.79,22.79,0,0,0-8,8.92,11.51,11.51,0,0,0-.59,1.4,12,12,0,0,0-.44,1.44,11.62,11.62,0,0,0-.38,3Z"/><path class="cls-7" d="M645,420.54a23.8,23.8,0,0,0-2.58-2.17c-.41-.3-.79-.59-1.22-.86-.21-.14-.39-.28-.58-.42s-.42-.26-.61-.4l-4.69-3.1-4.73-3.11c-1.65-1.05-3.27-2.11-5.53-3.28l0-.4a14.81,14.81,0,0,1,6.54.63,24.74,24.74,0,0,1,6,2.81,23.83,23.83,0,0,1,4.93,4.36,12.27,12.27,0,0,1,3,5.87Z"/><path class="cls-7" d="M661.94,496.22a5.59,5.59,0,0,1-1.4-2.81,8.45,8.45,0,0,1,0-3.05,10.86,10.86,0,0,1,7.5-8.31,7.14,7.14,0,0,1,5.94.64l0,.4a12.66,12.66,0,0,0-4.35,1.7,16,16,0,0,0-3.56,3,15.62,15.62,0,0,0-2.65,3.85,10.56,10.56,0,0,0-.8,2.2,8.53,8.53,0,0,0-.32,2.31Z"/><path class="cls-7" d="M661.48,496.54a17,17,0,0,0-2.33-1.49c-.35-.2-.67-.39-1-.57a5.46,5.46,0,0,1-.48-.27,4.59,4.59,0,0,1-.49-.26c-1.27-.7-2.45-1.39-3.6-2.16s-2.27-1.58-3.44-2.48-2.32-1.88-4.1-3.11l0-.4a11.36,11.36,0,0,1,5.11.47,17.8,17.8,0,0,1,8.5,5.6,9.4,9.4,0,0,1,2.28,4.6Z"/></g></svg>