<svg xmlns="http://www.w3.org/2000/svg" viewBox="0 0 1200 800"><defs><style>.cls-1{fill:#f1292a;}.cls-1,.cls-2,.cls-3,.cls-4{opacity:0.61;}.cls-2{fill:#f37926;}.cls-3{fill:#fba423;}.cls-4{fill:#fdc015;}.cls-5{fill:#5f4f3b;}.cls-5,.cls-6{opacity:0.9;}.cls-6{fill:#408ad0;}.cls-7{fill:#fafafa;}.cls-11,.cls-7{opacity:0.8;}.cls-8,.cls-9{fill:none;}.cls-8{stroke:#fff;}.cls-10,.cls-8,.cls-9{stroke-miterlimit:10;}.cls-10,.cls-9{stroke:#351c14;}.cls-9{stroke-width:2px;}.cls-10{fill:#fff;}.cls-11{fill:#351c14;}</style></defs><title>Artboard 1</title><g id="sun"><path class="cls-1" d="M877.15,577.22a256.91,256.91,0,0,0,5.74-53.57c.17-141.18-114.14-255.78-255.32-256S371.79,381.83,371.61,523a257.08,257.08,0,0,0,5.6,53.59Z"/><path class="cls-2" d="M839.36,578.22a217.58,217.58,0,0,0,4.87-45.47c.15-119.83-96.88-217.1-216.71-217.25S410.41,412.37,410.27,532.21A217.74,217.74,0,0,0,415,577.69Z"/><path class="cls-3" d="M763.68,577.34A139.78,139.78,0,1,0,490.31,577Z"/><path class="cls-4" d="M723.63,575.22A89.16,89.16,0,1,0,549.26,575Z"/></g><g id="land"><path class="cls-5" d="M330,556l142.11-51.95a11.33,11.33,0,0,1,2.78-.35l7.66,0a9.65,9.65,0,0,1,1.2.06c13.86,1.45,29.07-6.79,43.28,0a158.48,158.48,0,0,0,37.59,10.55c3.1.51,6.19,1,9.27,1.41,13.68,1.73,23.86,11.71,36,20.2a10.44,10.44,0,0,0,1.23.76c5.52,2.93,11.78,4.56,17.38,6.09a11.24,11.24,0,0,0,3.16.41c17.94-.37,35-6.63,52.59.32l7,2.38,81.21,27.58a11.52,11.52,0,0,0,3.64.6H961.66c12,0,15.76,16.15,5,21.47h0a23.2,23.2,0,0,1-10.4,2.53H736.43l-.7,0-64.53-4c-1.92-.12-3.87-.23-5.87-.3a11,11,0,0,0-2.43.19c-30.38,5.65-60.66.67-91.25-5.34a11.79,11.79,0,0,0-1.33-.17l-9.7-.74c-20.72-1.65-41.28-3.73-62.09-4.29l-6.86-.42-5.83-.36"/></g><g id="Layer_1" data-name="Layer 1"><path class="cls-6" d="M266,570.48c-.51-2.84,27.15-12,54.7-17.94,20.38-4.37,41.61-8.77,70.33-7.69,8,.3,27.72,4.22,67.08,12.06,0,0,7.31,1.45,7.15,2.46-.13.83-12.66-3.78-21.88,2.57-.64.44-7.32,5.15-7,11.1s7.05,9.94,14.85,13.67c18.82,9,35.13,11.48,48.45,13.67,18.72,3.07,44.69,7.34,44.54,9.39-.06.9-5,.57-13.28,1.71-16.64,2.3-36.19,9-35.95,14.53.09,2.11,3.11,3.54,4.69,4.27,26.19,12.07,39.29,18.1,43,18.79,40.67,7.59,55.48,7.69,55.48,7.69,73,.51,139.4,1,139.88,6,.3,3.19-26.12,9.38-51.58,13.67-70,11.79-118.61,20-171.13,2.56-30.14-10-63.86-32.86-131.29-78.59-15.67-10.63-40-27.68-74.23-30.76C286,567.49,266.43,572.86,266,570.48Z"/><path class="cls-7" d="M587.86,175.35c-8-4.79-12.89-7.72-19.86-8.8-3.24-.51-7.86-.76-7.94-2,0-.41.5-.77.79-1,2.87-2,5.66,1.47,9.53,0,1-.38,2.45-1.23,2.39-2-.11-1.3-4.92-1.68-8.74-1.95a140.3,140.3,0,0,0-18.27,0s-4.74.35-4.77,0,5.6-.69,10.33-4.89c.72-.64.83-.85.79-1-.38-1.41-17.94,2.08-28.59,7.82,0,0-2.93,1.54-3.18,1s2.94-2.82,6.36-7.82c1.17-1.72,1.76-2.58,1.58-2.94-.93-1.91-17.18,8.4-23,12.71a47.13,47.13,0,0,0-4.77,3.91c-2.41,2.29-4.7,5-4.76,4.89s5.07-4.36,5.56-10.75a14.07,14.07,0,0,0,0-2s-6.54,6.2-13.51,12.71-8.76,8.12-11.12,11.73c-1.35,2.07-3,5-3.17,4.89s1.47-3.09,3.17-7.82c.82-2.26,2-5.55,1.59-5.86s-2.62,3.48-6.35,8.79a94.7,94.7,0,0,1-11.12,13.69,66.53,66.53,0,0,1-9.54,7.82c-.5.36-3.08,2.15-3.17,2-.23-.44,12.79-11.84,21.44-23.47.56-.74,1.86-2.51,1.59-2.93-.66-1-10.51,6.78-14.3,9.78-2.49,2-3.84,3.12-4,2.93-.23-.36,4.12-4.6,11.12-12.71,6-6.95,5.89-7.4,7.95-8.8,2.83-1.93,5-2.41,10.32-5.86,2.7-1.75,4.05-2.63,4-2.94-.39-1.69-21.56,3.76-23.83,10.76a8.2,8.2,0,0,1-2.38,3.91c-1.21,1-2.93,1.48-3.18,1-.66-1.38,9.41-10.58,17.48-16.62,4.64-3.48,7-5.21,8.74-5.87,2.54-.94,5.94-1.59,9.53-4.89,1-1,1.71-1.56,1.59-2-.55-1.83-18.44.45-24.63,8.8-.7.94-3.09,4.46-5.56,3.91a3.31,3.31,0,0,1-1.59-1l.8-1c6.41-7.89,16.68-12.71,16.68-12.71,5.62-2.64,8.12-2.57,11.92-4.89,2.44-1.49,3.47-2.79,6.35-3.91.6-.23,1.61-.58,1.59-1,0-.62-2.65-.91-3.18-1-3.15-.35-6.34.56-15.09,4.89-3.42,1.69-6.89,3.23-10.33,4.88a7.75,7.75,0,0,1-2.38,1c-.08-.2,1.71-1.52,11.12-7.82,8.35-5.59,12.54-8.4,13.5-8.8a74.07,74.07,0,0,0,11.12-5.86c2-1.28,2.45-1.7,2.39-2-.25-1.08-9.36-1.24-17.48,3.91a70.52,70.52,0,0,1-11.91,6.84c-2.93,1.27-3.14,1.07-3.18,1-.37-.84,6.6-7.19,15.09-11.73a69.46,69.46,0,0,1,6.36-2.93c6.84-2.9,11.54-4.06,18.27-7.82,4-2.21,4-2.75,4-2.94-.23-1.28-7.47-2.17-14.3,1-3.28,1.51-6.28,3.87-11.91,4.89-1.21.22-3,.53-3.18,0-.29-1,5.76-5.11,11.91-7.82,8.9-3.93,13.86-3.2,22.24-8.8,4-2.71,4-3.64,4-3.91-.39-1.62-7.53-.36-9.54,0a78.07,78.07,0,0,0-13.5,3.91c-4.22,1.57-5.42,2.28-5.56,2-.41-1,9-10.07,18.27-13.68a92.52,92.52,0,0,0,10.33-4.89c3-1.55,3.2-1.8,3.17-2-.18-.95-11.17-1-21.44,4.89-9.74,5.58-13.51,7.82-13.51,7.82-1.35.81-3.81,2.29-4,2s2-2.08,4.77-4.89c2.36-2.43,6.78-7,6.35-7.82-.87-1.74-21.88,12.46-23.83,18.57a8.49,8.49,0,0,1-2.38,3.91c-.9.77-2.15,1.36-2.38,1-.44-.68,3-3.66,5.56-9.77.32-.77,2.23-5.29,1.58-5.87-.91-.82-8,5.23-11.91,14.66-2.4,5.8-4.52,9.41-8.74,16.62-.08.14-.64,1.08-.79,1-.3-.19,1.31-3.91,2.38-8.8.44-2,1.61-7.35.79-7.82-1.19-.68-6.81,9.16-10.32,19.56a128.11,128.11,0,0,0-4,14.66c-.85,4.3-1.27,7.86-1.59,7.82-.68-.08.87-16.19-.8-16.62-1.07-.28-3.87,5.86-4.76,12.71s.58,11.41-1.59,19.55c-.13.49-1.08,4-1.59,3.91-1-.24.71-14.51,0-14.66s-3,13.86-4,13.69c-1.12-.21,1.91-19.62-4-38.13-1.47-4.64-2.8-7-3.18-6.85-.53.23,1.14,5.29,0,11.74-.42,2.37-1.22,5-1.59,4.88s0-3.84,0-6.84c.16-12.14-5.28-22.06-8.74-28.35-3.1-5.66-5.33-8-5.56-7.82s2.51,4.21,2.39,9.77c0,1.14-.09,3.69-.8,3.92-2.06.65-4.41-20-16.68-29.33-3.3-2.5-6.19-3.32-6.35-2.94-.25.56,5.26,3.66,7.94,10.76.21.55,1.31,3.46.79,3.91-1.19,1-8.13-14-21.44-20.53-3.41-1.67-6.25-2.3-6.36-2s4.37,2.61,9.53,7.82c.56.57,2.57,2.6,2.39,2.94-.48.88-14-12.75-31-13.69-.24,0-5.37-.27-5.56,1-.32,2,12.86,5.72,27.8,17.59,0,0,5.14,4.1,4.77,4.89s-10.08-7.28-23-7.82c-.28,0-6.2-.23-6.36,1-.21,1.67,10.45,7,21.45,9.78a24.13,24.13,0,0,1,13.51,7.82c.26.31,1.92,2.3,1.58,2.93-.72,1.36-9.11-6.75-20.65-6.84-3.87,0-7.88.83-7.94,2-.14,2.53,20.05,3.6,36.54,18.58,4.11,3.73,4.05,4.75,4,4.88-.52.87-15.72-13-27.8-11.73-1,.11-2.3.35-2.39,1-.22,1.61,7.87,3.48,19.07,9.78a66.84,66.84,0,0,1,14.3,10.75c3.22,3.17,5,5.51,4.76,5.87-.48.79-9.69-10.27-22.24-10.76-3.92-.15-7.85.75-7.94,2-.21,2.68,18.7,3.56,33.36,19.55,3.49,3.81,4.14,5.64,4,5.87-.61.83-14.38-16.31-28.59-16.62-.65,0-4.6-.1-4.77,1s3.73,2.63,7.94,4.89c5,2.67,3.71,2.79,15.1,10.76,4.39,3.07,9.9,6.78,14.29,13.68,0,0,1,1.64.8,2-.7.9-9.89-11.93-23.83-16.62-3-1-6.17-1.62-6.36-1-.26.93,6.19,2.87,13.51,9.78,4.63,4.37,5.63,7,11.12,11.73.48.42,1.64,1.58,4,3.91,3.42,3.43,4.69,4.84,4.76,6.84,0,.21.08,2.45-.79,2.94-2.73,1.53-8.84-17.23-18.27-17.6-1.39-.06-3.07.28-3.18,1-.18,1.22,4.69,2.35,10.33,6.84,4.49,3.57,7.32,7.56,7.15,7.82s-6.3-5.92-7.15-4.89c-.11.13-.52.85,2.38,5.87a70.11,70.11,0,0,0,14.2,17.53,32.55,32.55,0,0,1-15-16.55c-1-2.39-3.8-10.28-7.15-11.73-.4-.18-1.61-.71-2.38,0s-.43,2.73-.8,2.93C398.32,180,392.5,157,379,149c-3.36-2-6.16-2.47-6.36-1.95-.35.93,7.93,4.82,8,10.75,0,.65,0,2.41-.8,2.93-2.86,1.86-9.73-16.21-24.62-23.46-3.75-1.83-7-2.47-7.15-2s3.82,2.6,7.94,7.83c.57.71,2.7,3.42,2.39,3.91-.54.83-6.93-6.78-16.68-10.76-7.95-3.24-15.7-3.08-15.89-2-.24,1.37,10.46,5.32,10.33,5.86s-11.79-6.31-24.63-2.93c-5.9,1.55-9.61,4.62-9.53,4.89s5.74-3,11.91-1c.65.22,3.23,1.08,3.18,2-.11,2-13.3-.41-27.8,6.84-6.92,3.46-10.53,7.31-10.33,7.82.42,1,17.54-9.48,31.78-5.87.37.1,3.14.82,3.17,2,.07,2.18-10.1,2.63-20.65,10.75-2.21,1.7-5,4.21-4.76,4.89.54,1.33,12.25-6.26,29.39-9.77,6.31-1.3,10.26-1.41,10.32-1,.09.63-8.32,1.39-17.47,7.82-5.14,3.61-9.73,8.45-9.54,8.8.11.19,1.62-.94,3.18-2A51.49,51.49,0,0,1,321,166.55a62.92,62.92,0,0,1,13.51-2c5.5-.19,11.1.34,11.12,1,0,.94-11.87-.19-23.83,7.82-3.55,2.38-6.62,5.23-6.36,5.87.39,1,7.66-4.57,19.07-6.85,5.61-1.12,10.28-1.06,17.47-1,2.86,0,9.48.11,9.53,1,.06,1-9,1.43-20.65,6.85-4.76,2.22-9.73,5.17-9.53,5.86s5.3-1.3,15.89-3.91c0,0,13.73-3.38,24.62,0,.12,0,1.62.52,1.59,1-.08,1.32-12.1-1.41-23.83,4.89-4.71,2.53-9,6.29-8.74,6.84s3.28-1.3,7.15-2.93c1.45-.61,19.3-7.84,33.36-1,.89.44,2.47,1.27,2.39,2-.21,1.69-10.16-.56-22.25,2.93-7.14,2.06-12.06,5.27-11.91,5.87.24,1,14.06-6.23,31-2.94,4.74.93,8.8,2.49,8.74,2.94s-6-1.09-13.51,0c-7.09,1-12.85,4-12.71,4.88.22,1.29,13.44-3.92,29.39,1,5.26,1.62,8.79,3.71,8.74,3.91s-4.23-1.8-9.53-1c-2.12.33-4.79,1.17-4.77,2,0,1.14,5.71.48,12.71,3.91,4.5,2.2,8.13,5.4,7.95,5.87s-4.68-2.15-11.13-4.89c-11.23-4.77-23.32-7.63-23.83-5.87-.42,1.48,7.56,5.3,7.15,6.85-.83,3.16-35.5-8-35.74-6.85-.14.66,11.34,4.68,11.12,5.87s-9.26-2.09-21.45-1c-9,.83-16.78,3.71-16.68,4.89.05.56,3.21,1,9.53,2,3.71.55,4.74.61,4.77,1,.1,1.28-12.1,1.33-24.63,9.78-4.67,3.15-9,7.22-8.73,7.82.16.36,1.93-.66,5.56-2,2.95-1,7.77-2.53,7.94-1.95.31,1-14.84,5-23,19.55-1.88,3.33-3.56,7.5-3.18,7.82s2.07-2.61,5.56-5.86c2.24-2.09,5.26-4.36,5.56-3.91.59.88-11.28,9.68-16.68,26.39-2.13,6.58-3.41,14.12-2.39,14.67,1.26.67,5-9.55,14.3-22.49,5.23-7.22,9.2-11.12,9.53-10.75s-7.14,8.7-10.32,22.48c-1.62,7-1.63,13.43-.8,13.69,1.59.49,5.24-21.56,18.27-38.13,2.15-2.73,4.47-5.21,4.77-4.89.43.47-4,6.14-7.15,14.67-3.09,8.29-4.21,17.1-3.18,17.6,1.59.76,6.33-19,21.45-35.2,4.41-4.73,7.78-7.09,7.94-6.84.28.41-8.57,7.45-14.29,20.53-3.18,7.24-4.85,15.1-4,15.64s2.77-4.34,8.74-13.69c6.51-10.17,10.95-15.22,14.3-18.57,4-4,7-6.11,7.15-5.87.25.4-7.69,6.2-12.71,17.6-3,6.82-3.92,13.27-3.18,13.69,1.69.94,14-28.21,25.42-32.26.53-.19,2-.67,2.38,0,.91,1.71-7.31,8-13.5,20.53-3.14,6.33-4.37,11.46-4,11.73.89.59,9.38-23.35,26.21-33.24,2.9-1.7,5.28-2.54,5.56-2,.55,1.15-7.56,6.41-14.3,17.6-4.09,6.8-6.13,13.22-5.56,13.69,1,.83,9.37-18.22,26.22-28.35,4.09-2.47,7-3.37,7.15-2.94.31.78-8.24,5.1-15.1,15.64-3.37,5.19-5.29,10.27-4.76,10.76,1,.91,9-15.18,24.62-23.46,5.11-2.72,8.62-3.31,8.74-2.94.19.6-8.33,3.47-14.3,12.71-2.23,3.45-3.74,7.23-3.18,7.82,1.43,1.51,14.42-19.52,27.81-18.57,1.78.12,2.27.55,2.38,1,1.09,4.24-32.42,20.4-31.77,22.48.31,1,8.33-2.25,8.73-1,.48,1.51-10.74,6.52-21.44,19.56-2.91,3.54-6.08,8-5.56,8.8.76,1.11,9.21-6.41,9.53-5.87s-6,5.34-11.92,13.69-9.76,17.53-8.74,18.57,7.3-6.65,7.95-5.86c.8,1-9.37,11.75-11.92,28.35-.58,3.81-.85,8.48,0,8.8,1.47.55,5.72-12.06,6.36-11.74s-4.61,12.2-4,27.38c.22,5.36,1.17,10.79,1.58,10.75s.19-2.73.8-6.84c.47-3.21,1.62-8.87,2.38-8.8,1.25.12-.71,15.33,4,33.24,2.27,8.67,5,13.93,5.56,13.69.95-.43-4.8-19-2.38-39.11,0,0,.71-5.88,1.59-5.86,1.13,0,1,9.78,4.77,22.48,1.73,5.89,3.58,9.95,4,9.78,1-.44-5.39-29.46-4-46.93.25-3.09.59-3.91.79-3.91.67,0,.32,9,3.18,19.55,1.44,5.35,3.41,10,4,9.78,1.37-.54-5.58-30.42-.8-49.86.69-2.8,1.28-4,1.59-3.91,1,.22-1.32,12.16.8,27.37.7,5,1.94,10.84,2.38,10.76.29-.06.13-2.57,0-6.85-.38-12.62.36-11.08,0-20.53-.16-4.21-.44-7.91.8-12.71.1-.39,1-4,1.58-3.91,1,.21-1,11.45.8,26.4.45,3.86,1.25,8.85,1.59,8.8s.08-3.3,0-7.82c-.29-15.44,1.13-16.8.79-26.4a48.91,48.91,0,0,1,.8-9.78c.24-1.33.53-2.95.79-2.93.78.07-.79,14.79,3.18,31.29.16.67,1.7,7,2.38,6.84,1.28-.31,1.21-24-.79-36.17-.18-1.07-1.15-6.78.79-11.73.3-.78,1.28-3.08,1.59-2.94s0,1.7-.1,2.09c-1.05,6.41.7,20.8.89,22.35.89,7.29,2.55,15.76,3.18,15.65s-.5-6.37,0-16.62c.69-14,3.22-13.88,3.18-24.45,0-2.33-.16-8.08,1.59-8.79a.91.91,0,0,1,.79,0c2.09,1.18-2.54,12.55-.79,26.39.58,4.6,1.79,8.9,2.38,8.8.76-.12-.25-7.41.79-18.57a107.6,107.6,0,0,1,4-20.53c1.49-5.3,2.91-8.91,3.17-8.8.48.2-3.92,12.51-2.38,27.37.34,3.3,1,6.87,1.59,6.84,1.07,0,.63-11.51,4-26.39,1.85-8.24,4.26-14.85,4.77-14.67s-.61,4.43-.8,11.73c0,1.1-.27,10.58.8,10.76.7.12,2.16-3.78,2.38-7.82.18-3.38-.58-5.55,0-5.87s2.31,2.13,3.18,3.91a14.49,14.49,0,0,1,.79,2c1.26,4.3-4.75,8.84-4.77,14.66,0,4.66,3.82,9.35,7.95,10.76s8.16-.75,10.32-2.94c1.66-1.67,1.79-2.88,2.39-2.93,1.86-.15,4.93,11.37,10.32,56.7L456,417.8v56.71l-1,11.4c-.29,3.26-.63,6.93-1,10.6-.38,20.53-5.94,41.06-9.92,60.12,0,0-.59,1.41-1.48,3.51l-8.05,19c9.37.31,17.95.58,25.82.79l5.76.16c1.79.51,5,1.49,5,.51,7.15-31.28,11.12-61.59,10.62-94.23,0-3.82-.13-7.78-.29-11.84-.8-19.86-2.66-36.05-6.36-68.44-2.43-21.34-3.71-32.31-6.35-46.92-4.06-22.47-6.09-33.71-8.74-41.07-2.84-7.91-8-20.07-5.56-22.48,1.31-1.29,3.5,1.48,6.36,0,4.14-2.15,4.69-10.64,4.76-11.73a20.32,20.32,0,0,0-1.59-9.78c-.82-1.81-2.18-4.79-4.76-5.87-1.17-.48-1.79-.25-2.39-1-1.55-1.89-.65-7.41.8-7.82,2.67-.77,8.07,15.55,10.33,23.46,2.78,9.76,3.6,16.7,4,16.62s-.42-10.38-2.39-21.51c-1.54-8.77-2.79-12.51-2.38-12.71.8-.39,7.14,13.31,11.12,30.31,2.07,8.84,2.83,15.71,3.18,15.64s-.28-9.24-1.59-18.57c-1.69-12-3.6-18.4-3.18-18.58.63-.26,6,13.28,9.53,30.31,1.76,8.44,2.65,15.72,3.18,15.64s.1-8.89,0-10.75c-.85-15.61-3-24.24-2.38-24.45s5.35,12.26,7.94,28.36c1.83,11.35,1.85,19.57,2.39,19.55s1-10.48.79-20.53c-.26-12.42-1.35-18.44-.79-18.58.94-.24,5.92,16.7,7.94,37.15.91,9.23.87,15.61,1.59,15.65.91,0,2.42-10.07,2.38-20.53,0-11.89-2.07-19.41-1.59-19.56.65-.2,5.16,13.15,7.15,30.31,1.47,12.68,1,22.47,1.59,22.49s1.29-9.46,1.59-14.67c.69-11.92.23-18.5.79-18.57s2.29,8.73,3.18,18.57c1.78,19.73-.38,33,.79,33.24.95.19,3-8.21,4-14.66.09-.66.52-3.57.79-7.83.63-9.87-.26-16.58,0-16.62s1.71,7.51,2.38,17.6c.45,6.64.33,10.87.8,26.4.24,8.13.35,9.7.79,9.78,1.17.21,4.13-10.28,4.77-21.51.44-7.67-.38-12.65,0-12.71.59-.1,2.84,12.19,4,25.42.69,8.12.81,14.89.79,19.55,3.66-15.76,4.82-28.28,4.77-34.22a78.39,78.39,0,0,0-.79-11.73c-.49-2.73-1.07-4.75-.8-4.89s2.27,2.9,3.18,6.85c.68,2.93.4,4.6,1.59,7.82.24.66,1.14,3.08,1.59,2.93.84-.28-.46-9.34-.8-11.73a125,125,0,0,0-3.18-15.64c-2.35-8.63-4-10.78-4.76-11.74-1.13-1.34-2.55-2.59-2.38-2.93s2.32.2,4,2,1.74,3.83,4,5.86c.76.7,1.32,1.2,1.59,1,.93-.76-1.93-9.53-6.36-16.62a50.37,50.37,0,0,0-4.76-6.84,42.17,42.17,0,0,1-4.77-6.85c-.19-.32-1-1.68-.79-2s2.26,2.11,5.56,2.93c.93.23,2.14.53,2.38,0,.41-.89-2.36-3.19-7.15-8.8-3.74-4.38-6.35-7.82-6.35-7.82-2.89-3.79-2.88-4.15-4-4.89-2.4-1.62-4.61-1.27-6.35-3.91-.12-.18-1-1.58-.79-2s1.79.57,4,2a12.28,12.28,0,0,0,4,2c.64.15,1.44.34,1.59,0,.22-.52-1.15-1.94-3.18-3.91-4.07-3.95-6.35-5.87-6.35-5.87-4.83-4-7.25-6.08-8-6.84-1.78-1.95-1.74-2.33-6.35-8.8s-5.72-7.6-5.56-7.82c.49-.71,13.06,8.58,17.47,17.59a28.11,28.11,0,0,0,4.77,6.85c.22.23,3.42,3.55,4,2.93.41-.46-1.84-4.55-6.35-12.71a54.57,54.57,0,0,0-5.57-8.8,25,25,0,0,1-2.38-2.93c.16-.26,3.76,2.39,7.15,5.87,3.79,3.88,3.6,5,9.53,12.7,4.87,6.33,5.51,6.24,6.36,8.8s1.11,5.28,3.17,8.8c.36.62,1.9,3.24,2.39,2.94.79-.5-1.07-8.95-4.77-16.62-1.05-2.2-3.08-5.7-7.15-12.71-2.6-4.49-3.35-5.67-3.17-5.87.45-.52,7,6,12.7,14.66,4,6.14,4,7.76,7.15,11.74a29,29,0,0,1,4.77,7.82c.55,1.36.68,2,.79,1.95.5-.15.77-13.82-4.76-19.55a16.28,16.28,0,0,1-4-5.87c-.55-1.4-1.19-3.61-.8-3.91.61-.46,3.47,4,7.15,9.78,6,9.36,8.94,14,9.53,16.62.69,3,1.13,7.12,4,10.75.61.79,1.81,2.33,2.38,2,1.45-.95-2.53-13.74-5.56-21.51a80,80,0,0,0-5.56-11.73c-1.49-2.51-2.48-3.8-2.39-3.91s5.85,5.26,10.33,13.69a83.13,83.13,0,0,1,5.56,13.68A144.19,144.19,0,0,0,568,308.31c1.16,2.6,1.44,3,1.59,2.93.82-.34-.92-13.82-5.56-26.4-.84-2.28-1.84-4.7-1.59-4.88.43-.32,4.14,5.85,7.15,11.73,1,1.89,3.2,6.36,10.33,23.46,2.23,5.36,2.86,7,3.17,6.84.8-.33-1.08-12-4.76-23.46-2.05-6.37-3.62-9.43-3.18-9.78.87-.69,8.64,10.14,12.71,19.56,1.73,4,3.74,7.8,5.56,11.73,1.15,2.47,1.38,3,1.59,2.93,1.11-.36.17-16.83-5.56-27.37a61.88,61.88,0,0,1-3.18-5.87c-2.13-4.75-2.34-7.45-4.76-9.77a8.51,8.51,0,0,0-3-1.92,12.3,12.3,0,0,1,7,4.85c.86,1.26,1.95,3.41,4,3.91.43.11.65.16.79,0,1-1.2-4.54-12-11.91-19.55a32.73,32.73,0,0,0-8.74-6.85c-2-1-4-1.7-4-1.95s2.71-.15,5.56,1c3.12,1.23,4.85,3,6.35,1.95a1.82,1.82,0,0,0,.8-1c.85-3.27-10.45-13.08-23-16.62-3.07-.86-6.39-1.4-6.35-1.95,0-.7,5.3-1.11,9.53-1,1.86.06,2.34.18,2.38,0,.22-1-12.82-8.5-24.62-8.8-8.68-.22-13-.33-14.3,0-.45.12-2.16.58-2.38,0s1.41-2.66,3.17-3.91c1.28-.91,2.4-1.27,2.39-1.95,0-.5-.6-.86-.8-1-2.48-1.52-14.68-2.58-25.42,2.93,0,0-2.27,1.24-2.38,1s1.56-1.42,4-3.91c1.11-1.14,1.65-1.72,1.59-2-.12-.46-1.51-.85-16.68,2.94-5.68,1.41-8.81,2.3-13.5,1.95-3-.22-7.13-1-7.15-1.95s3.2-1.6,4.76-2c7-1.61,11.36-.67,19.86-1,2.79-.1,7.91-.28,7.95-1,.05-1.12-13.32-3.35-16.69-3.91-3.6-.6-4.76-.7-4.76-1,0-.88,11.84-3.91,21.45-1a45.25,45.25,0,0,0,10.32,2c2.43.26,3.89.41,4,0,.21-1-7.55-6.83-15.09-6.84a22.17,22.17,0,0,1-8.74-2c-1-.47-1.61-.73-1.59-1,.12-1.21,14.23-4.63,24.63,1.95a38,38,0,0,0,12.71,4.89c1.8.32,2.31.25,2.38,0,.33-1.1-7.23-7.11-15.89-9.78-4-1.22-7.93-2.65-11.91-3.91-1.28-.4-2.41-.75-2.38-1,.06-.55,7.18.13,12.71,1,7.3,1.12,11,1.67,13.5,2.94,3.18,1.58,6.38,3.95,11.91,4.89,1.83.3,3,.5,3.18,0,.67-1.95-13.91-13.46-20.65-12.71a9.45,9.45,0,0,1-5.56-1c-.25-.13-2.51-1.32-2.38-2,.39-2,23.89,1.77,29.39,6.85a12,12,0,0,0,5.56,2.93c1,.19,2.23.44,2.38,0,.47-1.37-9.53-10-21.45-13.69-2.61-.81-5.6-1.49-5.56-1.95s4.29-.49,8,0A57.32,57.32,0,0,1,537.82,191a96,96,0,0,1,10.32,3.91,32.66,32.66,0,0,0,9.54,2.93c1.52.22,2.28.32,2.38,0,.46-1.46-12.21-12.08-19.86-11.73a9,9,0,0,1-6.36-1.95c-.73-.61-1.71-1.43-1.58-2,.61-2.5,26,3.56,31.77,9.78a27,27,0,0,0,6.35,4.89c1.39.76,2.25,1.22,2.39,1,.55-1-8.41-15.2-17.48-15.64-1.23-.06-4.94,0-7.15-2.93-.2-.28-1-1.41-.79-2,.45-1,3.94.68,9.53,2.94,7.4,3,6.09,2,10.33,3.91,5.62,2.47,7.19,3.8,14.3,6.84,1.49.64,5.44,2.31,5.56,2,0-.11-.29-.37-.4-.46-3.82-3.08-7.34-8.53-17.87-15.19-4.64-2.93-6.46-3.46-6.36-3.91.27-1.17,13.53-2.27,22.24,5.87,1.31,1.22,4.82,4.8,9.53,4.89.56,0,2.93,0,3.18-1C597.85,181.32,591.17,177.33,587.86,175.35Z"/><path class="cls-7" d="M883.18,467.42l-2.13-4v-2.66l-4.26-2.65-6.39-4s-6.39-2.66-8.52-2.66a4.23,4.23,0,0,0-3.2,1.33v-6.64l-9.58-6.64h-8.52l-3.19-1.33-3.2-4v-5.31l-1.06-4h-7.46l-1.06-2.65v-2.66L818.22,417,815,414.3l-13.85,1.33h-16L782,410.31l-9.59,1.33L766,413h-8.51L749,407.66,738.36,405l-1.07,2.66-11.71,2.65-2.13,4-20.23,1.33-8.52,8,1.06,5.32h-14.9l-18.1,2.65h-6.39v2.66l-7.46,2.66v4l-10.65,4v2.66h-5.32v2.66h-6.39l5.32,4-1.06,6.64h12.78l11.71-1.33h12.78l7.45-1.32,12.78,5.31,7.45,4L716,470.08l2.13,6.64,16,11.95,10.65,6.64,6.39,13.28,8.51,19.93,2.13,23.9L760.72,575h17l-1.07-21.25,1.07-35.86,6.39-13.28,14.9-19.92,12.78-8,8.52-4,6.39-1.32,6.39,1.32v2.66h43.66l9.58-2.66ZM740.49,440.86h4.26v5.31h-2.13l-2.13-2.65Zm-12.78,4H733l2.13,2.66,5.33,2.66H725.58Zm-19.17,15.94-4.26,2.66-7.45-2.66-10.65-2.65-7.45-1.33v-2.66l13.84,1.33,7.45-1.33,8.52,1.33Zm3.2-15.94h-7.46v-5.31l2.13-5.31,4.26,5.31h13.85l1.06,4-5.32,4Zm35.14,38.52v4l-4.26-2.65L738.36,482l-8.52-4-4.26-5.32h17l4.26,4ZM809.7,447.5l-7.45,2.66,4.26-5.32Zm0,6.64-7.45,5.31v-5.31l4.26-2.66Zm-13.84-5.31,6.39-4-2.13,5.32-2.13,4-4.26-4ZM782,454.14l3.19-6.64,2.13,6.64-5.32,4Zm-17-6.64,3.19-2.66,5.33,2.66,2.13,5.31v5.32H770.3l-1.06-4h-6.39Zm-6.39,0v4l-2.13,4-2.13-1.33v-5.31Zm-6.39,5.31-2.13-1.33V440.86l4.26,4-2.13,2.66Zm16,59.77-2.13,8v-6.64l-11.71-18.6V484.69l13.84,21.25Zm0-19.92s-3.19-6.64-3.19-8-8.52-6.64-8.52-6.64v-6.64h17l-5.33,4-2.13,4Zm23.43-5.32-4.26,5.32-3.19,2.65-5.33,4L782,494v-4l5.32-5.31,4.26-5.32,2.13,2.66Zm4.26-23.9v8l-4.26,1.32-6.39,6.64-7.45,5.32v8l-2.13,6.64-2.13-6.64V479.37l4.26-6.64,7.45-9.29,3.2-6.64,3.19-5.32,4.26,6.65Zm9.58,13.28L798,479.37v-4l4.26-2.66,7.45-1.32Zm7.46-10.63H802.25l5.32-5.31,6.39-6.64h8.52v5.31l-5.32,4Zm12.77,0h-7.45l7.45-6.64,4.26,2.66Z"/><polyline class="cls-8" points="566.19 645.96 566.19 641.46 583.61 641.46 650.67 641.46"/><line class="cls-8" x1="585.34" y1="650.47" x2="585.34" y2="641.46"/><polyline class="cls-8" points="607.72 641.46 607.87 650.47 608.43 621.9"/><line class="cls-8" x1="622.35" y1="641.46" x2="622.51" y2="650.47"/><line class="cls-8" x1="634.75" y1="641.46" x2="634.9" y2="650.47"/><path d="M548.56,409.14a6.54,6.54,0,0,1-.91-1.66,9.83,9.83,0,0,1-.43-1.84,9,9,0,0,1,0-1.87,9.29,9.29,0,0,1,.27-1.83,14.18,14.18,0,0,1,3.36-6.33,14.4,14.4,0,0,1,5.94-4,9.44,9.44,0,0,1,7.23.18l0,.4a15.91,15.91,0,0,0-5.63,2.16,22.79,22.79,0,0,0-8,8.92,11.51,11.51,0,0,0-.59,1.4,12,12,0,0,0-.44,1.44,11.62,11.62,0,0,0-.38,3Z"/><path d="M548,409.54a23.8,23.8,0,0,0-2.58-2.17c-.41-.3-.79-.59-1.22-.86-.21-.14-.39-.28-.58-.42s-.42-.26-.61-.4l-4.69-3.1-4.73-3.11c-1.65-1.05-3.27-2.11-5.53-3.28l0-.4a14.81,14.81,0,0,1,6.54.63,24.74,24.74,0,0,1,6,2.81,23.83,23.83,0,0,1,4.93,4.36,12.27,12.27,0,0,1,3,5.87Z"/><path d="M564.94,485.22a5.59,5.59,0,0,1-1.4-2.81,8.45,8.45,0,0,1,0-3.05,10.86,10.86,0,0,1,7.5-8.31,7.14,7.14,0,0,1,5.94.64l0,.4a12.66,12.66,0,0,0-4.35,1.7,16,16,0,0,0-3.56,3,15.62,15.62,0,0,0-2.65,3.85,10.56,10.56,0,0,0-.8,2.2,8.53,8.53,0,0,0-.32,2.31Z"/><path d="M564.48,485.54a17,17,0,0,0-2.33-1.49c-.35-.2-.67-.39-1-.57a5.46,5.46,0,0,1-.48-.27,4.59,4.59,0,0,1-.49-.26c-1.27-.7-2.45-1.39-3.6-2.16s-2.27-1.58-3.44-2.48-2.32-1.88-4.1-3.11l0-.4a11.36,11.36,0,0,1,5.11.47,17.8,17.8,0,0,1,8.5,5.6,9.4,9.4,0,0,1,2.28,4.6Z"/><path class="cls-9" d="M497,463.48c33.53,25.38,68.75,54.17,104.75,86.73,29.17,26.39,55.78,52.47,80,77.72"/><line class="cls-9" x1="597.25" y1="527.69" x2="513.9" y2="653.84"/><path class="cls-10" d="M675.8,622c-3.09,9.32-2,19.46-5.34,28.47-14.64-14.65-36-24.78-57.45-22.53-4.5.56-9,1.25-13.39,2a400,400,0,0,0-57.56,14.87s13.79-28.45,12-59a83.19,83.19,0,0,0-1.79-13.2c-6.8-29.21-19.19-56.24-33.31-82.48-1.45-2.9-2.74-5.46-3.82-7.58-2.15-4.25-3.46-6.73-3.46-6.73l6.53,5.72c2.09,1.83,4.62,4,7.54,6.56,27.61,26,58,49.67,87.18,73.85q3.76,3.24,7.49,6.51t7.44,6.57c2.84,2.58,5.66,5.19,8.5,7.91,11.61,11.15,22.87,22.41,33.91,34.22C673.81,620.3,675.8,622,675.8,622Z"/><polyline class="cls-9" points="552.19 654.96 552.19 650.46 569.61 650.46 636.67 650.46"/><line class="cls-9" x1="571.34" y1="659.47" x2="571.34" y2="650.46"/><polyline class="cls-9" points="593.72 650.46 593.87 659.47 594.43 630.9"/><line class="cls-9" x1="608.35" y1="650.46" x2="608.51" y2="659.47"/><line class="cls-9" x1="620.75" y1="650.46" x2="620.9" y2="659.47"/><path class="cls-11" d="M492.5,652.71l101.37,6.76s33.79-4.51,76.59-9,52.94-5.64,52.94-5.64H713.26s-34.92,9-34.92,18v9L604,677.49l-89-6.76s5.64-2.25-7.88-10.14S492.5,652.71,492.5,652.71Z"/><line class="cls-9" x1="591.61" y1="527.69" x2="718.89" y2="648.2"/></g></svg>