<svg id="Layer_2" data-name="Layer 2" xmlns="http://www.w3.org/2000/svg" viewBox="0 0 800 800"><defs><style>.cls-1{fill:#ffb885;}.cls-2{fill:#fff;}</style></defs><title>Artboard 1</title><path class="cls-1" d="M412.42,159.11c-9.77-22.55-32.78-37.89-57.73-39.8a88,88,0,0,0-13.85-.07,97.93,97.93,0,0,0-34,8.89c-21.09,10-33.72,25.79-40.78,37.44a106.73,106.73,0,0,0-6.77,13.17,89.37,89.37,0,0,0-5.78,16.39,105.37,105.37,0,0,0,2.92,49,133.78,133.78,0,0,0,5.6,15.47c28.7,53.31,76.25,94.72,123.19,132.82,2.47,2.27,4.87,4.53,7.41,6.58,5.08,4.11,10.7,7.38,18.51,8.23,5.09.56,10.83-2.08,16.45-5.84,39.53-31.73,79.41-65.48,112-106.1,3.21-4.42,6.25-8.92,9.08-13.55,14.15-23.09,23.16-49,23.54-77a122.46,122.46,0,0,0-1.4-16.81,74.07,74.07,0,0,0-6.27-20,84.63,84.63,0,0,0-9.2-15c-17.64-25.66-49.85-34.86-80.52-33.33-24.54,3.07-44.48,19.94-55.94,41.89C416.94,163.2,415.53,162.23,412.42,159.11Z"/><path class="cls-1" d="M133.55,558.48l.38,12.54c6.67-15.38,21.13-26.69,37.26-30.72,21.33-6.49,41.27,5.78,59.68,16.52,33.74,23,64.41,44.48,99.69,64.42,19.94,10.73,38.35,21.47,59.82,29.14,10.74,3.07,23,4.6,33.74,6.13,23,0,44.48-10.73,64.42-21.47,39.88-24.54,75.16-47.55,115-73.62,7.66-6.14,13.8-12.27,23-16.87,13.81-10.74,23-23,29.14-38.35,7.67-19.94,6.14-46-13.8-58.28-32.21-18.41-67.49-3.07-98.16,10.74C510,474,477.8,495.47,439.46,501.6c-10.74,1.54-21.47,0-30.68-6.13l-4.6-4.6c-50.61-30.68-93.56-62.89-138-101.23-15.33-13.81-33.74-24.54-53.68-23-24.54,0-46,16.87-68,28.71"/><path class="cls-2" d="M282.07,490.38c23.4,12.64,42.39,31.42,63.32,47.53,20.62,15.87,43.15,27.51,69.25,30.75a127.79,127.79,0,0,0,74.48-13.24c13-6.81,24.46-16.08,36.31-24.63,12.2-8.81,24.8-17,37.55-25,14.13-8.84,28.29-17.84,42.91-25.83s30.81-14.57,47.44-10.1c3.74,1,5.33-4.78,1.6-5.78-27.52-7.39-53.41,11.19-75.73,24.71-12.87,7.8-25.69,15.7-38.23,24s-24.3,17.31-36.49,25.93c-22.39,15.85-47.5,25.17-75.16,24.93-27.33-.24-52.12-10-74.11-25.83-23.73-17.1-44.18-38.61-70.11-52.62-3.4-1.83-6.43,3.35-3,5.19Z"/></svg>