<svg xmlns="http://www.w3.org/2000/svg" viewBox="0 0 1080 1080"><defs><style>.cls-1{fill:#a1bbde;opacity:0.28;}.cls-2{fill:#bfb4a8;}.cls-3{fill:#ffb885;}.cls-4{fill:#8f9a8d;}.cls-10,.cls-16,.cls-5{font-size:20px;}.cls-10,.cls-15,.cls-16,.cls-17,.cls-5{fill:#512731;}.cls-10,.cls-15,.cls-16,.cls-17,.cls-20,.cls-5{font-family:Perpetua-Bold, Perpetua;font-weight:700;}.cls-11,.cls-15,.cls-5{letter-spacing:0.01em;}.cls-6{letter-spacing:-0.02em;}.cls-16,.cls-7{letter-spacing:0em;}.cls-8{letter-spacing:-0.12em;}.cls-9{letter-spacing:-0.05em;}.cls-10{letter-spacing:-0.08em;}.cls-12{letter-spacing:-0.11em;}.cls-13{letter-spacing:-0.08em;}.cls-14{letter-spacing:-0.04em;}.cls-15{font-size:28px;}.cls-17,.cls-20{font-size:14px;letter-spacing:0em;}.cls-18{letter-spacing:-0.09em;}.cls-19{fill:#1a5fc0;}.cls-21{letter-spacing:-0.08em;}</style></defs><g id="sea_shape"><path class="cls-1" d="M462,70a245.54,245.54,0,0,1-24,17c-28.4,17-45.53,13.27-50,26-2.15,6.11.42,10.9-4,22-2.21,5.54-4.11,7.51-6,11-8.38,15.5,1.39,27.62-1.5,49.5-1.56,11.84-4.3,7.34-10,28-7.12,25.79-3.46,35-13,45-.92,1-.15,0-18,13-14.74,10.7-15.85,11.76-17,13-2.39,2.57-12.33,13.23-13,28-.16,3.49.2,7.23,7,25,7.23,18.89,8.77,19.72,12,29,5.62,16.15,2.39,17.72,8,42,4.18,18.08,6,17.23,10,35,3.58,15.8,1.47,13.43,6,40,2.7,15.86,2.46,32.12,5,48,.47,3,1.67,10.12-2,13-2.59,2-6.07.72-11,0-2.09-.31-17.69-2.6-25,3-6.88,5.27-6.49,17.58-6,33,.22,6.88,1.12,14.35-2,24-2.06,6.37-4.11,8.21-6,9-4.94,2.06-12.29-1.68-15-7-2.5-4.9-.6-10.26,3-20,4.22-11.4,7.16-12.61,8-20,.41-3.62,1.33-11.79-4-17-6.58-6.43-17.41-3.19-18-3-11.45,3.61-15.55,16.51-16,18-4,13.29,5,17.5,3,37a54.23,54.23,0,0,1-7,22,51.24,51.24,0,0,1-10,12c-20.85,19.18-34.85,32.06-38,48-2.92,14.77,4.28,28.11,8,35,4.18,7.75,9.43,17.48,20,22,16.13,6.9,36-2,47-12,14.74-13.36,24.39-38.39,25-40,3.13-8.3,5.33-17,11-18s11.64,6.53,12,7c8.06,10.76,1,22.1-2,57-1.59,18.31.53,13.06-1,34-.88,12.08-2,18.86,2,26,2.65,4.77,6.4,7.66,16,13,22,12.26,27.7,11.23,42,20,12.37,7.59,21.6,13.25,25,24,3.54,11.17-2.71,16.79,2,28,3.8,9,11.42,13.85,18,18,17.48,11,26.14,5.19,36,16,5.64,6.19,9.52,15.47,11,19a87.37,87.37,0,0,1,4,12c3.71,13.81,19.81,37.53,45,51,14.89,8,42.52,17.45,52,7,3.1-3.42,3.46-8.1,4-15,.59-7.58-.67-11.84-5-29-8.19-32.5-7.14-31-9-35-3.52-7.51-7.23-12.64-5-16,2-3,7.94-3.14,12-2,7.49,2.1,21.85,22.09,17,16,0,0-2.19,14,4,20,.51.49,1.38,1.21,7,3,12.91,4.11,20.32,6.46,26,3,4.14-2.52,3.76-5.93,6-6,5-.15,6.9,16.73,16,34a115.32,115.32,0,0,0,18,24c21.5,22,57.85,32,91,26a103.86,103.86,0,0,0,50-24c19.52-17.59,26.2-38,29-47,7.68-24.55,4.76-45.36,2-65-1.52-10.86-3.16-22.54-9-37-8-20-15.19-23.14-25-44-5.81-12.36-8.21-21.91-13-41-4-15.79-8.72-34.75-10-60-1-19.3.39-36.13,2-56,1.51-18.6,2.09-15.82,2-21-.2-11-2.88-26.23-33-72-15.22-23.13-22.83-34.7-31-41-22.23-17.16-33.16-8.69-49-24s-8.14-26.87-28-60c-1.4-2.34-1.72-2.74-24-32-24.57-32.26-36.92-48.6-40-59-4.23-14.26-4.62-28.73-5-43a257.61,257.61,0,0,1,1-30c3.26-40.62,5.62-70-3-99-8.14-27.42-16.48-22.33-31-63-5.92-16.58-7.59-26-17-39-3.26-4.5-22.58-31.19-42-28C481.73,51.61,480.89,55.38,462,70Z"/></g><g id="zanzibar_map"><path class="cls-2" d="M392.5,145.5c2.55,7.9,1.37,16.6-1,34-1.33,9.74-2.1,10-3,19a176.86,176.86,0,0,0-1,19c0,7.95.61,9.76,0,16-.49,5-1.09,6.15-1,10,.11,4.41.22,9.1,3,13,4.11,5.76,12.76,8,20,6a19.36,19.36,0,0,0,12-10c3.16-6.67.53-13.69-1-18-1.28-3.58-2.56-5.3-7-16-1.13-2.73-2.52-6.17-1-8,.72-.87,2.16-1.45,3-1s.67,1.42,1,3c.27,1.31.95,4.57,3,6a5.51,5.51,0,0,0,6,0c1.27-.94,1.75-2.48,2-7,.46-8.25-.81-9.13,0-13,.86-4.1,2.32-3.31,5-10,1.86-4.63,3.21-8.15,2-12-.26-.81-1.45-4.6-5-6a9,9,0,0,0-10,3c-1.32,1.79-.29,2.24-2,9-.77,3-2,7-2,7h0s-4.79,0-6-2c-.78-1.27.18-2.95,1-5,.39-1,.92-4.31,2-11,1.43-8.9-2-12.3-3-29-.39-6.36-.15-10.1-3-14-.74-1-3.69-5.06-8-5s-7.85,4.3-9,8C388,136.32,390.61,139.66,392.5,145.5Z"/><path class="cls-2" d="M509.5,99.5c-4.69-5.47-.36-11.61-4-17-2.76-4.08-8.62-5.56-13-5-7.76,1-11.68,8.47-13,11-2.21,4.23-1.42,5.69-3,16-2.5,16.25-5.41,18.74-3,24s6.94,6.08,7,11c0,3-1.63,3.51-3,9-.6,2.39-.73,4.92-1,10-.34,6.38-.51,9.57,0,13,.74,5,2,5.9,3,10,1.87,7.53-1.12,9.39-2,22-.64,9.13.84,9.46,0,20a125.82,125.82,0,0,1-2,14c-2.09,10.52-3.14,15.78-6,20-4.44,6.55-10.79,9.36-19,13a107,107,0,0,1-19,6c-9.87,2.41-12.55,2.05-18,5-3.51,1.9-8.46,4.58-11,10-.91,1.94-1.27,6-2,14-.59,6.54-.54,8.69-2,12a18.69,18.69,0,0,1-5,7c-5,4.22-13.32,6-16,3-1-1.12-.67-3.76,0-9,1-7.68,2.17-10.05,1-14-.54-1.82-1.17-3.93-3-5-4.39-2.55-13,2.44-17,9-2,3.21-2.36,6-3,11-1.26,9.79.86,13.2,0,23-.4,4.6-1.14,6.86-2,11-2.5,12-2.31,21.44-2,37,.32,16,.48,24,3,35,3,13.18,5.23,12.37,7,24,1.46,9.57,1,16.58,6,20,1.92,1.3,4.13,1.73,9,5,4.2,2.82,4.82,4,5,5,.47,2.51-1.88,3.54-4,8-.56,1.18-3,6.41-2,12,.68,3.63,2.07,3.27,4,9a49.88,49.88,0,0,1,2,9c.81,5.29.28,5.65,1,9a36.62,36.62,0,0,0,4,10c3.35,6.38,5.07,6.84,6,11a18,18,0,0,1,0,8c-1.21,5.11-3.88,5.49-6,12a16.52,16.52,0,0,0-1,7c.22,2.09.81,3,2,6,2.5,6.24,3.76,9.36,3,12-.18.64-1.79,2.43-5,6-4.31,4.79-5.39,5.85-6,8-.43,1.51-.05,1.53,0,6a50.14,50.14,0,0,1-1,12c-.28,1.22-.29,1-2,6-.17.49-2.05,6.1-4,13-1.75,6.21-2.05,8.14-1,10a11,11,0,0,0,3,3c3.21,2.61,4.49,2.29,6,4,1.72,1.94,1.85,4.36,2,7,.13,2.31.34,6.12-2,9-1.9,2.34-3.37,1.47-6,4a14.38,14.38,0,0,0-4,8c-.45,3,.35,5,2,10,3.53,10.65,2.43,9.33,4,13,2.74,6.42,4.68,7.09,11,17,4.95,7.76,3.84,7.47,7,12,5.77,8.27,8.32,7.58,17,17,10.34,11.22,9,14.62,16,20a21.24,21.24,0,0,1,7,8,40.86,40.86,0,0,1,2,6c.39,1.36.66,2.41,2,8,1.43,6,1.48,6.27,2,7,1.15,1.64,2.77,2.76,6,5,1.87,1.3,1.86,1.12,3,2,2.73,2.11,3.32,3.53,5,5,.92.81,1.95,1.43,7,3,7.68,2.39,11.52,3.58,14,3,1.35-.32,3.57-1.88,8-5,5.45-3.84,7.07-5.75,8-7a15.11,15.11,0,0,0,3-6,14.57,14.57,0,0,0,0-6c-.48-2.69-1.46-4.84-4-9-2.84-4.66-3.36-4.83-6-9a90,90,0,0,1-6-11,41.36,41.36,0,0,1-3-8,37.42,37.42,0,0,1-1-8c-.16-4.06-.3-7.53,1-8,1-.38,2.51,1.31,4,3,4,4.55,3.81,7.36,7,9a14.25,14.25,0,0,0,4,1c3.72.65,5.58,1,7,0,2.09-1.43,2-4.86,2-8a15.72,15.72,0,0,0-1-6c-1.37-3.45-3.11-3.7-4-7a7.86,7.86,0,0,1,0-5,7.35,7.35,0,0,1,4-4c4-1.64,8.59,1.4,11,3,3,2,6.38,6.36,13,15,4.44,5.79,5,6.51,6,8,3.52,5.16,5.41,7.91,7,12a49.43,49.43,0,0,1,3,14c.43,5.16-.2,6.48,1,10,1.06,3.11,2,3.33,4,8,2.19,5,1.38,5.38,3,8,.55.9,3.64,5.9,9,7a23.2,23.2,0,0,0,6,0c4-.27,5.31-.89,7,0a6.85,6.85,0,0,1,3,4c.44,1.46.11,2.12,0,6,0,0,0,1.94,0,4,.12,4.44.18,6.65,1,8s2.87,2.21,7,4c4.91,2.13,5.42,1.85,7,3,3.32,2.42,4.44,6.15,5,8,1.5,5-.24,6.07,0,14,.24,8.11,2.11,8.9,1,14-1,4.41-3,7-2,8,1.43,1.39,5.86-2.9,10-1a6.68,6.68,0,0,1,3,3c1.09,2.11.74,4.77,0,10-.37,2.59-.65,3.67,0,5s1.41,1.24,3,3a19.16,19.16,0,0,1,3,5,30.92,30.92,0,0,1,2,5c1,3.27.65,4.81,1,7,1,6.06,5.83,10,7,11,.9.74,7.45,6.1,11,4,1.27-.75,1.3-2,2-14,.43-7.45.59-10-1-13-1.51-2.84-2.6-2.35-4-5-2-3.87-.41-6.24,0-15,.39-8.42-1-10.11,1-14,1.62-3.24,3-3,4-6,.79-2.37.59-4.44-1-12-1.18-5.6-1.76-8.41-2-9-3.73-9.41-12.58-7.89-21-19-3.14-4.14-4.53-7.81-6-11.82,0,0-1.49-3.93-1-4.18s1.64,3.68,5,5c1.81.71,3.58.41,6,0,3.7-.63,5.12-1.88,7-1a4.5,4.5,0,0,1,2,2c1,2-.33,3.53,0,6,.22,1.62,1,2.16,3,5,3.36,4.66,2.57,4.88,5,8,2.74,3.52,3.45,2.87,7,7a54.63,54.63,0,0,1,5,7c2.69,4.21,4,6.32,4,8a12.13,12.13,0,0,1-4,8c-.9.81-1.47,1-2,2-.89,1.63-.55,3.36,0,6a26.74,26.74,0,0,0,2,6c1.5,3.11,2.13,2.84,3,5,1.31,3.24.23,4.67,1,8,.65,2.81,1.85,3.64,4,7a50.06,50.06,0,0,1,6,14c2,7.26,3,12,3,12,.44,2.15.93,4.82,3,6,1.42.81,2.2.13,4,1a8.49,8.49,0,0,1,4,5c.74,2.31.23,4,0,6-.58,5,.92,9.06,2,12,1.53,4.17,3.73,6.83,8,12,3.24,3.92,3.94,4,6,7,2.64,3.8,3.61,6.68,5,10,3,7.19,5.8,13.86,11,19,4.94,4.89,10.41,6.77,14,8a46.67,46.67,0,0,0,21,2c17.67-2,30.12-12.5,39-20,13.68-11.56,20.39-23,28-36,7.43-12.67,7.9-18,8-20,.17-3.26-.26-6.23,1-11s2.69-5.45,5-11a57.12,57.12,0,0,0,4-17c.44-4.37.84-8.34,0-13-1.65-9.19-7.09-15.36-14-23-9.15-10.12-11.13-8.53-15-15-3.13-5.22-1.83-6.25-6-23-1.14-4.6-.72-2.44-7-25-3.38-12.14-3.66-13.33-4-15-1.64-8-1.38-10.51-3-22-1.21-8.64-1.62-9-3-18-1.53-9.94-2.7-17.47-3-25-.77-19.1,4.61-22.72,5-48,.15-9.88-.6-14.06-1-16-2.22-10.77-5.7-11.6-7-22-.58-4.68-1.34-9.33-2-14a19.84,19.84,0,0,0-2-7,15.22,15.22,0,0,0-5-6c-2.2-1.46-3.44-1.26-5-3a10.4,10.4,0,0,1-2-4c-2.17-6.16-3.11-5.35-4-9a25.66,25.66,0,0,1,0-11c.73-3,1.62-3.83,1-5-.89-1.67-3.94-1.8-10-2-4-.13-3.59.15-7,0-5.72-.26-7-1-9,0s-3,3-4,5c-1.22,2.45-1.58,4.58-2,8-.86,7-.41,7-1,11-.94,6.52-2.44,9.12-1,13a6.07,6.07,0,0,0,2,3c2.54,1.82,7,1,7,1h0a23.31,23.31,0,0,1,3,5c.73,1.81.36,2.13,1,5a33.24,33.24,0,0,0,2,6c1.55,3.44,4.17,7.35,5,7,.64-.27.14-3,0-3a23.43,23.43,0,0,0,0,8c.47,3.08,1.12,3.61,1,6-.15,2.85-1.23,4.91-1,5s1.33-1.68,1-2c0,0-.29-.29-5,3h0s-1.65-2-3-4c-2-2.9-2.06-3.86-3-4-1.25-.19-2.44,1.31-3,2a11.27,11.27,0,0,0-2,5c-.54,2.57-.22,3.33-1,4a3.65,3.65,0,0,1-4,0c-1.23-.76-.92-1.64-2-3-2-2.47-4.42-1.42-7-4-1.21-1.21-.65-1.42-2-3a10.86,10.86,0,0,0-7-4,10.65,10.65,0,0,0-7,2,17.45,17.45,0,0,0-4,4c-1.48,1.84-1.55,2.42-3,4-1.73,1.89-2.6,2.84-4,3-2.07.23-4.13-1.42-5-3-.1-.19-.4-1.13-1-3a20.64,20.64,0,0,0-1-3c-1.34-2.21-4.12-2.6-4-3s2,0,2,0a24.5,24.5,0,0,0-7,0,16.37,16.37,0,0,0-4,1c-2.22.89-2.8,1.76-5,3a32.87,32.87,0,0,1-5,2c-3.67,1.37-9.16,3.42-9,4,.11.41,2.94-.26,3,0s-4.84,2.91-8,1a3.81,3.81,0,0,1-2-3c0-1,.75-1.57,2-3,2.2-2.51,2-3,3-4,3.42-3.21,8.12.19,14-3a22.89,22.89,0,0,0,3-2,22.29,22.29,0,0,0,4-4c.64-.9,1.53-2.54,1-13a86.09,86.09,0,0,0-1-10c-.83-5.09-1.54-6.32-2-7-1.89-2.78-3.86-2.64-6-5s-2.75-5.67-3-9c-.74-9.74.58-18.37,1-26,.71-12.9,1.06-19.34-1-27-1-3.83-3.38-10.83,0-15,1.17-1.45,2-1.31,3-3,1.76-3,0-5.19,0-12,0-4.59.85-5.06,0-7s-2.54-3.22-6-6a45.94,45.94,0,0,0-4-3c-6.21-4-9.4-2.27-13-5-3.37-2.56-4.09-6.74-5-12-1.18-6.83.76-7.54,0-15a41.1,41.1,0,0,0-5-16,45.55,45.55,0,0,0-6-8c-5.1-5.86-6.88-6-12-12-4.26-5-5.5-7.78-6-9-1.28-3.16-1.12-4.56-2-8-1.63-6.34-3.56-6.88-6-13-3.2-8-.7-9.14-4-18-2.26-6.05-3.45-5.61-5-11-1.79-6.23-.53-8-2-14-1.57-6.37-3.44-6.19-6-13-3-8-3-15.07-3-21,0-9.48,1.69-9.37,1-17-.37-4.14-.83-3.68-3-16-.56-3.16-.46-2.8-2-12-2-11.66-1.94-11.24-2-12-.63-8.63,1.63-15.71,3-20,2.32-7.26,4.16-8.67,5-15a40.63,40.63,0,0,0,0-10c-2-20.67-.32-18.84-2-29-1-6.23-3.35-13.49-8-28s-6.43-17.79-9-21c-3.59-4.49-5.53-4.85-10-11-3.4-4.69-2.79-5.18-8-13-3-4.49-5.33-7.53-8-11-1.65-2.15-3.08-3.93-5-6C511,100.83,510.44,100.59,509.5,99.5Z"/></g><g id="beach_icon"><path class="cls-3" d="M810.15,757.57l-13.45-5.92-8.41,18.88c3.37,1.78,5.21,4.32,5.21,6,0,2.76-7.16,2-16,2s-16,.76-16-2,9.16-8,18-8c.5,0,1,0,1.45,0l8-20.3-.07,0c-6.18-2.74-11.36-5.06-11.67-5.28-2.8-2,8.7-6.63,17.26-4.36a23.74,23.74,0,0,1,13,10.16C808.72,750.76,812,758.39,810.15,757.57Z"/><path class="cls-3" d="M653.15,478.57l-13.45-5.92-8.41,18.88c3.37,1.78,5.21,4.32,5.21,6,0,2.76-7.16,2-16,2s-16,.76-16-2,9.16-8,18-8c.5,0,1,0,1.45.05l8-20.3-.07,0c-6.18-2.74-11.36-5.06-11.67-5.28-2.8-2,8.7-6.63,17.26-4.36a23.74,23.74,0,0,1,13,10.16C651.72,471.76,655,479.39,653.15,478.57Z"/><path class="cls-3" d="M613.15,380.57l-13.45-5.92-8.41,18.88c3.37,1.78,5.21,4.32,5.21,6,0,2.76-7.16,2-16,2s-16,.76-16-2,9.16-8,18-8c.5,0,1,0,1.45.05l8-20.3-.07,0c-6.18-2.74-11.36-5.06-11.67-5.28-2.8-2,8.7-6.63,17.26-4.36a23.74,23.74,0,0,1,13,10.16C611.72,373.76,615,381.39,613.15,380.57Z"/><path class="cls-3" d="M588.15,262.57l-13.45-5.92-8.41,18.88c3.37,1.78,5.21,4.32,5.21,6,0,2.76-7.16,2-16,2s-16,.76-16-2,9.16-8,18-8c.5,0,1,0,1.45.05l8-20.3-.07,0c-6.18-2.74-11.36-5.06-11.67-5.28-2.8-2,8.7-6.63,17.26-4.36a23.74,23.74,0,0,1,13,10.16C586.72,255.76,590,263.39,588.15,262.57Z"/><path class="cls-3" d="M733.15,1015.57l-13.45-5.92-8.41,18.88c3.37,1.78,5.21,4.32,5.21,6,0,2.76-7.16,2-16,2s-16,.76-16-2,9.16-8,18-8c.5,0,1,0,1.45,0l8-20.3-.07,0c-6.18-2.74-11.36-5.06-11.67-5.28-2.8-2,8.7-6.63,17.26-4.36a23.74,23.74,0,0,1,13,10.16C731.72,1008.76,735,1016.39,733.15,1015.57Z"/><path class="cls-3" d="M630.15,899.57l-13.45-5.92-8.41,18.88c3.37,1.78,5.21,4.32,5.21,6,0,2.76-7.16,2-16,2s-16,.76-16-2,9.16-8,18-8c.5,0,1,0,1.45,0l8-20.3-.07,0c-6.18-2.74-11.36-5.06-11.67-5.28-2.8-2,8.7-6.63,17.26-4.36a23.74,23.74,0,0,1,13,10.16C628.72,892.76,632,900.39,630.15,899.57Z"/><path class="cls-3" d="M465.15,805.57l-13.45-5.92-8.41,18.88c3.37,1.78,5.21,4.32,5.21,6,0,2.76-7.16,2-16,2s-16,.76-16-2,9.16-8,18-8c.5,0,1,0,1.45,0l8.05-20.3-.07,0c-6.18-2.74-11.36-5.06-11.67-5.28-2.8-2,8.7-6.63,17.26-4.36a23.74,23.74,0,0,1,13,10.16C463.72,798.76,467,806.39,465.15,805.57Z"/><path class="cls-3" d="M410.15,626.57l-13.45-5.92-8.41,18.88c3.37,1.78,5.21,4.32,5.21,6,0,2.76-7.16,2-16,2s-16,.76-16-2,9.16-8,18-8c.5,0,1,0,1.45,0l8.05-20.3-.07,0c-6.18-2.74-11.36-5.06-11.67-5.28-2.8-2,8.7-6.63,17.26-4.36a23.74,23.74,0,0,1,13,10.16C408.72,619.76,412,627.39,410.15,626.57Z"/><path class="cls-3" d="M529.15,69.57,515.7,63.65l-8.41,18.88c3.37,1.78,5.21,4.32,5.21,6,0,2.76-7.16,2-16,2s-16,.76-16-2,9.16-8,18-8c.5,0,1,0,1.45,0L508,60.25l-.07,0c-6.18-2.74-11.36-5.06-11.67-5.28-2.8-2,8.7-6.63,17.26-4.36a23.74,23.74,0,0,1,13,10.16C527.72,62.76,531,70.39,529.15,69.57Z"/><path class="cls-3" d="M495.15,133.57l-13.45-5.92-8.41,18.88c3.37,1.78,5.21,4.32,5.21,6,0,2.76-7.16,2-16,2s-16,.76-16-2,9.16-8,18-8c.5,0,1,0,1.45.05l8.05-20.3-.07,0c-6.18-2.74-11.36-5.06-11.67-5.28-2.8-2,8.7-6.63,17.26-4.36a23.74,23.74,0,0,1,13,10.16C493.72,126.76,497,134.39,495.15,133.57Z"/></g><g id="forest_areas"><path class="cls-4" d="M651.5,671.5c-8.07-4-20.57,6.45-26,11a59.21,59.21,0,0,0-16,21c-4,9-4.39,16.22-5,27-.56,10-.92,18,3,27,2,4.57,5.35,12.29,11,13,6.51.82,8.23-8.65,18-11s14.58,5.47,22,2c7-3.29,8.73-13.14,9-15,1.24-8.43-3.12-10.93-6-23s.51-13.55-2-30C657.59,681,656.53,674,651.5,671.5Z"/><path class="cls-4" d="M730.5,770.5c-4.52-1.8-10.75,1-14,5-3.76,4.67-1.09,8-5,13-1,1.33-1.64,1.6-11,7-8.78,5.07-9.68,5.66-11,7-1.76,1.79-5.82,5.94-6,12-.2,6.61,4.35,11.3,6,13,3.29,3.39,4.87,2.85,9,6,5.93,4.52,8.68,10.22,11,15,5.24,10.83,2,12.75,6,18,6.8,8.92,20.43,9,26,9,6.67,0,14,.06,18-5,3.63-4.62,2.4-10.86,1-18-1.19-6.07-2.93-14.92-10-20-5.44-3.91-8.81-1.83-12-6-3.36-4.38-3.11-11.23-1-16s4.52-4,6-8c.6-1.6,1.33-4.72-6-21C733.39,772.37,732.18,771.17,730.5,770.5Z"/><path class="cls-4" d="M457.5,420.5c-12.56,1.7-18.86,2.6-20,5-2.93,6.16,10.07,12.47,10,27,0,5.72-2.08,11.54-4,17-2.94,8.36-5.08,10-5,15,.09,5.94,3.15,6.75,6,15s.51,9.8,3,22c1.85,9.07,3.39,16.6,8,18,3.15,1,6.81-1.68,14-7a136.74,136.74,0,0,0,13-11c18.11-16.9,20.31-16.78,22-22,1.17-3.62-.14-2.86,0-19,.14-15.42,1.34-15.76,0-20-3.06-9.7-9.63-8.84-14-19-4.8-11.16.91-17.31-4-22C483.86,417,475,418.12,457.5,420.5Z"/></g><g id="lables"><text class="cls-5" transform="translate(247.07 638.1)">S<tspan class="cls-6" x="9.26" y="0">T</tspan><tspan class="cls-7" x="20.22" y="0">ONE</tspan><tspan class="cls-8" x="58.44" y="0"> </tspan><tspan class="cls-6" x="60.64" y="0">T</tspan><tspan class="cls-9" x="71.6" y="0">O</tspan><tspan x="84.98" y="0">WN</tspan></text><text class="cls-5" transform="translate(380.07 806.1)">Fumba</text><text class="cls-5" transform="translate(723.07 1034.1)">KIZIMKAZI</text><text class="cls-10" transform="translate(798.07 778.1)">P<tspan class="cls-11" x="9.14" y="0">AJE</tspan></text><text class="cls-5" transform="translate(795.07 707.1)">BWEJUU</text><text class="cls-5" transform="translate(646.07 491.1)">PONGWE</text><text class="cls-5" transform="translate(604.07 401.1)">KIWENG<tspan class="cls-12" x="76.43" y="0">W</tspan><tspan class="cls-7" x="92.76" y="0">A</tspan></text><text class="cls-5" transform="translate(581.07 277.1)">M<tspan class="cls-13" x="18.22" y="0">A</tspan><tspan class="cls-7" x="30.05" y="0">TEMWE</tspan></text><text class="cls-5" transform="translate(526.07 90.1)">NUNGWI</text><text class="cls-5" transform="translate(401.07 128.1)">KEN<tspan class="cls-14" x="36.95" y="0">D</tspan><tspan class="cls-12" x="50.44" y="0">W</tspan><tspan x="66.77" y="0">A</tspan></text><text class="cls-15" transform="translate(247.07 677.1)">Zanzibar City</text><text class="cls-16" transform="translate(622.35 764.75)">JOZANI <tspan x="0" y="24">FOREST</tspan></text><text class="cls-16" transform="translate(703.35 867.75)">MUJUNI <tspan x="0" y="24">FOREST</tspan></text><text class="cls-16" transform="translate(440.35 474.75)">KICHWELE <tspan x="0" y="24">FOREST</tspan></text><text class="cls-17" transform="translate(243.29 583.45)">PRISON ISLAND<tspan x="0" y="16.8">B</tspan><tspan class="cls-18" x="8.68" y="16.8">A</tspan><tspan x="16.76" y="16.8">WE ISLAND</tspan></text><circle class="cls-19" cx="354.5" cy="584.5" r="7.5"/><circle class="cls-19" cx="394.5" cy="166.5" r="7.5"/><circle class="cls-19" cx="417.5" cy="208.5" r="7.5"/><circle class="cls-19" cx="340.5" cy="595.5" r="7.5"/><text class="cls-20" transform="translate(258.49 173.6)">TUMB<tspan class="cls-21" x="39.52" y="0">A</tspan><tspan x="47.81" y="0">TU ISLAND</tspan></text><text class="cls-20" transform="translate(308.49 215.6)">POPO ISLAND</text></g><g id="dolphin"><path class="cls-2" d="M660.84,1022a1.65,1.65,0,0,1-.56,1.3c-.8.5-2.2-.47-2.6-.74-1.1-.76-1.08-1.3-2.22-1.86a3.13,3.13,0,0,0-1.49-.37c-.06,0-.48.08-1,.18h-.08c0,.26,0,.65,0,1.3s0,.6,0,.74a3.3,3.3,0,0,1-1.12,2.23c-.66.5-1.28.41-1.79.72,0,0,0,0-.06,0-.23-.06.3-1.61,0-3a2.92,2.92,0,0,0-.4-1,19.29,19.29,0,0,1-2.2,2.07c-.54.41-1.23.94-1.49.74-.43-.31.79-2.26.37-2.59s-1.31.71-3,1.85c-2.9,2-4.07,1.9-5.57,3.72a3.8,3.8,0,0,0-1.11,2.59,9.7,9.7,0,0,0,.37,1.49,6.57,6.57,0,0,1,.37,2.6c-.11.75-.54,1.8-1.11,1.85-.41,0-.56-.47-1.49-1.11a5,5,0,0,0-1.48-.74,6.19,6.19,0,0,0-3,0s-.05,1-.37,1.11-.86-.49-1.12-1.11a2.67,2.67,0,0,1,0-1.86,4.91,4.91,0,0,1,1.12-1.48,5.8,5.8,0,0,1,.74-.75c.82-.62,1.37-.51,1.86-1.11a2.56,2.56,0,0,0,.37-.74c.52-1.45-.15-2.16.37-3.34.22-.5.33-.34.74-1.12a10.18,10.18,0,0,0,.74-1.85,4.06,4.06,0,0,1,.37-1.12,3.51,3.51,0,0,1,.75-.74c.54-.51.39-.71,1.11-1.86a7.9,7.9,0,0,1,1.12-1.48c.32-.33.45-.4.74-.74.52-.64.39-.8.74-1.12.6-.55,1.2-.25,1.49-.74.12-.22.08-.52,0-1.11a8.67,8.67,0,0,0-.38-1.49l-.92-.56c.23-.48.35-.72.37-.74.51-.41,1.1.12,3,.37.81.11,1.13.07,1.48.37a3.73,3.73,0,0,1,.75,1.12c.28.55.23.64.37.74.47.33,1.27-.63,2.6-1.11,1-.38,2.16-.25,4.45,0a11.36,11.36,0,0,1,2.23.37,6.77,6.77,0,0,1,3,1.48,5.12,5.12,0,0,1,1.48,2.23c.29.92,0,1.18.37,3a7.91,7.91,0,0,0,.38,1.49C660.47,1021.14,660.84,1021.37,660.84,1022Z"/><path class="cls-2" d="M665.49,1044.17a1.65,1.65,0,0,1-.56,1.3c-.8.51-2.2-.46-2.6-.74-1.1-.76-1.09-1.3-2.23-1.86a3.22,3.22,0,0,0-1.48-.37l-1,.18h-.08c0,.26,0,.65,0,1.3s0,.6,0,.74a3.3,3.3,0,0,1-1.12,2.23c-.66.5-1.28.41-1.8.73,0,0,0,0-.06,0-.22,0,.31-1.61,0-3a2.8,2.8,0,0,0-.39-1,20.17,20.17,0,0,1-2.2,2.08c-.54.41-1.23.93-1.49.74-.43-.32.79-2.27.37-2.6s-1.31.72-3,1.86c-2.91,2-4.07,1.89-5.57,3.71a3.82,3.82,0,0,0-1.11,2.6,10,10,0,0,0,.37,1.48,6.57,6.57,0,0,1,.37,2.6c-.11.75-.54,1.81-1.11,1.86-.41,0-.56-.47-1.49-1.12a5.3,5.3,0,0,0-1.48-.74,6.19,6.19,0,0,0-3,0s-.05,1-.37,1.11-.87-.49-1.12-1.11a2.67,2.67,0,0,1,0-1.86,10.56,10.56,0,0,1,1.86-2.22c.82-.63,1.36-.52,1.85-1.12a2.15,2.15,0,0,0,.38-.74c.52-1.45-.16-2.16.37-3.34.22-.5.32-.34.74-1.11a10.12,10.12,0,0,0,.74-1.86,3.57,3.57,0,0,1,.37-1.12,3.76,3.76,0,0,1,.75-.74c.53-.51.39-.71,1.11-1.85a8,8,0,0,1,1.11-1.49,8.75,8.75,0,0,0,.75-.74c.52-.64.39-.8.74-1.12.6-.54,1.2-.25,1.48-.74.13-.21.09-.51,0-1.11a8.14,8.14,0,0,0-.37-1.49l-.93-.55c.24-.49.36-.73.38-.75.5-.4,1.1.12,3,.37.81.12,1.13.08,1.48.38a3.48,3.48,0,0,1,.74,1.11c.29.55.24.65.38.74.47.33,1.26-.63,2.59-1.11,1-.37,2.17-.25,4.46,0a12.16,12.16,0,0,1,2.23.37,6.7,6.7,0,0,1,3,1.49,5,5,0,0,1,1.48,2.22c.28.93,0,1.19.37,3a8.91,8.91,0,0,0,.37,1.49C665.12,1043.29,665.49,1043.52,665.49,1044.17Z"/></g></svg>