<svg xmlns="http://www.w3.org/2000/svg" viewBox="0 0 1200 1200"><defs><style>.cls-1{fill:#a1bbde;opacity:0.28;}.cls-2{fill:#bfb4a8;}.cls-3{fill:#ffb885;}.cls-4{fill:#8f9a8d;}.cls-11,.cls-12,.cls-13,.cls-21,.cls-5{font-size:22.89px;}.cls-11,.cls-12,.cls-13,.cls-18,.cls-5{fill:#512731;}.cls-11,.cls-12,.cls-13,.cls-18,.cls-21,.cls-5{font-family:Perpetua-Bold, Perpetua;font-weight:700;}.cls-5{letter-spacing:0.01em;}.cls-6{letter-spacing:-0.02em;}.cls-7{letter-spacing:-0.12em;}.cls-8{letter-spacing:-0.02em;}.cls-9{letter-spacing:-0.05em;}.cls-10,.cls-11,.cls-21{letter-spacing:0em;}.cls-12{letter-spacing:0.01em;}.cls-13{letter-spacing:-0.08em;}.cls-14{letter-spacing:-0.11em;}.cls-15{letter-spacing:-0.08em;}.cls-16{letter-spacing:0em;}.cls-17{letter-spacing:-0.04em;}.cls-18{font-size:32.05px;letter-spacing:0.01em;}.cls-19{letter-spacing:-0.09em;}.cls-20{fill:#1a5fc0;}.cls-22{fill:#6d3d1b;}.cls-23{fill:#f9d5b7;}.cls-24,.cls-26,.cls-27{fill:none;stroke-miterlimit:10;}.cls-24{stroke:#000;}.cls-25{fill:#a78771;}.cls-26{stroke:#8c6239;}.cls-27{stroke:#16110d;}</style></defs><g id="sea_shape"><path class="cls-1" d="M511.1,60c-7.91,6.12-17.16,13.28-27.47,19.46-32.5,19.47-52.11,15.19-57.23,29.76-2.46,7,.49,12.47-4.58,25.18-2.53,6.34-4.7,8.59-6.87,12.59-9.59,17.73,1.59,31.61-1.71,56.66-1.79,13.54-4.92,8.4-11.45,32-8.15,29.52-4,40-14.88,51.5-1.05,1.11-.17.05-20.6,14.88-16.87,12.26-18.14,13.47-19.46,14.88-2.74,3-14.11,15.15-14.88,32.05-.18,4,.23,8.28,8,28.62,8.28,21.63,10,22.58,13.74,33.19,6.44,18.49,2.74,20.29,9.15,48.08,4.78,20.69,6.84,19.73,11.45,40.06,4.1,18.08,1.68,15.37,6.87,45.79,3.09,18.15,2.81,36.76,5.72,54.94.54,3.39,1.91,11.58-2.29,14.88-3,2.32-6.94.83-12.59,0-2.39-.35-20.25-3-28.61,3.43-7.88,6-7.43,20.13-6.87,37.77.25,7.87,1.29,16.43-2.29,27.47-2.36,7.29-4.7,9.41-6.87,10.31-5.66,2.35-14.07-1.93-17.17-8-2.86-5.61-.69-11.74,3.44-22.89,4.82-13,8.2-14.43,9.15-22.89.47-4.14,1.53-13.5-4.58-19.46-7.53-7.36-19.92-3.65-20.6-3.43-13.1,4.13-17.8,18.9-18.31,20.6-4.59,15.21,5.77,20,3.43,42.35a61.85,61.85,0,0,1-8,25.18,58.8,58.8,0,0,1-11.45,13.74c-23.87,21.95-39.89,36.69-43.49,54.94-3.34,16.9,4.9,32.18,9.15,40.06,4.79,8.88,10.8,20,22.9,25.18,18.46,7.91,41.19-2.31,53.79-13.73,16.88-15.3,27.92-43.94,28.62-45.79,3.59-9.49,6.1-19.4,12.59-20.6,6.66-1.23,13.33,7.47,13.74,8,9.22,12.32,1.17,25.3-2.29,65.25-1.82,21,.61,15-1.15,38.91-1,13.83-2.24,21.59,2.29,29.76,3,5.47,7.33,8.77,18.31,14.88,25.23,14,31.71,12.85,48.08,22.9,14.15,8.68,24.72,15.16,28.61,27.47,4.05,12.78-3.1,19.21,2.29,32,4.35,10.35,13.08,15.85,20.61,20.6,20,12.61,29.92,5.94,41.2,18.31,6.46,7.09,10.9,17.71,12.59,21.75a97,97,0,0,1,4.58,13.74c4.25,15.81,22.67,43,51.51,58.37,17,9.11,48.67,20,59.52,8,3.55-3.92,4-9.28,4.58-17.17.67-8.68-.77-13.55-5.72-33.2-9.38-37.19-8.18-35.53-10.3-40.06-4-8.6-8.29-14.47-5.73-18.31,2.32-3.49,9.09-3.6,13.74-2.29,8.57,2.4,25,25.28,19.46,18.31,0,0-2.51,16.09,4.57,22.89.59.57,1.58,1.39,8,3.44,14.78,4.7,23.25,7.39,29.76,3.43,4.74-2.88,4.3-6.79,6.87-6.87,5.71-.17,7.89,19.16,18.31,38.92a132.16,132.16,0,0,0,20.6,27.47c24.61,25.13,66.22,36.63,104.16,29.76a118.8,118.8,0,0,0,57.23-27.47c22.35-20.13,30-43.53,33.2-53.8,8.79-28.1,5.44-51.91,2.29-74.4-1.75-12.43-3.62-25.8-10.3-42.35-9.22-22.83-17.39-26.48-28.62-50.36-6.65-14.15-9.4-25.08-14.88-46.93-4.53-18.07-10-39.78-11.45-68.68-1.11-22.09.45-41.35,2.29-64.1,1.73-21.28,2.4-18.11,2.29-24-.22-12.63-3.3-30-37.77-82.42-17.42-26.47-26.13-39.71-35.48-46.93-25.45-19.64-38-9.95-56.09-27.47s-9.32-30.75-32-68.68c-1.6-2.67-2-3.14-27.47-36.62C670.13,414,656,395.25,652.46,383.35c-4.83-16.32-5.28-32.88-5.72-49.22a291.7,291.7,0,0,1,1.15-34.33c3.73-46.5,6.43-80.08-3.44-113.32-9.31-31.38-18.86-25.56-35.48-72.11-6.78-19-8.69-29.77-19.46-44.64-3.73-5.15-25.84-35.7-48.07-32.05C533.69,39,532.73,43.26,511.1,60Z"/></g><g id="zanzibar_map"><path class="cls-2" d="M431.55,146.42c2.92,9,1.57,19-1.14,38.91-1.52,11.15-2.4,11.4-3.44,21.75a199.75,199.75,0,0,0-1.14,21.75c0,9.1.7,11.17,0,18.31-.56,5.73-1.25,7-1.15,11.45.13,5,.25,10.41,3.44,14.88,4.7,6.6,14.61,9.2,22.89,6.87a22.21,22.21,0,0,0,13.74-11.45c3.62-7.63.61-15.67-1.15-20.6-1.46-4.1-2.93-6.07-8-18.32-1.3-3.13-2.88-7.06-1.15-9.15.83-1,2.48-1.67,3.44-1.15s.77,1.63,1.14,3.44c.31,1.5,1.09,5.23,3.44,6.86a6.28,6.28,0,0,0,6.86,0c1.46-1.07,2-2.84,2.29-8,.53-9.44-.92-10.45,0-14.88,1-4.69,2.66-3.79,5.73-11.45,2.12-5.3,3.67-9.32,2.29-13.73-.3-.93-1.66-5.26-5.73-6.87s-9.17.35-11.44,3.44c-1.51,2-.34,2.56-2.29,10.3-.88,3.46-2.29,8-2.29,8h0s-5.49,0-6.87-2.29c-.89-1.46.21-3.38,1.15-5.72.44-1.11,1-4.94,2.28-12.59C456.08,166,452.18,162.1,451,143c-.45-7.28-.18-11.56-3.43-16-.85-1.16-4.22-5.79-9.16-5.73s-9,4.93-10.3,9.16C426.4,135.9,429.39,139.73,431.55,146.42Z"/><path class="cls-2" d="M565.47,93.76c-5.37-6.26-.41-13.29-4.58-19.46-3.15-4.67-9.87-6.36-14.88-5.72-8.88,1.13-13.36,9.7-14.88,12.59-2.53,4.84-1.62,6.51-3.43,18.32-2.86,18.6-6.19,21.44-3.43,27.47s7.94,7,8,12.59c0,3.43-1.86,4-3.43,10.3-.69,2.73-.84,5.64-1.15,11.45-.39,7.3-.58,10.95,0,14.88.85,5.74,2.27,6.75,3.43,11.44,2.14,8.62-1.28,10.75-2.28,25.18-.74,10.46.95,10.83,0,22.9a145,145,0,0,1-2.29,16c-2.4,12-3.6,18.06-6.87,22.89-5.08,7.5-12.35,10.72-21.75,14.88-7.85,3.48-15,5.23-21.75,6.87-11.29,2.76-14.36,2.35-20.6,5.72-4,2.18-9.69,5.24-12.59,11.45-1,2.22-1.46,6.82-2.29,16-.68,7.48-.62,9.94-2.29,13.73a21.25,21.25,0,0,1-5.72,8c-5.72,4.84-15.24,6.92-18.32,3.44-1.13-1.29-.77-4.31,0-10.3,1.13-8.8,2.49-11.5,1.15-16-.62-2.08-1.34-4.5-3.44-5.72-5-2.92-14.86,2.79-19.46,10.3-2.25,3.68-2.7,6.9-3.43,12.59-1.44,11.21,1,15.11,0,26.33-.46,5.26-1.3,7.84-2.29,12.59-2.86,13.7-2.64,24.54-2.29,42.35.37,18.35.55,27.52,3.44,40.06,3.47,15.09,6,14.15,8,27.47,1.67,11,1.1,19,6.87,22.89,2.2,1.5,4.73,2,10.3,5.73,4.81,3.23,5.51,4.6,5.72,5.72.54,2.87-2.15,4-4.58,9.16-.64,1.34-3.48,7.33-2.29,13.73.78,4.16,2.37,3.75,4.58,10.3A57.71,57.71,0,0,1,419,572.22c.93,6,.32,6.46,1.15,10.3A42,42,0,0,0,424.68,594c3.84,7.31,5.8,7.83,6.87,12.6a20.4,20.4,0,0,1,0,9.15c-1.38,5.85-4.44,6.29-6.87,13.74a18.91,18.91,0,0,0-1.14,8c.25,2.39.92,3.46,2.29,6.87,2.87,7.14,4.3,10.71,3.43,13.73-.21.74-2.05,2.79-5.72,6.87-4.93,5.48-6.17,6.7-6.87,9.16-.49,1.73-.05,1.75,0,6.87a57.14,57.14,0,0,1-1.14,13.73c-.32,1.39-.34,1.09-2.29,6.87-.19.56-2.35,7-4.58,14.88-2,7.11-2.34,9.32-1.15,11.45.67,1.18,1.6,1.93,3.44,3.43,3.68,3,5.13,2.62,6.87,4.58,2,2.22,2.12,5,2.29,8,.14,2.64.38,7-2.29,10.3-2.18,2.68-3.86,1.68-6.87,4.58a16.35,16.35,0,0,0-4.58,9.16c-.52,3.49.41,5.77,2.29,11.44,4,12.19,2.78,10.68,4.58,14.88,3.14,7.35,5.35,8.12,12.59,19.46,5.66,8.89,4.4,8.56,8,13.74,6.6,9.46,9.52,8.67,19.46,19.46,11.84,12.84,10.26,16.73,18.31,22.89a24.44,24.44,0,0,1,8,9.16,47.18,47.18,0,0,1,2.29,6.86c.45,1.56.75,2.76,2.28,9.16,1.64,6.82,1.7,7.17,2.29,8,1.32,1.88,3.17,3.16,6.87,5.73,2.15,1.48,2.13,1.28,3.44,2.29,3.12,2.41,3.8,4,5.72,5.72,1.05.92,2.23,1.63,8,3.43,8.79,2.74,13.19,4.11,16,3.44,1.54-.37,4.08-2.15,9.15-5.73,6.24-4.39,8.09-6.58,9.16-8A17.18,17.18,0,0,0,548.3,903a16.42,16.42,0,0,0,0-6.86c-.54-3.08-1.67-5.54-4.57-10.31-3.26-5.33-3.85-5.53-6.87-10.3A103.58,103.58,0,0,1,530,863a46.53,46.53,0,0,1-3.43-9.16,42.35,42.35,0,0,1-1.15-9.15c-.18-4.65-.34-8.62,1.15-9.16,1.17-.43,2.87,1.5,4.57,3.43,4.58,5.21,4.37,8.42,8,10.31a16.33,16.33,0,0,0,4.58,1.14c4.26.74,6.39,1.11,8,0,2.38-1.64,2.33-5.56,2.29-9.16a18.09,18.09,0,0,0-1.15-6.86c-1.57-4-3.56-4.24-4.58-8a9,9,0,0,1,0-5.72,8.4,8.4,0,0,1,4.58-4.58c4.6-1.87,9.84,1.61,12.59,3.44,3.44,2.28,7.3,7.27,14.88,17.16,5.08,6.63,5.7,7.45,6.87,9.16,4,5.9,6.19,9.06,8,13.74a56.65,56.65,0,0,1,3.44,16c.49,5.91-.23,7.42,1.14,11.45,1.21,3.56,2.26,3.81,4.58,9.16,2.51,5.77,1.58,6.15,3.43,9.15.64,1,4.18,6.75,10.31,8,1.67.35,3.4.23,6.86,0,4.64-.3,6.09-1,8,0a7.87,7.87,0,0,1,3.43,4.58c.5,1.67.12,2.42,0,6.87,0,0-.06,2.23,0,4.58.13,5.08.2,7.61,1.14,9.16s3.29,2.52,8,4.57c5.62,2.44,6.2,2.12,8,3.44,3.8,2.77,5.08,7,5.72,9.16,1.72,5.67-.27,6.94,0,16,.28,9.28,2.42,10.18,1.15,16-1.1,5-3.49,8-2.29,9.15,1.64,1.6,6.7-3.32,11.44-1.14a7.65,7.65,0,0,1,3.44,3.43c1.25,2.41.85,5.46,0,11.45-.42,3-.75,4.2,0,5.72s1.62,1.42,3.43,3.43c1.43,1.58,2.11,3,3.44,5.73a34.89,34.89,0,0,1,2.28,5.72c1.09,3.75.75,5.51,1.15,8,1.11,6.94,6.68,11.5,8,12.59,1,.85,8.53,7,12.59,4.58,1.46-.86,1.49-2.24,2.29-16,.5-8.53.68-11.44-1.14-14.88-1.73-3.26-3-2.69-4.58-5.73-2.34-4.43-.47-7.14,0-17.16.45-9.65-1.08-11.58,1.14-16,1.86-3.7,3.43-3.39,4.58-6.87.9-2.71.67-5.08-1.14-13.73-1.35-6.42-2-9.62-2.29-10.3-4.27-10.78-14.4-9-24-21.75-3.59-4.74-5.18-8.95-6.92-13.53,0,0-1.71-4.5-1.09-4.79s1.88,4.22,5.72,5.73c2.07.81,4.1.46,6.87,0,4.24-.72,5.86-2.16,8-1.15a5.13,5.13,0,0,1,2.29,2.29c1.18,2.34-.37,4,0,6.87.25,1.85,1.1,2.47,3.44,5.72,3.84,5.34,2.94,5.58,5.72,9.16,3.13,4,3.95,3.29,8,8a62.66,62.66,0,0,1,5.72,8c3.09,4.83,4.63,7.24,4.58,9.16a13.89,13.89,0,0,1-4.58,9.16c-1,.92-1.68,1.19-2.29,2.29-1,1.86-.63,3.85,0,6.87a31.15,31.15,0,0,0,2.29,6.86c1.72,3.56,2.44,3.25,3.44,5.73,1.49,3.71.26,5.34,1.14,9.15.75,3.22,2.12,4.18,4.58,8a57.3,57.3,0,0,1,6.87,16c2.32,8.31,3.43,13.74,3.43,13.74.5,2.46,1.07,5.51,3.44,6.86,1.63.93,2.52.15,4.57,1.15a9.73,9.73,0,0,1,4.58,5.72c.86,2.64.27,4.57,0,6.87-.66,5.71,1.06,10.37,2.29,13.73,1.76,4.78,4.27,7.82,9.16,13.74,3.7,4.49,4.51,4.62,6.87,8,3,4.35,4.13,7.65,5.72,11.45,3.44,8.23,6.64,15.86,12.59,21.75,5.66,5.59,11.92,7.74,16,9.15a53.47,53.47,0,0,0,24,2.29c20.22-2.26,34.48-14.3,44.64-22.89,15.66-13.23,23.35-26.35,32-41.21,8.5-14.5,9-20.66,9.16-22.89.19-3.73-.29-7.12,1.14-12.59s3.08-6.24,5.73-12.59a65.59,65.59,0,0,0,4.58-19.46c.5-5,.95-9.55,0-14.88-1.89-10.52-8.12-17.58-16-26.33-10.47-11.58-12.73-9.76-17.17-17.16-3.58-6-2.09-7.15-6.87-26.33-1.31-5.27-.82-2.79-8-28.62-3.86-13.89-4.18-15.26-4.58-17.17-1.87-9.11-1.58-12-3.43-25.18-1.39-9.88-1.85-10.33-3.43-20.6-1.76-11.38-3.09-20-3.44-28.62-.88-21.86,5.28-26,5.72-54.94.18-11.31-.68-16.09-1.14-18.31-2.54-12.33-6.52-13.28-8-25.18-.67-5.36-1.53-10.69-2.29-16a22.85,22.85,0,0,0-2.29-8,17.34,17.34,0,0,0-5.72-6.87c-2.52-1.67-3.94-1.44-5.73-3.43a11.91,11.91,0,0,1-2.29-4.58c-2.48-7.05-3.56-6.13-4.57-10.3a29.05,29.05,0,0,1,0-12.59c.83-3.39,1.85-4.39,1.14-5.73-1-1.91-4.51-2.06-11.45-2.29-4.6-.15-4.1.18-8,0-6.54-.29-8-1.2-10.3,0s-3.42,3.41-4.58,5.73c-1.4,2.8-1.81,5.24-2.29,9.15-1,8-.47,8-1.14,12.59-1.08,7.47-2.79,10.44-1.15,14.88a7,7,0,0,0,2.29,3.44c2.91,2.09,8,1.14,8,1.14h0a26.73,26.73,0,0,1,3.44,5.73c.83,2.07.41,2.43,1.14,5.72a38.5,38.5,0,0,0,2.29,6.87c1.77,3.94,4.78,8.41,5.73,8,.72-.31.15-3.44,0-3.43s-.72,4.41,0,9.15c.53,3.53,1.28,4.13,1.14,6.87-.17,3.26-1.4,5.62-1.14,5.72s1.51-1.92,1.14-2.29c0,0-.34-.33-5.72,3.44h0s-1.9-2.32-3.44-4.58c-2.27-3.32-2.35-4.42-3.43-4.58-1.43-.21-2.8,1.5-3.43,2.29a12.75,12.75,0,0,0-2.29,5.72c-.63,2.94-.25,3.81-1.15,4.58-1.15,1-3.23.83-4.58,0s-1-1.87-2.29-3.43c-2.23-2.82-5.06-1.63-8-4.58-1.39-1.39-.74-1.63-2.29-3.43a12.48,12.48,0,0,0-8-4.58,12.12,12.12,0,0,0-8,2.29,20.27,20.27,0,0,0-4.58,4.57c-1.7,2.11-1.78,2.77-3.44,4.58-2,2.16-3,3.26-4.57,3.44-2.37.26-4.73-1.63-5.73-3.44-.11-.21-.46-1.29-1.14-3.43a22.84,22.84,0,0,0-1.15-3.43c-1.52-2.54-4.71-3-4.57-3.44s2.29,0,2.28,0a28.46,28.46,0,0,0-8,0,18.62,18.62,0,0,0-4.58,1.15c-2.54,1-3.2,2-5.72,3.43-1.52.85-2,.91-5.72,2.29-4.2,1.57-10.48,3.91-10.3,4.58.12.47,3.36-.29,3.43,0s-5.54,3.32-9.16,1.14a4.37,4.37,0,0,1-2.29-3.43c0-1.15.86-1.8,2.29-3.44,2.52-2.87,2.23-3.45,3.44-4.57,3.91-3.67,9.3.22,16-3.44a25.75,25.75,0,0,0,3.44-2.29,24.69,24.69,0,0,0,4.57-4.58c.74-1,1.75-2.9,1.15-14.88A98.58,98.58,0,0,0,731.44,689c-1-5.83-1.76-7.23-2.29-8-2.15-3.19-4.41-3-6.86-5.73-2.61-2.87-3.15-6.48-3.44-10.3-.84-11.15.67-21,1.15-29.76.81-14.76,1.21-22.14-1.15-30.9-1.18-4.39-3.87-12.4,0-17.17,1.34-1.66,2.32-1.51,3.44-3.44,2-3.49,0-5.94,0-13.73,0-5.25,1-5.79,0-8-.91-2-2.91-3.69-6.87-6.86a52.29,52.29,0,0,0-4.58-3.44c-7.11-4.56-10.76-2.59-14.88-5.72-3.85-2.93-4.68-7.71-5.72-13.74-1.36-7.81.87-8.62,0-17.16a47.14,47.14,0,0,0-5.73-18.32,52.5,52.5,0,0,0-6.86-9.16c-5.84-6.7-7.88-6.87-13.74-13.73-4.87-5.7-6.3-8.9-6.87-10.3-1.47-3.62-1.28-5.22-2.29-9.16-1.86-7.26-4.07-7.87-6.86-14.88-3.67-9.19-.8-10.46-4.58-20.6-2.58-6.93-4-6.43-5.73-12.59-2-7.14-.6-9.17-2.28-16-1.8-7.29-3.94-7.08-6.87-14.88-3.43-9.13-3.43-17.25-3.44-24,0-10.85,1.94-10.72,1.15-19.46-.43-4.74-.95-4.2-3.44-18.31-.63-3.61-.52-3.21-2.28-13.73-2.24-13.35-2.23-12.87-2.29-13.74-.72-9.88,1.86-18,3.43-22.89,2.65-8.32,4.76-9.92,5.72-17.17a46.4,46.4,0,0,0,0-11.45C625,210.89,626.91,213,625,201.36c-1.18-7.14-3.83-15.44-9.15-32.05s-7.36-20.37-10.31-24c-4.11-5.13-6.33-5.55-11.44-12.59-3.9-5.37-3.19-5.93-9.16-14.88-3.43-5.14-6.1-8.62-9.16-12.59-1.89-2.46-3.52-4.5-5.72-6.87C567.22,95.28,566.55,95,565.47,93.76Z"/></g><g id="beach_icon"><path class="cls-3" d="M909.6,847l-15.39-6.78-9.63,21.61c3.86,2,6,4.95,6,6.83,0,3.16-8.2,2.29-18.32,2.29s-18.31.87-18.31-2.29,10.48-9.15,20.6-9.15c.57,0,1.12,0,1.66.05l9.22-23.23-.08,0c-7.08-3.13-13-5.79-13.36-6-3.21-2.29,10-7.59,19.75-5a27.11,27.11,0,0,1,14.87,11.63C908,839.21,911.7,848,909.6,847Z"/><path class="cls-3" d="M729.9,527.66l-15.4-6.78-9.62,21.61c3.85,2,6,5,6,6.83,0,3.16-8.19,2.29-18.31,2.29s-18.32.87-18.32-2.29,10.49-9.15,20.61-9.15c.57,0,1.12,0,1.66.05L705.69,517l-.08,0c-7.07-3.13-13-5.79-13.36-6-3.2-2.29,10-7.59,19.76-5a27.15,27.15,0,0,1,14.87,11.63C728.26,519.86,732,528.59,729.9,527.66Z"/><path class="cls-3" d="M684.11,415.48l-15.39-6.77-9.63,21.61c3.86,2,6,4.94,6,6.83,0,3.16-8.2,2.29-18.32,2.29s-18.31.87-18.31-2.29S638.91,428,649,428c.57,0,1.12,0,1.66.06l9.21-23.24-.08,0c-7.07-3.14-13-5.79-13.35-6-3.21-2.29,10-7.59,19.75-5a27.11,27.11,0,0,1,14.87,11.63C682.48,407.69,686.21,416.42,684.11,415.48Z"/><path class="cls-3" d="M655.5,280.42l-15.4-6.78-9.62,21.61c3.85,2,6,4.95,6,6.83,0,3.16-8.2,2.29-18.31,2.29s-18.32.87-18.32-2.29,10.49-9.15,20.61-9.15c.57,0,1.12,0,1.65.05l9.22-23.23-.08,0c-7.07-3.13-13-5.79-13.36-6-3.2-2.29,10-7.59,19.76-5a27.18,27.18,0,0,1,14.87,11.63C653.86,272.62,657.59,281.36,655.5,280.42Z"/><path class="cls-3" d="M821.47,1142.32l-15.4-6.78-9.62,21.61c3.85,2,6,4.95,6,6.84,0,3.16-8.19,2.29-18.31,2.29s-18.32.87-18.32-2.29,10.49-9.16,20.61-9.16c.57,0,1.12,0,1.66.06l9.21-23.24-.08,0c-7.07-3.14-13-5.79-13.36-6-3.2-2.29,10-7.58,19.76-5a27.25,27.25,0,0,1,14.87,11.63C819.83,1134.52,823.56,1143.26,821.47,1142.32Z"/><path class="cls-3" d="M703.57,1009.54l-15.39-6.77-9.63,21.61c3.86,2,6,4.94,6,6.83,0,3.16-8.19,2.29-18.31,2.29s-18.31.87-18.31-2.29,10.48-9.16,20.6-9.16c.57,0,1.12,0,1.66.06l9.21-23.23-.08,0c-7.07-3.14-13-5.79-13.35-6-3.21-2.29,10-7.59,19.75-5a27.15,27.15,0,0,1,14.87,11.63C701.94,1001.75,705.67,1010.48,703.57,1009.54Z"/><path class="cls-3" d="M514.71,902l-15.4-6.78-9.62,21.61c3.85,2,6,5,6,6.84,0,3.16-8.19,2.29-18.31,2.29s-18.32.87-18.32-2.29,10.49-9.16,20.61-9.16c.57,0,1.12,0,1.66.06l9.21-23.24-.08,0c-7.07-3.14-13-5.8-13.36-6-3.2-2.29,10-7.59,19.76-5a27.2,27.2,0,0,1,14.87,11.63C513.07,894.15,516.8,902.89,514.71,902Z"/><path class="cls-3" d="M451.75,697.06l-15.39-6.78-9.63,21.61c3.86,2,6,5,6,6.84,0,3.16-8.2,2.29-18.32,2.29s-18.31.87-18.31-2.29,10.48-9.16,20.6-9.16c.57,0,1.12,0,1.66.06l9.22-23.24-.08,0c-7.08-3.14-13-5.79-13.36-6.05-3.21-2.28,10-7.58,19.75-5A27.21,27.21,0,0,1,448.73,687C450.12,689.27,453.85,698,451.75,697.06Z"/><path class="cls-3" d="M588,59.5l-15.4-6.77-9.63,21.61c3.86,2,6,4.94,6,6.83,0,3.16-8.2,2.29-18.32,2.29s-18.31.87-18.31-2.29S542.76,72,552.88,72c.57,0,1.12,0,1.66,0l9.22-23.23-.08,0c-7.08-3.13-13-5.79-13.36-6-3.21-2.29,10-7.59,19.75-5A27.11,27.11,0,0,1,584.94,49.4C586.33,51.71,590.06,60.44,588,59.5Z"/><path class="cls-3" d="M549.05,132.76,533.65,126,524,147.59c3.85,2,6,4.95,6,6.84,0,3.16-8.2,2.29-18.31,2.29s-18.32.87-18.32-2.29,10.49-9.16,20.6-9.16c.58,0,1.13,0,1.66.06l9.22-23.24-.08,0c-7.08-3.14-13-5.79-13.36-6-3.2-2.28,10-7.58,19.76-5A27.28,27.28,0,0,1,546,122.65C547.41,125,551.14,133.7,549.05,132.76Z"/></g><g id="forest_areas"><path class="cls-4" d="M728,748.49c-9.24-4.59-23.54,7.38-29.76,12.59a67.58,67.58,0,0,0-18.31,24c-4.56,10.28-5,18.56-5.73,30.9-.64,11.43-1.05,20.59,3.44,30.91,2.27,5.22,6.12,14.06,12.59,14.88,7.45.93,9.41-9.91,20.6-12.59s16.68,6.25,25.18,2.28c8.07-3.76,10-15,10.3-17.16,1.43-9.65-3.56-12.51-6.86-26.33s.58-15.51-2.29-34.34C735,759.34,733.76,751.35,728,748.49Z"/><path class="cls-4" d="M818.44,861.81c-5.18-2.06-12.31,1.1-16,5.72-4.3,5.35-1.25,9.2-5.72,14.88-1.2,1.52-1.89,1.83-12.59,8-10.05,5.8-11.09,6.48-12.59,8-2,2.06-6.66,6.8-6.87,13.74-.23,7.57,5,12.94,6.87,14.88,3.76,3.88,5.57,3.27,10.3,6.87,6.78,5.17,9.94,11.69,12.59,17.17,6,12.39,2.29,14.6,6.87,20.6C809,981.9,824.65,982,831,982c7.63,0,16,.07,20.6-5.72,4.16-5.29,2.75-12.43,1.14-20.6-1.36-6.95-3.35-17.08-11.44-22.9-6.22-4.47-10.09-2.09-13.74-6.86-3.84-5-3.55-12.86-1.14-18.32s5.17-4.64,6.87-9.16c.68-1.83,1.52-5.4-6.87-24C821.74,864,820.35,862.57,818.44,861.81Z"/><path class="cls-4" d="M506,461.19c-14.37,1.95-21.59,3-22.89,5.72-3.35,7,11.52,14.27,11.45,30.91,0,6.55-2.38,13.2-4.58,19.45-3.37,9.57-5.81,11.46-5.73,17.17.11,6.8,3.61,7.73,6.87,17.17,3.31,9.6.59,11.22,3.44,25.18,2.11,10.38,3.87,19,9.15,20.61,3.61,1.09,7.8-1.93,16-8a156.53,156.53,0,0,0,14.88-12.6c20.73-19.33,23.24-19.2,25.18-25.18,1.34-4.14-.16-3.27,0-21.74.16-17.66,1.53-18.05,0-22.9-3.5-11.1-11-10.11-16-21.75-5.5-12.77,1-19.81-4.58-25.18C536.13,457.16,526,458.47,506,461.19Z"/></g><g id="lables"><text class="cls-5" transform="translate(265.09 710.26)">S<tspan class="cls-6" x="10.6" y="0">T</tspan><tspan x="23.14" y="0">ONE</tspan><tspan class="cls-7" x="66.89" y="0"> </tspan><tspan class="cls-8" x="69.41" y="0">T</tspan><tspan class="cls-9" x="81.95" y="0">O</tspan><tspan class="cls-10" x="97.27" y="0">WN</tspan></text><text class="cls-11" transform="translate(399.01 911.71)">FUMBA</text><text class="cls-12" transform="translate(809.93 1163.53)">KIZIMKAZI</text><text class="cls-13" transform="translate(895.78 870.51)">P<tspan class="cls-10" x="10.46" y="0">AJE</tspan></text><text class="cls-11" transform="translate(892.34 789.24)">BWEJUU</text><text class="cls-12" transform="translate(721.79 542)">PONGWE</text><text class="cls-12" transform="translate(673.72 438.98)">KIWENG<tspan class="cls-14" x="87.48" y="0">W</tspan><tspan class="cls-10" x="106.18" y="0">A</tspan></text><text class="cls-11" transform="translate(647.39 297.05)">M<tspan class="cls-15" x="20.85" y="0">A</tspan><tspan class="cls-16" x="34.4" y="0">TEMWE</tspan></text><text class="cls-5" transform="translate(584.44 83.01)">NUNGWI</text><text class="cls-11" transform="translate(441.36 126.5)">KEN<tspan class="cls-17" x="42.29" y="0">D</tspan><tspan class="cls-14" x="57.73" y="0">W</tspan><tspan x="76.43" y="0">A</tspan></text><text class="cls-18" transform="translate(265.09 754.9)">Zanzibar City</text><text class="cls-11" transform="translate(694.65 855.22)">JOZANI <tspan x="0" y="27.47">FOREST</tspan></text><text class="cls-11" transform="translate(787.36 973.12)">MUJUNI <tspan x="0" y="27.47">FOREST</tspan></text><text class="cls-11" transform="translate(486.32 523.28)">KICHWELE <tspan x="0" y="27.47">FOREST</tspan></text><text class="cls-11" transform="translate(212.69 644.27)">PRISON ISLAND<tspan x="0" y="27.47">B</tspan><tspan class="cls-19" x="14.2" y="27.47">A</tspan><tspan x="27.4" y="27.47">WE ISLAND</tspan></text><circle class="cls-20" cx="388.06" cy="648.91" r="8.58"/><circle class="cls-20" cx="433.84" cy="170.45" r="8.58"/><circle class="cls-20" cx="460.17" cy="218.53" r="8.58"/><circle class="cls-20" cx="372.03" cy="661.5" r="8.58"/><text class="cls-21" transform="translate(227.8 178.59)">TUMB<tspan class="cls-15" x="64.63" y="0">A</tspan><tspan x="78.18" y="0">TU ISLAND</tspan></text><text class="cls-21" transform="translate(285.03 226.66)">POPO ISLAND</text></g><g id="dolphin"><path class="cls-2" d="M738.7,1149.72a1.88,1.88,0,0,1-.64,1.48c-.91.58-2.52-.53-3-.85-1.26-.86-1.25-1.49-2.55-2.12a3.7,3.7,0,0,0-1.7-.43l-1.15.2h-.1c0,.29,0,.74,0,1.48s0,.7,0,.85a3.71,3.71,0,0,1-1.27,2.55c-.76.58-1.47.48-2.06.84,0,0,0,0-.07,0-.26-.06.35-1.84,0-3.4a3.47,3.47,0,0,0-.45-1.1,22.49,22.49,0,0,1-2.52,2.38c-.61.47-1.4,1.07-1.7.85-.5-.37.9-2.59.42-3s-1.5.82-3.4,2.13c-3.32,2.29-4.65,2.17-6.37,4.25a4.34,4.34,0,0,0-1.28,3,10.92,10.92,0,0,0,.43,1.7,7.76,7.76,0,0,1,.42,3c-.13.86-.61,2.06-1.27,2.12-.47,0-.64-.54-1.7-1.27a6,6,0,0,0-1.7-.85,7.11,7.11,0,0,0-3.4,0s-.06,1.14-.43,1.27-1-.56-1.27-1.27a3.06,3.06,0,0,1,0-2.13,5.73,5.73,0,0,1,1.27-1.7,8.23,8.23,0,0,1,.85-.85c.94-.72,1.57-.59,2.13-1.27a2.6,2.6,0,0,0,.42-.85c.6-1.66-.17-2.48.43-3.83.25-.57.37-.38.85-1.27a11.66,11.66,0,0,0,.85-2.13,4,4,0,0,1,.42-1.27,4.28,4.28,0,0,1,.85-.85c.62-.58.45-.82,1.28-2.13a9.76,9.76,0,0,1,1.27-1.7,8.52,8.52,0,0,0,.85-.85c.6-.72.45-.91.85-1.27.69-.63,1.38-.29,1.7-.85.15-.25.1-.59,0-1.28a10.15,10.15,0,0,0-.42-1.7l-1.06-.63c.27-.56.4-.84.42-.85.58-.47,1.27.13,3.4.42.94.13,1.3.08,1.7.43a4.1,4.1,0,0,1,.85,1.27c.32.63.27.74.43.85.54.38,1.45-.72,3-1.27,1.17-.43,2.48-.29,5.1,0a13.54,13.54,0,0,1,2.55.42,7.65,7.65,0,0,1,3.4,1.7,5.78,5.78,0,0,1,1.7,2.55c.32,1.06,0,1.36.42,3.4a9.39,9.39,0,0,0,.43,1.7C738.27,1148.7,738.7,1149,738.7,1149.72Z"/><path class="cls-2" d="M744,1175.06a1.9,1.9,0,0,1-.64,1.49c-.91.57-2.52-.54-3-.85-1.26-.87-1.25-1.49-2.55-2.13a3.49,3.49,0,0,0-1.7-.42c-.07,0-.55.08-1.15.2h-.1c0,.29,0,.74,0,1.48s0,.69,0,.85a3.73,3.73,0,0,1-1.27,2.55c-.76.57-1.47.47-2.06.83a.07.07,0,0,1-.07,0c-.26-.07.35-1.84,0-3.4a3.25,3.25,0,0,0-.45-1.1,22.54,22.54,0,0,1-2.52,2.37c-.61.48-1.4,1.07-1.7.85-.5-.36.9-2.59.42-3s-1.5.82-3.4,2.12c-3.32,2.3-4.65,2.17-6.37,4.25a4.39,4.39,0,0,0-1.28,3,12.76,12.76,0,0,0,.43,1.7,7.72,7.72,0,0,1,.42,3c-.13.87-.61,2.07-1.27,2.13-.47,0-.64-.54-1.7-1.28a6,6,0,0,0-1.7-.85,7.11,7.11,0,0,0-3.4,0s-.06,1.15-.43,1.28-1-.56-1.27-1.28a3,3,0,0,1,0-2.12,5.79,5.79,0,0,1,1.27-1.7,8.23,8.23,0,0,1,.85-.85c.94-.72,1.57-.59,2.13-1.28a2.6,2.6,0,0,0,.42-.85c.6-1.65-.17-2.47.43-3.82.25-.57.37-.39.85-1.28a11.42,11.42,0,0,0,.85-2.12,4.08,4.08,0,0,1,.42-1.28,4.56,4.56,0,0,1,.85-.85c.62-.58.46-.81,1.28-2.12a9.4,9.4,0,0,1,1.27-1.7,8.52,8.52,0,0,0,.85-.85c.6-.73.45-.91.85-1.28.69-.62,1.38-.29,1.7-.85.15-.24.1-.59,0-1.27a9.85,9.85,0,0,0-.42-1.7l-1.06-.64c.27-.55.4-.83.42-.85.58-.47,1.27.13,3.4.43.94.12,1.3.08,1.7.42a4.15,4.15,0,0,1,.85,1.28c.32.63.27.74.43.85.54.38,1.45-.73,3-1.28,1.17-.42,2.48-.28,5.1,0a14.33,14.33,0,0,1,2.55.43,7.55,7.55,0,0,1,3.4,1.7,5.78,5.78,0,0,1,1.7,2.55c.32,1.05,0,1.35.43,3.4a8.91,8.91,0,0,0,.42,1.7C743.6,1174.05,744,1174.31,744,1175.06Z"/></g><g id="monkey_totoes"><path class="cls-22" d="M738.59,785.7c.88-.25.67-1.27,1.72-2.29a4.46,4.46,0,0,1,2.87-1.15,3.23,3.23,0,0,1,2.3.58c.93.79,1,2.26,1.72,2.29.18,0,.32-.09.57,0a1.17,1.17,0,0,1,.57.57c.4.71,1,1.75.58,2.3-.19.24-.46.24-.58.57a1.1,1.1,0,0,0,0,.57c.1.76-.12.88,0,1.15.23.5,1.06.57,1.15.58.75,0,1.12-.37,1.72-.58a3.52,3.52,0,0,1,2.87.58c.5.32.71.64,1.72,2.29,1.1,1.8,1.64,2.7,1.72,2.87a14,14,0,0,1,1.15,4.59,17.49,17.49,0,0,1,0,2.29c-.26,6.68.76,8.21-.58,9.75-.58.67-1.41,1.11-1.72,2.29a3.67,3.67,0,0,0,0,1.72c.49,2.44,0,5,0,7.46,0,1.72.39,3.49,0,5.16a6.58,6.58,0,0,0,0,2.87,2.19,2.19,0,0,0,.58,1.15c.27.26.59.4,1.72.57,1.67.26,2.52.39,2.86,0s.12-.62.58-1.15c.18-.21.57-.57.57-.57h.58s.77,1,.57,1.72c-.15.52-.65.4-1.15,1.15-.39.59-.23.88-.57,1.15s-.45.22-1.72,0a9.22,9.22,0,0,1-2.3-.58,7.26,7.26,0,0,1-1.72-1.15,7.75,7.75,0,0,1-2.29-2.29,6.66,6.66,0,0,1-.58-2.87,26,26,0,0,1,0-3.44,51,51,0,0,1,.58-6.31,4.89,4.89,0,0,0,0-3.44c-.17-.32-.42-.61-.58-.57s0,.88-.57,1.72a1.47,1.47,0,0,1-.57.57,1.2,1.2,0,0,1-1.15,0c-.64-.45.07-1.67-.57-2.29a1.33,1.33,0,0,0-1.72,0c-.18.23-.09.5,0,1.14.17,1.25.26,2,0,2.3s-1.25,0-4-.57-3.73-.48-4.59-1.15a3.57,3.57,0,0,0-1.14-.58c-.3-.08-.91-.26-1.15,0s.22.82,0,1.15-1.81.2-2.87-.57c-.55-.41-1.35-1.21-1.15-1.72.1-.25.34-.18,1.15-.58a7.31,7.31,0,0,0,1.72-1.14c.3-.27.2-.23.58-.58,1-1,1.68-1.17,1.72-1.72v-1.14c-.07-.18-1.35-.06-2.3.57-.56.37-.41.52-1.15,1.15-.92.78-1.18.55-1.72,1.14-.7.78-.5,1.43-1.14,1.72a1.68,1.68,0,0,1-1.15,0c-.17,0-1.6-.34-1.72-1.14-.07-.47.33-.9.57-1.15.64-.67,1.17-.53,1.72-1.15.4-.43.29-.67.58-1.14.7-1.18,2-.68,3.44-1.72,1-.68.5-.95,2.29-2.87.42-.45.85-.87,1.72-1.72,1.56-1.52,1.58-1.46,1.72-1.72.37-.68.18-1,0-4-.11-1.89-.08-2.45-.57-2.87-.11-.09-.2-.13-1.72-.57a6.3,6.3,0,0,1-1.72-.57,3.45,3.45,0,0,1-1.15-1.72c-.43-1.13-.07-1.39-.57-2.3a3.89,3.89,0,0,1-.58-1.15,5.19,5.19,0,0,1,0-1.14c0-1.15-.21-1.37,0-1.72a1.71,1.71,0,0,1,1.15-.58C737.79,785.51,738.05,785.86,738.59,785.7Z"/><path class="cls-23" d="M743.75,809.79h0c0,.08-.3.48-.41.64-.22.34-.56.85-.73,1.08-.86,1.16-1.7,1.16-1.72,1.72s.57,1.06,1.14,1.15c.76.12,1.14-.62,2.3-.57.32,0,.4.07.57,0,.7-.31.6-1.84.58-2.3-.05-.67-.1-1.49-.58-1.72C744.73,809.71,744.58,809.74,743.75,809.79Z"/><path class="cls-23" d="M742,787.42c-.84.18-1.24-.29-1.72,0a1.66,1.66,0,0,0-.57,1.15,2.49,2.49,0,0,0,0,1.15,3.82,3.82,0,0,0,1.15,1.72c.43.47.42.35.57.57.63.89.07,1.61.57,2.3a1.69,1.69,0,0,0,1.72.57,1.72,1.72,0,0,0,1.15-1.15c.13-.42,0-.51,0-1.14a3.76,3.76,0,0,1,.58-1.72c.46-.72.78-.55,1.14-1.15a2.13,2.13,0,0,0,0-2.3,2,2,0,0,0-1.14-.57,3.77,3.77,0,0,0-2.3,0C742.52,787.08,742.59,787.31,742,787.42Z"/><circle class="cls-24" cx="741.46" cy="789.14" r="0.57"/><circle class="cls-24" cx="744.33" cy="789.14" r="0.57"/><path class="cls-25" d="M359.09,607.41a5.8,5.8,0,0,1,4.09,0c1.37.36,3.1.82,4.09,2.46.8,1.31,1.2,3.52,0,4.9-1.53,1.78-4.58.92-4.9.82a11.91,11.91,0,0,1-4.09-2.45h0a5.11,5.11,0,0,1-1.64-2.45C356.48,609.41,357.81,608,359.09,607.41Z"/><path class="cls-22" d="M352.55,592.69c.73-.66,3.88.75,5.73,3.27,3.17,4.34,1.47,10.59.81,10.64-.35,0-.12-1.82-1.63-3.28s-3.37-1-4.09-2.45c-.35-.68-.06-1.06,0-2.45C353.53,594.94,351.93,593.26,352.55,592.69Z"/><path class="cls-22" d="M355.82,614c.7.92.28,2.32,0,3.27a9.44,9.44,0,0,1-4.9,5.72c-4.23,2-9.82.82-9.82.82h0s-.74-2.41,0-3.27c.88-1,3.18,1,4.91,0s.55-3.67,2.45-5.73S354.61,612.36,355.82,614Z"/><path class="cls-22" d="M329,599.86c.38-.05,1.07,1.49,1.07,1.49h0l2.55.42h0s1.52,1.56,2.94,2.85c2.21,2,3.07,2.39,2.93,2.84-.23.78-3,.54-3.23.52a8.68,8.68,0,0,1-3.49-1.11A6.16,6.16,0,0,1,328.8,604C328,602.13,328.53,599.92,329,599.86Z"/><path class="cls-22" d="M337,592.69c.37-.74,2.48-.76,4.09,0,2.66,1.27,4.11,4.75,3.27,5.73-.46.54-1.26-.12-4.09,0-2,.08-2.94.48-3.27,0s1-1.56.82-3.27C337.72,593.76,336.73,593.26,337,592.69Z"/><path class="cls-22" d="M362.37,607.41a7.46,7.46,0,0,0-3.28,3.28c-.87,1.87-.2,3-.81,4.08-1.39,2.54-7.7,2.28-12.27.82-.52-.16-10.63-3.53-12.27-11.45-.2-1-.8-3.88.82-5.72.39-.44,1.41-1.41,5.72-1.64a24.92,24.92,0,0,1,9,.82C356.66,599.8,361,605.41,362.37,607.41Z"/><path class="cls-26" d="M356.8,603.9,355,605.77a1.88,1.88,0,0,0,1.54,2.12l1.78.3-.3-2.71Z"/><path class="cls-26" d="M347.23,611.44l-1.83,1.87a1.87,1.87,0,0,0,1.54,2.12l1.77.3-.3-2.71Z"/><path class="cls-26" d="M350.78,607.65l-2.6-.1a1.89,1.89,0,0,0-.47,2.59l1,1.53,1.74-2.07Z"/><path class="cls-26" d="M351.94,610l-2.48,2.53a2.53,2.53,0,0,0,2.08,2.86l2.4.41-.4-3.66Z"/><path class="cls-26" d="M341.7,601.79l-1.83,1.87a1.87,1.87,0,0,0,1.54,2.12l1.77.3-.3-2.71Z"/><path class="cls-26" d="M340.12,597.77l-1.83,1.87a1.87,1.87,0,0,0,1.54,2.12l1.77.3-.3-2.71Z"/><path class="cls-26" d="M339,604.34l-2.3,2.51s-.29,2.44,1.93,2.84l2.23.41-.37-3.64Z"/><path class="cls-26" d="M336.64,598.71l-2.3,2.51s-.29,2.44,1.93,2.84l2.23.41-.37-3.64Z"/><path class="cls-26" d="M348.41,604.43l-2.6-.09a1.89,1.89,0,0,0-.47,2.59l1,1.52,1.74-2.06Z"/><path class="cls-26" d="M354.43,600.69l-1.84,1.87a1.87,1.87,0,0,0,1.54,2.11l1.78.3-.3-2.7Z"/><path class="cls-26" d="M352.05,602.6l-2.48,2.53a2.53,2.53,0,0,0,2.08,2.86l2.4.4-.4-3.66Z"/><path class="cls-26" d="M352.12,598.83l-3.52-.12a2.55,2.55,0,0,0-.63,3.5l1.34,2.06,2.36-2.79Z"/><path class="cls-26" d="M344.23,597.6l-2.49,2.53a2.53,2.53,0,0,0,2.09,2.86l2.4.41-.4-3.66Z"/><path class="cls-26" d="M343.83,606.38l-2.48,2.53a2.52,2.52,0,0,0,2.08,2.86l2.4.41-.4-3.66Z"/><path class="cls-26" d="M358.25,608.77l-3.51-.13a2.55,2.55,0,0,0-.64,3.5l1.34,2.07,2.36-2.79Z"/><circle class="cls-27" cx="364.82" cy="611.5" r="0.41"/><path class="cls-25" d="M513.62,59.14a5.7,5.7,0,0,1,4.09,0c1.36.36,3.1.81,4.09,2.45.79,1.32,1.19,3.52,0,4.91-1.54,1.78-4.58.91-4.91.82a12,12,0,0,1-4.09-2.46h0a5.12,5.12,0,0,1-1.64-2.45C511,61.13,512.34,59.74,513.62,59.14Z"/><path class="cls-22" d="M507.08,44.42c.73-.66,3.88.75,5.72,3.27,3.17,4.33,1.48,10.59.82,10.63-.36,0-.13-1.81-1.64-3.27s-3.37-1-4.09-2.45c-.34-.69-.06-1.07,0-2.46C508.05,46.66,506.45,45,507.08,44.42Z"/><path class="cls-22" d="M510.35,65.68c.69.92.28,2.32,0,3.27a9.53,9.53,0,0,1-4.91,5.73c-4.22,2-9.81.82-9.81.82h0s-.75-2.42,0-3.28c.88-1,3.18,1,4.9,0s.56-3.66,2.46-5.72S509.14,64.08,510.35,65.68Z"/><path class="cls-22" d="M483.49,51.59c.38-.05,1.06,1.48,1.06,1.48h0l2.55.43h0s1.52,1.55,2.94,2.84c2.22,2,3.08,2.39,2.94,2.85-.24.77-3,.53-3.23.51a8.65,8.65,0,0,1-3.49-1.1,6.29,6.29,0,0,1-2.94-2.85C482.5,53.86,483.05,51.65,483.49,51.59Z"/><path class="cls-22" d="M491.54,44.42c.36-.75,2.48-.77,4.09,0,2.65,1.26,4.1,4.75,3.27,5.72-.47.54-1.27-.12-4.09,0-2,.09-2.95.48-3.27,0s.95-1.56.81-3.27C492.24,45.49,491.25,45,491.54,44.42Z"/><path class="cls-22" d="M516.89,59.14a7.42,7.42,0,0,0-3.27,3.27c-.88,1.88-.2,3-.82,4.09-1.39,2.53-7.7,2.27-12.27.82-.51-.17-10.63-3.54-12.27-11.45-.2-1-.8-3.88.82-5.73.39-.44,1.42-1.4,5.73-1.63a24.84,24.84,0,0,1,9,.81A25.47,25.47,0,0,1,516.89,59.14Z"/><path class="cls-26" d="M511.32,55.63l-1.83,1.87A1.87,1.87,0,0,0,511,59.61l1.77.3-.29-2.7Z"/><path class="cls-26" d="M501.76,63.17,499.92,65a1.87,1.87,0,0,0,1.54,2.11l1.77.3-.29-2.7Z"/><path class="cls-26" d="M505.3,59.37l-2.59-.09a1.89,1.89,0,0,0-.47,2.59l1,1.52L505,61.33Z"/><path class="cls-26" d="M506.47,61.77,504,64.3a2.53,2.53,0,0,0,2.09,2.86l2.39.4-.4-3.66Z"/><path class="cls-26" d="M496.23,53.52l-1.84,1.87a1.87,1.87,0,0,0,1.54,2.11l1.77.3-.29-2.7Z"/><path class="cls-26" d="M494.65,49.49l-1.84,1.88a1.87,1.87,0,0,0,1.54,2.11l1.77.3-.29-2.71Z"/><path class="cls-26" d="M493.54,56.06l-2.31,2.52s-.29,2.43,1.94,2.84l2.22.4L495,58.19Z"/><path class="cls-26" d="M491.17,50.43,488.86,53s-.29,2.43,1.94,2.84l2.22.4-.37-3.63Z"/><path class="cls-26" d="M502.93,56.15l-2.59-.09a1.89,1.89,0,0,0-.47,2.59l1,1.53,1.74-2.07Z"/><path class="cls-26" d="M509,52.41l-1.83,1.87a1.88,1.88,0,0,0,1.54,2.12l1.77.3L510.14,54Z"/><path class="cls-26" d="M506.58,54.32l-2.48,2.53a2.52,2.52,0,0,0,2.08,2.86l2.4.41-.4-3.66Z"/><path class="cls-26" d="M506.64,50.56l-3.51-.13a2.55,2.55,0,0,0-.64,3.5L503.83,56l2.36-2.79Z"/><path class="cls-26" d="M498.75,49.32l-2.48,2.54a2.53,2.53,0,0,0,2.08,2.86l2.4.4-.4-3.66Z"/><path class="cls-26" d="M498.35,58.1l-2.48,2.54A2.53,2.53,0,0,0,498,63.5l2.4.4-.4-3.66Z"/><path class="cls-26" d="M512.77,60.49l-3.51-.12a2.54,2.54,0,0,0-.63,3.5L510,65.93l2.36-2.79Z"/><circle class="cls-27" cx="519.34" cy="63.23" r="0.41"/></g></svg>