<svg id="Layer_1" data-name="Layer 1" xmlns="http://www.w3.org/2000/svg" viewBox="0 0 1200 800"><defs><style>.cls-1{fill:#f1292a;}.cls-1,.cls-2,.cls-3,.cls-4{opacity:0.61;}.cls-2{fill:#f37926;}.cls-3{fill:#fba423;}.cls-4{fill:#fdc015;}.cls-5{fill:#408ad0;}.cls-10,.cls-6{fill:#6c484f;}.cls-7{fill:none;stroke-width:2px;}.cls-7,.cls-8{stroke:#351c14;stroke-miterlimit:10;}.cls-8{fill:#fff;}.cls-9{fill:#351c14;opacity:0.8;}.cls-10{font-size:262px;font-family:MongolianBaiti, Mongolian Baiti;}.cls-11{fill:#0d3453;}</style></defs><title>Artboard 1</title><path class="cls-1" d="M938.15,567.22a256.91,256.91,0,0,0,5.74-53.57c.17-141.18-114.14-255.78-255.32-256S432.79,371.83,432.61,513a257.08,257.08,0,0,0,5.6,53.59Z"/><path class="cls-2" d="M900.36,568.22a217.58,217.58,0,0,0,4.87-45.47c.15-119.83-96.88-217.1-216.71-217.25S471.41,402.37,471.27,522.21A217.74,217.74,0,0,0,476,567.69Z"/><path class="cls-3" d="M824.68,567.34A139.78,139.78,0,1,0,551.31,567Z"/><path class="cls-4" d="M784.63,565.22A89.16,89.16,0,1,0,610.26,565Z"/><path class="cls-5" d="M363,581.48c-.51-2.84,27.15-12,54.7-17.94,20.38-4.37,41.61-8.77,70.33-7.69,8,.3,27.72,4.22,67.08,12.06,0,0,7.31,1.45,7.15,2.46-.13.83-12.66-3.78-21.88,2.57-.64.44-7.32,5.15-7,11.1s7,9.94,14.85,13.67c18.82,9,35.13,11.48,48.45,13.67,18.72,3.07,44.69,7.34,44.54,9.39-.06.9-5,.57-13.28,1.71-16.64,2.3-36.19,9-35.95,14.53.09,2.11,3.11,3.54,4.69,4.27,26.19,12.07,39.29,18.1,43,18.79,40.67,7.59,55.48,7.69,55.48,7.69,73,.51,139.4,1,139.88,6,.3,3.19-26.12,9.38-51.58,13.67-70,11.79-118.61,20-171.13,2.56-30.14-10-63.86-32.86-131.29-78.59-15.67-10.63-40-27.68-74.23-30.76C383,578.49,363.43,583.86,363,581.48Z"/><path class="cls-6" d="M686.2,221c-7.29-4.14-11.75-6.68-18.1-7.62-3-.44-7.17-.66-7.24-1.69,0-.36.45-.67.72-.85,2.61-1.71,5.16,1.28,8.69,0,.91-.33,2.23-1.06,2.17-1.69-.1-1.13-4.48-1.46-8-1.7a136.74,136.74,0,0,0-16.66,0s-4.32.31-4.34,0,5.1-.6,9.41-4.23c.66-.55.76-.73.73-.85-.36-1.22-16.36,1.81-26.07,6.78,0,0-2.67,1.33-2.9.84s2.68-2.44,5.8-6.77c1.07-1.49,1.6-2.24,1.44-2.54-.85-1.66-15.66,7.27-21,11a41.53,41.53,0,0,0-4.34,3.38c-2.2,2-4.29,4.31-4.34,4.24s4.62-3.78,5.06-9.32a9.42,9.42,0,0,0,0-1.69s-6,5.37-12.31,11-8,7-10.13,10.16a49.73,49.73,0,0,1-2.9,4.24c-.13-.11,1.34-2.69,2.9-6.78.74-2,1.82-4.81,1.44-5.08s-2.39,3-5.79,7.62a81.44,81.44,0,0,1-10.14,11.86,60.07,60.07,0,0,1-8.68,6.77,17.42,17.42,0,0,1-2.9,1.7c-.21-.38,11.66-10.26,19.55-20.33.5-.64,1.69-2.18,1.45-2.54-.6-.89-9.59,5.87-13,8.47-2.27,1.72-3.5,2.71-3.62,2.54s3.76-4,10.14-11c5.47-6,5.37-6.41,7.24-7.62,2.58-1.67,4.56-2.09,9.42-5.08,2.45-1.52,3.68-2.28,3.62-2.54-.37-1.47-19.66,3.25-21.73,9.31a7,7,0,0,1-2.17,3.39c-1.1.85-2.67,1.29-2.9.85-.61-1.2,8.58-9.17,15.93-14.4,4.23-3,6.34-4.51,8-5.08,2.32-.81,5.41-1.38,8.69-4.24,1-.82,1.55-1.35,1.45-1.69-.5-1.58-16.81.39-22.45,7.62-.64.82-2.82,3.87-5.07,3.39a3,3,0,0,1-1.45-.85l.73-.84c5.84-6.84,15.2-11,15.2-11,5.12-2.29,7.41-2.23,10.86-4.24,2.23-1.29,3.17-2.41,5.8-3.39.55-.2,1.46-.5,1.45-.84,0-.55-2.42-.8-2.9-.85-2.87-.3-5.78.49-13.76,4.24-3.12,1.46-6.28,2.8-9.41,4.23a7.33,7.33,0,0,1-2.17.85c-.08-.17,1.56-1.32,10.13-6.78,7.61-4.84,11.44-7.27,12.31-7.62a69,69,0,0,0,10.14-5.08c1.82-1.1,2.23-1.47,2.17-1.7-.22-.93-8.53-1.07-15.93,3.39a66.14,66.14,0,0,1-10.86,5.93c-2.67,1.1-2.86.93-2.9.85-.34-.73,6-6.24,13.76-10.17,2-1,3.43-1.58,5.8-2.54,6.24-2.51,10.52-3.51,16.65-6.77,3.6-1.92,3.65-2.38,3.62-2.54-.21-1.11-6.81-1.88-13,.84-3,1.32-5.73,3.36-10.87,4.24-1.1.19-2.76.46-2.89,0-.27-.9,5.25-4.43,10.86-6.78,8.11-3.4,12.63-2.77,20.27-7.62,3.7-2.34,3.68-3.15,3.63-3.39-.36-1.39-6.86-.3-8.69,0a74.54,74.54,0,0,0-12.31,3.39c-3.85,1.36-5,2-5.07,1.7-.38-.85,8.21-8.73,16.65-11.86a85.58,85.58,0,0,0,9.42-4.24c2.7-1.34,2.92-1.56,2.89-1.69-.16-.82-10.19-.86-19.55,4.23-8.88,4.83-12.31,6.78-12.31,6.78-1.23.7-3.47,2-3.62,1.69s1.86-1.8,4.35-4.23c2.15-2.11,6.18-6,5.79-6.78-.8-1.5-20,10.8-21.73,16.1a7.3,7.3,0,0,1-2.17,3.38c-.82.67-2,1.18-2.17.85-.39-.59,2.71-3.18,5.07-8.47.29-.66,2-4.58,1.45-5.08-.83-.71-7.3,4.53-10.86,12.7-2.2,5-4.12,8.15-8,14.4-.07.12-.58.94-.72.85s1.2-3.39,2.17-7.62c.4-1.74,1.46-6.38.72-6.78-1.09-.59-6.21,7.93-9.41,16.94a109,109,0,0,0-3.62,12.7c-.77,3.73-1.16,6.81-1.45,6.78-.62-.07.8-14-.72-14.4-1-.24-3.53,5.07-4.35,11s.53,9.88-1.45,16.94c-.11.42-1,3.49-1.44,3.38-.91-.2.64-12.57,0-12.7s-2.76,12-3.62,11.86c-1-.18,1.73-17-3.63-33-1.34-4-2.55-6.07-2.89-5.93s1,4.58,0,10.16c-.38,2.06-1.12,4.31-1.45,4.24s0-3.33,0-5.93c.15-10.51-4.82-19.11-8-24.56-2.83-4.9-4.86-7-5.06-6.78s2.28,3.65,2.17,8.47c0,1-.08,3.2-.73,3.39-1.88.57-4-17.36-15.2-25.41-3-2.16-5.64-2.87-5.79-2.54-.23.49,4.8,3.17,7.24,9.32.19.48,1.19,3,.72,3.39-1.09.89-7.42-12.14-19.55-17.79-3.1-1.44-5.7-2-5.79-1.69s4,2.26,8.69,6.77c.51.49,2.34,2.25,2.17,2.54-.44.77-12.74-11-28.24-11.85-.22,0-4.89-.24-5.07.84-.29,1.77,11.73,5,25.34,15.25,0,0,4.69,3.54,4.35,4.23s-9.18-6.3-21-6.77c-.26,0-5.65-.21-5.79.84-.2,1.45,9.51,6.07,19.55,8.47a22.5,22.5,0,0,1,12.31,6.78c.23.27,1.75,2,1.44,2.54-.65,1.18-8.3-5.85-18.82-5.93-3.53,0-7.19.73-7.24,1.69-.13,2.19,18.28,3.12,33.31,16.1,3.74,3.23,3.69,4.12,3.62,4.23-.48.75-14.34-11.28-25.35-10.16-.88.09-2.09.3-2.17.84-.2,1.4,7.17,3,17.38,8.47a60.88,60.88,0,0,1,13,9.32c2.94,2.74,4.54,4.77,4.35,5.08-.44.69-8.84-8.9-20.28-9.32-3.57-.13-7.15.65-7.24,1.7-.19,2.33,17.05,3.08,30.41,16.94,3.18,3.29,3.78,4.88,3.62,5.08-.55.72-13.1-14.13-26.06-14.4-.59,0-4.2-.09-4.35.85s3.4,2.27,7.24,4.23c4.52,2.31,3.38,2.41,13.76,9.32,4,2.66,9,5.88,13,11.85,0,0,1,1.42.73,1.7-.63.78-9-10.34-21.72-14.4-2.75-.88-5.63-1.4-5.8-.85-.24.81,5.64,2.49,12.31,8.47,4.23,3.79,5.13,6,10.14,10.17.44.36,1.5,1.37,3.62,3.38,3.12,3,4.27,4.2,4.35,5.93,0,.18.07,2.12-.73,2.54-2.48,1.33-8.06-14.92-16.65-15.24-1.27-.05-2.81.24-2.9.85-.17,1,4.27,2,9.41,5.92,4.09,3.1,6.68,6.55,6.52,6.78s-5.74-5.13-6.52-4.24c-.09.12-.47.74,2.18,5.09a61.56,61.56,0,0,0,12.94,15.18A29,29,0,0,1,524,232c-.87-2.07-3.46-8.9-6.52-10.16-.36-.15-1.47-.61-2.17,0s-.39,2.37-.72,2.54c-1.17.61-6.48-19.25-18.83-26.25-3.06-1.74-5.61-2.15-5.79-1.7-.32.82,7.23,4.18,7.24,9.32,0,.56,0,2.09-.72,2.54-2.61,1.61-8.87-14-22.45-20.33-3.42-1.58-6.37-2.13-6.52-1.69s3.48,2.24,7.24,6.78c.52.62,2.46,3,2.17,3.38-.49.72-6.31-5.87-15.2-9.31-7.25-2.81-14.31-2.68-14.48-1.7-.22,1.19,9.54,4.62,9.41,5.08s-10.74-5.46-22.45-2.54c-5.37,1.35-8.76,4-8.69,4.24s5.24-2.63,10.87-.85c.59.19,2.93.93,2.89,1.7-.1,1.71-12.12-.36-25.34,5.92-6.31,3-9.6,6.34-9.42,6.78.38.9,16-8.21,29-5.08.34.08,2.87.71,2.9,1.69.05,1.89-9.22,2.28-18.83,9.32-2,1.47-4.6,3.64-4.35,4.23.5,1.15,11.18-5.42,26.8-8.47,5.75-1.12,9.35-1.22,9.41-.84.08.54-7.59,1.2-15.93,6.77-4.68,3.13-8.86,7.32-8.69,7.62s1.47-.81,2.9-1.69a48.46,48.46,0,0,1,15.2-5.93,60.64,60.64,0,0,1,12.31-1.69c5-.17,10.13.29,10.14.84,0,.81-10.82-.16-21.72,6.78-3.24,2.06-6,4.53-5.8,5.08.36.83,7-4,17.38-5.93,5.12-1,9.38-.92,15.93-.84,2.61,0,8.65.09,8.69.84s-8.23,1.24-18.83,5.93c-4.34,1.92-8.86,4.48-8.68,5.08s4.82-1.13,14.48-3.39c0,0,12.52-2.93,22.44,0,.12,0,1.48.45,1.45.85-.07,1.14-11-1.22-21.72,4.24-4.29,2.19-8.17,5.45-8,5.92s3-1.13,6.52-2.54c1.33-.53,17.59-6.79,30.41-.84.81.37,2.25,1.09,2.18,1.69-.19,1.47-9.27-.48-20.28,2.54-6.51,1.79-11,4.57-10.86,5.08.22.85,12.82-5.39,28.24-2.54,4.32.8,8,2.16,8,2.54s-5.43-.94-12.31,0c-6.47.89-11.72,3.49-11.59,4.24.2,1.11,12.25-3.4,26.79.84,4.79,1.4,8,3.21,8,3.39s-3.86-1.56-8.69-.85c-1.93.29-4.37,1-4.35,1.7,0,1,5.21.42,11.59,3.39,4.1,1.9,7.41,4.67,7.24,5.08s-4.26-1.87-10.14-4.24c-10.24-4.13-21.26-6.61-21.72-5.08-.39,1.28,6.89,4.59,6.52,5.93-.77,2.74-32.37-6.91-32.59-5.93-.13.57,10.34,4.06,10.14,5.08s-8.44-1.81-19.55-.84c-8.23.71-15.3,3.21-15.21,4.23.05.48,2.93.89,8.69,1.69,3.38.47,4.32.53,4.35.85.09,1.11-11,1.15-22.45,8.47-4.26,2.73-8.21,6.25-8,6.78.15.31,1.77-.57,5.07-1.7,2.7-.92,7.08-2.19,7.24-1.69.28.88-13.53,4.35-21,16.94-1.71,2.88-3.23,6.49-2.89,6.77s1.88-2.27,5.07-5.08c2-1.81,4.79-3.78,5.06-3.39.55.76-10.28,8.39-15.2,22.87-1.94,5.7-3.11,12.23-2.17,12.7,1.14.58,4.5-8.27,13-19.48,4.76-6.25,8.39-9.63,8.69-9.31s-6.51,7.53-9.41,19.48c-1.48,6.06-1.49,11.63-.73,11.85,1.45.42,4.78-18.67,16.66-33,2-2.37,4.07-4.51,4.34-4.23s-3.62,5.31-6.52,12.7c-2.81,7.19-3.83,14.82-2.89,15.25,1.44.66,5.77-16.44,19.55-30.49,4-4.1,7.09-6.15,7.24-5.93s-7.81,6.46-13,17.79c-2.9,6.27-4.42,13.08-3.62,13.55s2.51-3.77,8-11.86c5.93-8.82,10-13.19,13-16.09,3.64-3.45,6.38-5.29,6.52-5.08s-7,5.37-11.58,15.24c-2.74,5.91-3.58,11.5-2.9,11.86,1.54.82,12.74-24.43,23.17-27.95.48-.16,1.85-.58,2.17,0,.83,1.48-6.67,7-12.31,17.78-2.86,5.49-4,9.94-3.62,10.17.81.51,8.55-20.23,23.9-28.8,2.64-1.47,4.81-2.2,5.07-1.69.5,1-6.9,5.55-13,15.24-3.73,5.89-5.59,11.46-5.07,11.86.93.72,8.54-15.78,23.9-24.56,3.73-2.13,6.35-2.92,6.52-2.54.29.67-7.51,4.41-13.76,13.55-3.07,4.49-4.82,8.89-4.35,9.32.89.78,8.21-13.15,22.45-20.33,4.66-2.35,7.86-2.87,8-2.54.17.52-7.6,3-13,11-2,3-3.4,6.26-2.89,6.77,1.29,1.31,13.14-16.91,25.34-16.09,1.63.11,2.07.48,2.17.85,1,3.68-29.55,17.67-29,19.48.28.87,7.59-1.95,8-.85.44,1.31-9.79,5.65-19.55,16.94-2.65,3.07-5.54,7-5.07,7.62.7,1,8.41-5.54,8.69-5.08s-5.45,4.62-10.86,11.86-8.9,15.18-8,16.09,6.64-5.76,7.24-5.08S467,350.63,464.63,365c-.54,3.3-.78,7.34,0,7.62,1.34.48,5.21-10.44,5.79-10.16s-4.2,10.56-3.62,23.71c.2,4.65,1.06,9.35,1.45,9.32s.17-2.38.72-5.93c.43-2.79,1.48-7.69,2.17-7.62,1.14.1-.65,13.27,3.62,28.79,2.07,7.51,4.59,12.06,5.07,11.86.87-.37-4.37-16.47-2.17-33.88,0,0,.64-5.09,1.45-5.08,1,0,.93,8.48,4.34,19.48,1.59,5.1,3.27,8.62,3.62,8.47.91-.39-4.91-25.53-3.62-40.65.23-2.68.54-3.39.73-3.39.61,0,.28,7.76,2.89,16.94,1.32,4.63,3.11,8.65,3.62,8.46,1.26-.46-5.08-26.35-.72-43.19.63-2.42,1.16-3.45,1.45-3.38.87.18-1.21,10.53.72,23.71.64,4.37,1.77,9.39,2.17,9.31s.12-2.22,0-5.92c-.35-10.94.33-9.6,0-17.79-.14-3.65-.39-6.85.73-11,.09-.34.94-3.49,1.45-3.39.88.18-.88,9.92.72,22.87.41,3.35,1.15,7.66,1.45,7.62s.07-2.86,0-6.77c-.26-13.38,1-14.56.72-22.87a40.68,40.68,0,0,1,.73-8.47c.22-1.15.48-2.56.72-2.54.71.06-.72,12.81,2.9,27.1.14.58,1.55,6.07,2.17,5.93,1.17-.27,1.1-20.76-.72-31.34-.16-.92-1.05-5.87.72-10.16.28-.67,1.17-2.66,1.45-2.54s0,1.47-.09,1.81c-1,5.55.64,18,.81,19.36.81,6.31,2.32,13.65,2.9,13.55s-.46-5.51,0-14.39c.63-12.15,2.93-12,2.89-21.18,0-2-.14-7,1.45-7.62a.93.93,0,0,1,.73,0c1.9,1-2.32,10.88-.73,22.87.53,4,1.64,7.7,2.17,7.62.69-.11-.22-6.42.73-16.09a88.76,88.76,0,0,1,3.62-17.79c1.37-4.59,2.66-7.71,2.9-7.62.43.18-3.58,10.84-2.18,23.72.32,2.86.91,5.94,1.45,5.92,1,0,.58-10,3.62-22.86,1.69-7.13,3.88-12.86,4.35-12.71s-.56,3.84-.73,10.17c0,.94-.25,9.15.73,9.31.64.11,2-3.27,2.17-6.77.16-2.93-.53-4.81,0-5.08s2.11,1.84,2.9,3.38a12.68,12.68,0,0,1,.72,1.7c1.15,3.72-4.33,7.65-4.34,12.7,0,4,3.47,8.1,7.24,9.32s7.44-.65,9.41-2.54c1.51-1.46,1.63-2.5,2.17-2.54,1.7-.14,4.5,9.85,9.42,49.12L566,431.07v49.12l-.94,9.88c-.27,2.82-.57,6-.88,9.18-.35,17.78-5.42,35.56-9,52.08l-1.36,3-7.33,16.43c8.54.28,16.36.51,23.53.7l5.25.13c1.63.45,4.53,1.29,4.53.45,6.51-27.11,10.14-53.36,9.67-81.63q0-5-.26-10.26c-.73-17.21-2.42-31.23-5.79-59.29-2.22-18.49-3.39-28-5.79-40.65-3.71-19.46-5.56-29.19-8-35.57-2.59-6.86-7.3-17.39-5.07-19.48,1.19-1.11,3.19,1.29,5.79,0,3.78-1.86,4.28-9.21,4.35-10.16a16.83,16.83,0,0,0-1.45-8.47c-.75-1.57-2-4.15-4.34-5.08-1.07-.42-1.63-.22-2.18-.85-1.42-1.63-.59-6.41.73-6.77,2.43-.67,7.36,13.47,9.41,20.32,2.54,8.46,3.29,14.47,3.62,14.4s-.38-9-2.17-18.63c-1.41-7.6-2.54-10.84-2.17-11,.73-.34,6.51,11.53,10.13,26.25,1.89,7.66,2.58,13.61,2.9,13.55s-.25-8-1.45-16.09c-1.54-10.42-3.28-15.94-2.89-16.09.57-.23,5.46,11.51,8.69,26.25,1.6,7.32,2.41,13.63,2.89,13.56s.1-7.71,0-9.32c-.78-13.52-2.71-21-2.17-21.17s4.88,10.61,7.24,24.56c1.67,9.83,1.69,16.95,2.17,16.93s.92-9.08.73-17.78c-.24-10.76-1.23-16-.73-16.09.86-.21,5.4,14.46,7.24,32.18.83,8,.8,13.52,1.45,13.55.83,0,2.21-8.72,2.18-17.78,0-10.3-1.89-16.81-1.45-16.94s4.7,11.39,6.51,26.25c1.35,11,.91,19.47,1.45,19.48s1.18-8.19,1.45-12.7c.63-10.33.21-16,.72-16.09s2.09,7.56,2.9,16.09c1.63,17.09-.35,28.59.72,28.79.87.16,2.74-7.11,3.63-12.7.08-.57.47-3.09.72-6.78.57-8.55-.24-14.36,0-14.39s1.56,6.5,2.17,15.24c.41,5.75.3,9.42.73,22.87.22,7,.32,8.4.72,8.47,1.07.18,3.76-8.9,4.34-18.64.4-6.64-.34-11,0-11,.54-.08,2.6,10.57,3.63,22,.63,7,.74,12.9.72,16.94,3.34-13.65,4.39-24.49,4.34-29.64a63.93,63.93,0,0,0-.72-10.16c-.44-2.36-1-4.12-.72-4.24s2.06,2.51,2.89,5.93c.62,2.55.37,4,1.45,6.78.22.57,1,2.67,1.45,2.54.77-.24-.41-8.09-.73-10.17a105,105,0,0,0-2.89-13.55c-2.15-7.47-3.61-9.33-4.35-10.16-1-1.16-2.32-2.24-2.17-2.54s2.12.17,3.62,1.69,1.59,3.33,3.62,5.09c.7.6,1.2,1,1.45.84.85-.65-1.75-8.25-5.79-14.39a43.73,43.73,0,0,0-4.35-5.93,36.8,36.8,0,0,1-4.34-5.93c-.18-.28-.92-1.46-.73-1.7s2.07,1.84,5.07,2.55c.85.19,1.95.46,2.18,0,.37-.78-2.16-2.77-6.52-7.63-3.41-3.8-5.79-6.77-5.79-6.77-2.63-3.29-2.63-3.6-3.63-4.24-2.19-1.4-4.2-1.1-5.79-3.38-.1-.16-.95-1.38-.72-1.7s1.64.5,3.62,1.7a11.49,11.49,0,0,0,3.62,1.69c.58.13,1.31.3,1.45,0,.2-.45-1-1.68-2.9-3.39-3.71-3.42-5.79-5.08-5.79-5.08-4.4-3.51-6.6-5.26-7.24-5.93-1.63-1.68-1.59-2-5.8-7.62s-5.21-6.58-5.06-6.78c.45-.61,11.9,7.44,15.93,15.25a24,24,0,0,0,4.34,5.93c.2.2,3.12,3.08,3.62,2.54s-1.68-3.94-5.79-11a47.32,47.32,0,0,0-5.07-7.62,20.19,20.19,0,0,1-2.17-2.54c.14-.23,3.42,2.06,6.51,5.08,3.46,3.36,3.28,4.33,8.69,11,4.44,5.47,5,5.39,5.8,7.62s1,4.57,2.89,7.62c.33.53,1.73,2.8,2.17,2.54.73-.43-1-7.75-4.34-14.4-1-1.89-2.81-4.93-6.52-11-2.37-3.88-3-4.9-2.89-5.08.41-.45,6.37,5.21,11.58,12.71,3.69,5.31,3.64,6.71,6.52,10.16a25,25,0,0,1,4.34,6.77c.5,1.18.63,1.73.73,1.7.45-.14.69-12-4.35-16.94a14.17,14.17,0,0,1-3.62-5.08c-.5-1.22-1.08-3.13-.72-3.39.56-.4,3.16,3.46,6.52,8.47,5.43,8.11,8.14,12.17,8.69,14.4.62,2.59,1,6.16,3.62,9.31.56.69,1.65,2,2.17,1.7,1.32-.82-2.31-11.9-5.07-18.63a67.38,67.38,0,0,0-5.07-10.17c-1.35-2.17-2.26-3.29-2.17-3.38s5.33,4.56,9.41,11.85A70.05,70.05,0,0,1,663,323.51a122.3,122.3,0,0,0,5.07,12.7c1,2.26,1.31,2.6,1.45,2.54.74-.29-.84-12-5.07-22.86-.77-2-1.68-4.07-1.45-4.24.39-.27,3.77,5.08,6.52,10.16.88,1.64,2.92,5.51,9.41,20.33,2,4.65,2.62,6,2.9,5.93.72-.29-1-10.41-4.35-20.33-1.87-5.52-3.29-8.16-2.89-8.47.79-.6,7.88,8.78,11.58,16.94,1.57,3.47,3.41,6.76,5.07,10.17,1.05,2.14,1.26,2.6,1.45,2.54,1-.32.15-14.58-5.07-23.72a50.88,50.88,0,0,1-2.9-5.08c-1.94-4.12-2.13-6.46-4.34-8.47a7.8,7.8,0,0,0-2.76-1.66,11.34,11.34,0,0,1,6.38,4.2c.79,1.1,1.78,3,3.62,3.39.39.09.6.14.72,0,.94-1-4.14-10.43-10.86-16.94a29.62,29.62,0,0,0-8-5.93c-1.84-.88-3.67-1.47-3.62-1.69s2.47-.12,5.07.85c2.84,1.06,4.42,2.6,5.79,1.69a1.56,1.56,0,0,0,.72-.85c.78-2.83-9.53-11.33-21-14.39-2.8-.75-5.82-1.22-5.79-1.7s4.83-1,8.69-.84c1.69.05,2.14.15,2.17,0,.2-.85-11.68-7.37-22.45-7.63-7.9-.19-11.86-.28-13,0-.41.1-2,.51-2.17,0s1.29-2.3,2.89-3.38c1.17-.79,2.19-1.1,2.18-1.7,0-.43-.55-.74-.73-.84-2.26-1.32-13.38-2.24-23.17,2.54,0,0-2.07,1.07-2.17.84s1.42-1.22,3.62-3.38c1-1,1.51-1.49,1.45-1.7-.11-.4-1.38-.74-15.21,2.54-5.18,1.23-8,2-12.31,1.7-2.72-.19-6.5-.85-6.51-1.7s2.91-1.38,4.34-1.69c6.41-1.39,10.35-.58,18.1-.85,2.54-.09,7.22-.25,7.24-.85.05-1-12.14-2.9-15.2-3.38-3.29-.52-4.35-.61-4.35-.85,0-.76,10.8-3.38,19.55-.85a43.51,43.51,0,0,0,9.42,1.7c2.21.22,3.54.35,3.62,0,.19-.87-6.89-5.92-13.76-5.93a21.19,21.19,0,0,1-8-1.7c-.94-.39-1.47-.62-1.44-.84.1-1.05,13-4,22.44,1.69a36,36,0,0,0,11.59,4.24c1.64.28,2.1.21,2.17,0,.3-1-6.59-6.17-14.48-8.47-3.64-1.07-7.23-2.3-10.86-3.39-1.17-.35-2.2-.66-2.17-.85,0-.47,6.54.12,11.58.85,6.66,1,10,1.45,12.31,2.54,2.9,1.37,5.82,3.43,10.86,4.23,1.66.27,2.74.44,2.9,0,.61-1.68-12.69-11.65-18.83-11a9.12,9.12,0,0,1-5.07-.85c-.22-.12-2.28-1.15-2.17-1.7.36-1.71,21.78,1.54,26.79,5.93a11,11,0,0,0,5.07,2.54c.89.17,2,.39,2.17,0,.43-1.18-8.68-8.62-19.55-11.85-2.37-.71-5.11-1.3-5.07-1.7s3.91-.42,7.25,0a55.77,55.77,0,0,1,10.13,2.54A91.22,91.22,0,0,1,650,238a30.69,30.69,0,0,0,8.69,2.54c1.38.19,2.08.27,2.17,0,.42-1.27-11.13-10.47-18.1-10.16a8.55,8.55,0,0,1-5.8-1.69c-.67-.53-1.56-1.24-1.45-1.7.56-2.16,23.68,3.08,29,8.47a24.26,24.26,0,0,0,5.79,4.24c1.27.65,2.05,1.06,2.17.84.51-.84-7.66-13.17-15.93-13.55-1.12-.05-4.51,0-6.51-2.54-.19-.24-1-1.22-.73-1.69.41-.84,3.59.58,8.69,2.54,6.74,2.58,5.55,1.77,9.41,3.39,5.13,2.14,6.56,3.29,13,5.92,1.36.56,5,2,5.07,1.7,0-.1-.26-.32-.36-.4-3.48-2.66-6.69-7.38-16.3-13.15-4.22-2.54-5.88-3-5.79-3.39.25-1,12.34-2,20.28,5.08,1.19,1.06,4.38,4.16,8.68,4.24.51,0,2.67,0,2.9-.85C695.3,226.21,689.22,222.75,686.2,221Z"/><path class="cls-7" d="M608,465.48c33.53,25.38,68.75,54.17,104.75,86.73,29.17,26.39,55.78,52.47,80,77.72"/><line class="cls-7" x1="708.25" y1="529.69" x2="624.9" y2="655.84"/><path class="cls-8" d="M786.8,624c-3.09,9.32-2,19.46-5.34,28.47-14.64-14.65-36-24.78-57.45-22.53-4.5.56-9,1.25-13.39,2a400,400,0,0,0-57.56,14.87s13.79-28.45,12-59a83.19,83.19,0,0,0-1.79-13.2c-6.8-29.21-19.19-56.24-33.31-82.48-1.45-2.9-2.74-5.46-3.82-7.58-2.15-4.25-3.46-6.73-3.46-6.73l6.53,5.72c2.09,1.83,4.62,4,7.54,6.56,27.61,26,58,49.67,87.18,73.85q3.76,3.24,7.49,6.51t7.44,6.57c2.84,2.58,5.66,5.19,8.5,7.91,11.61,11.15,22.87,22.41,33.91,34.22C784.81,622.3,786.8,624,786.8,624Z"/><polyline class="cls-7" points="663.19 656.96 663.19 652.46 680.61 652.46 747.67 652.46"/><line class="cls-7" x1="682.34" y1="661.47" x2="682.34" y2="652.46"/><polyline class="cls-7" points="704.72 652.46 704.87 661.47 705.43 632.9"/><line class="cls-7" x1="719.35" y1="652.46" x2="719.51" y2="661.47"/><line class="cls-7" x1="731.75" y1="652.46" x2="731.9" y2="661.47"/><path class="cls-9" d="M603.5,654.71l101.37,6.76s33.79-4.51,76.59-9,52.94-5.64,52.94-5.64H824.26s-34.92,9-34.92,18v9L715,679.49l-89-6.76s5.64-2.25-7.88-10.14S603.5,654.71,603.5,654.71Z"/><line class="cls-7" x1="702.61" y1="529.69" x2="829.89" y2="650.2"/><text class="cls-10" transform="translate(34.19 575.55)">zanmodest</text><path class="cls-6" d="M948.8,396.85l-2.14-2.38v-1.58l-4.26-1.59L936,388.93s-6.4-1.59-8.53-1.59a5.64,5.64,0,0,0-3.21.8v-4l-9.6-4h-8.54l-3.2-.79-3.2-2.38v-3.17l-1.07-2.37h-7.47l-1.06-1.58v-1.59l-6.41-1.58-3.2-1.59-13.87.8h-16l-3.2-3.17-9.6.79-6.41.79h-8.53l-8.54-3.16-10.67-1.59-1.07,1.59-11.74,1.58-2.13,2.37-20.28.8-8.53,4.75,1.06,3.16H746l-18.14,1.59h-6.4v1.58L714,378.63V381l-10.67,2.38V385H698v1.58h-6.4l5.33,2.38-1.06,4h12.8l11.74-.8h12.81l7.47-.79,12.8,3.17,7.47,2.38,20.28,1.58,2.13,4,16,7.12,10.67,4,6.4,7.92L825,433.27l2.14,14.25L826.08,461h17.07l-1.06-12.67,1.06-21.38,6.41-7.92,14.93-11.87,12.81-4.75,8.54-2.38,6.4-.79,6.4.79v1.59H942.4L952,400ZM805.8,381h4.27v3.17h-2.13l-2.14-1.59ZM793,383.39h5.33l2.14,1.58,5.33,1.58H790.86Zm-19.21,9.5-4.27,1.58-7.47-1.58-10.67-1.59-7.47-.79v-1.58l13.87.79,7.47-.79,8.54.79Zm3.2-9.5h-7.47v-3.17l2.13-3.17,4.27,3.17H789.8l1.06,2.37L785.53,385Zm35.22,23v2.37l-4.27-1.58-4.27-1.59-8.54-2.37L790.86,400h17.08l4.27,2.38Zm63-21.38-7.47,1.58,4.26-3.16Zm0,4-7.47,3.16v-3.16l4.26-1.59Zm-13.88-3.17,6.41-2.37-2.14,3.16-2.13,2.38-4.27-2.38Zm-13.87,3.17,3.2-4,2.14,4-5.34,2.37Zm-17.07-4,3.2-1.58,5.33,1.58,2.14,3.17v3.16h-5.34l-1.06-2.37h-6.41Zm-6.41,0v2.37l-2.13,2.38-2.13-.79v-3.17Zm-6.4,3.17-2.13-.8V381l4.27,2.38L817.54,385Zm16,35.63-2.14,4.75v-4l-11.73-11.09v-6.33l13.87,12.67Zm0-11.88s-3.2-4-3.2-4.75-8.54-4-8.54-4v-4h17.07l-5.33,2.38L831.41,404ZM857,408.72l-4.26,3.17-3.2,1.58-5.34,2.38,3.2-3.17v-2.37l5.34-3.17L857,404l2.14,1.58Zm4.27-14.25v4.75L857,400l-6.4,4-7.47,3.17v4.75l-2.13,4-2.14-4V404l4.27-4,7.47-5.54,3.2-4,3.2-3.17,4.27,4Zm9.61,7.92L863.43,404V401.6L867.7,400l7.47-.79Zm7.47-6.34H867.7l5.33-3.16,6.4-4H888v3.16l-5.33,2.38Zm12.8,0H883.7l7.47-4,4.27,1.59Z"/><path class="cls-11" d="M645.56,420.14a6.54,6.54,0,0,1-.91-1.66,9.83,9.83,0,0,1-.43-1.84,9,9,0,0,1,0-1.87,9.29,9.29,0,0,1,.27-1.83,14.18,14.18,0,0,1,3.36-6.33,14.4,14.4,0,0,1,5.94-4,9.44,9.44,0,0,1,7.23.18l0,.4a15.91,15.91,0,0,0-5.63,2.16,22.79,22.79,0,0,0-8,8.92,11.51,11.51,0,0,0-.59,1.4,12,12,0,0,0-.44,1.44,11.62,11.62,0,0,0-.38,3Z"/><path class="cls-11" d="M645,420.54a23.8,23.8,0,0,0-2.58-2.17c-.41-.3-.79-.59-1.22-.86-.21-.14-.39-.28-.58-.42s-.42-.26-.61-.4l-4.69-3.1-4.73-3.11c-1.65-1.05-3.27-2.11-5.53-3.28l0-.4a14.81,14.81,0,0,1,6.54.63,24.74,24.74,0,0,1,6,2.81,23.83,23.83,0,0,1,4.93,4.36,12.27,12.27,0,0,1,3,5.87Z"/><path class="cls-11" d="M661.94,496.22a5.59,5.59,0,0,1-1.4-2.81,8.45,8.45,0,0,1,0-3.05,10.86,10.86,0,0,1,7.5-8.31,7.14,7.14,0,0,1,5.94.64l0,.4a12.66,12.66,0,0,0-4.35,1.7,16,16,0,0,0-3.56,3,15.62,15.62,0,0,0-2.65,3.85,10.56,10.56,0,0,0-.8,2.2,8.53,8.53,0,0,0-.32,2.31Z"/><path class="cls-11" d="M661.48,496.54a17,17,0,0,0-2.33-1.49c-.35-.2-.67-.39-1-.57a5.46,5.46,0,0,1-.48-.27,4.59,4.59,0,0,1-.49-.26c-1.27-.7-2.45-1.39-3.6-2.16s-2.27-1.58-3.44-2.48-2.32-1.88-4.1-3.11l0-.4a11.36,11.36,0,0,1,5.11.47,17.8,17.8,0,0,1,8.5,5.6,9.4,9.4,0,0,1,2.28,4.6Z"/></svg>